<svg width="663" height="581" viewBox="0 0 663 581" fill="none" xmlns="http://www.w3.org/2000/svg">
<path d="M34 371.998C40.8713 369.884 78.7215 364.628 85.636 363.001C87.6109 362.155 82.0033 376.482 81.8075 377.167C80.2295 382.69 63.5476 397.522 114.11 404.731C117.89 404.731 120.477 405.082 123.537 402.578C127.539 399.304 139.874 301.687 141.675 297.057C144.859 288.14 145.774 277.97 148.997 269.109C151.253 262.905 205.149 241.415 210.156 238.912C216.39 235.795 228.054 232.069 236.859 216.947C241.066 212.739 244.28 207.957 248.249 203.547C258.658 191.981 273.648 183.142 287.873 177.322C292.67 175.36 298.869 174.319 304 173.925C307.284 173.672 310.791 172.154 313.954 172.154C318.9 172.486 330.467 211.111 333.475 212.448C346.849 216.82 375.291 197.431 385.063 187.659C391.11 181.613 401.386 173.292 401.386 165.071M401.386 165.071C401.386 156.346 398.239 145.315 389.135 141.814C387.958 141.361 381.431 138.414 380.76 140.761C379.654 144.632 379.55 146.011 382.483 148.944C387.52 153.982 393.913 161.162 400.955 162.726L404.831 135.975M401.386 165.071C403.382 170.144 411.297 197.946 412.201 199.288C416.26 210.381 423.328 214.171 431.104 217.76C434.274 219.223 437.99 218.669 441.393 218.669C445.692 218.669 450.578 215.887 454.792 215.045C456.988 214.605 473.631 210.111 469.771 214.614C462.863 222.674 451.135 229.371 450.485 241.066C450.299 244.417 449.624 247.647 449.624 251.211C449.624 254.685 449.525 259.985 448.571 263.271C448.323 264.126 445.976 268.995 447.566 269.348C449.211 269.714 453.25 267.108 454.792 266.477C460.971 263.949 466.266 259.796 471.925 256.379C484.122 249.015 495.593 240.938 507.338 232.93C515.554 227.328 525.251 223.152 532.366 216.037C537.317 211.087 548.724 201.628 545.909 193.497C544.885 190.539 540.415 187.582 537.965 185.745C532.658 181.765 525.874 177.136 521.981 171.771C515.912 163.405 509.294 155.886 504.371 146.743C501.931 142.211 501.406 137.394 497.862 133.343C492.094 126.751 486.467 120.678 479.725 114.823C469.985 106.365 457.786 97.5649 452.256 85.5837C447.22 74.6722 437.387 64.6849 428.951 56.2483C415.066 42.3641 405.856 59.968 399.854 71.3706C394.846 80.8867 388.863 93.0227 392.389 104.104C394.02 109.231 396.113 114.106 397.94 119.13C399.983 124.747 399.658 113.487 399.711 112.478C400.064 105.768 401.112 99.3177 399.854 92.7141C399.197 89.2646 398.293 84.8796 397.94 81.7074C397.056 73.7476 393.633 65.6496 393.633 57.4925C393.633 50.0953 395.947 44.8449 400.046 38.9246C403.804 33.4963 448.511 14.0655 454.218 11.0728C465.038 6.92892 514.522 -14.9746 560.218 47.6341C606.736 111.37 596.678 150.569 591.324 163.061C589.504 167.307 586.577 170.812 583.619 174.307C579.687 175.517 563.123 191.24 559.213 192.636C556.588 193.574 551.977 197.101 550.599 199.719C548.864 203.015 554.672 206.236 557.49 207.28C566.765 210.715 576.386 213.283 585.725 216.516C592.223 218.765 597.683 221.155 603.814 224.221C627.263 241.279 626.195 261.018 627.263 266.716C629.888 280.714 629.462 294.234 628.795 308.255C627.263 383.005 594.082 502.291 590.989 510.54C589.487 514.545 588.788 518.674 587.448 522.695C586.215 526.394 586.168 530.82 584.002 534.132C580.863 538.934 577.723 541.07 572.995 544.278C567.937 547.71 560.419 550.224 554.523 552.03C544.608 555.069 534.681 556.592 524.374 557.199C517.761 557.588 511.425 561.578 504.754 562.319C496.635 563.221 488.796 565.448 480.539 565.86C458.616 566.957 437.066 568.397 415.12 568.397C405.98 568.397 396.84 568.397 387.699 568.397C373.031 568.397 358.236 570.001 343.672 568.205C333.198 566.914 319.112 567.881 311.801 558.539C306.986 552.386 308.215 515.083 310.508 507.285C311.957 501.492 317.713 497.979 323.382 496.949C340.925 493.759 358.674 491.886 376.214 489.34C379.919 488.802 385.296 489.551 385.019 484.841C384.872 482.343 379.054 480.839 377.267 480.343C362.14 476.141 348.573 466.401 334.245 460.339C328.401 458.824 293.146 443.554 287.49 441.484C283.423 439.996 276.483 437.743 276.483 443.446C276.483 446.042 323.382 469.336 333.335 469.336C338.844 469.336 353.88 466.899 359.369 455.171C363.354 450.02 371.37 401.603 363.484 391.332C353.297 387.028 356.151 433.782 357.933 440.91C359.636 447.723 362.06 454.183 365.351 460.435C367.834 465.154 372.439 467.447 376.836 469.815C383.356 473.325 389.956 476.601 397.079 478.811C404.693 481.175 411.314 478.451 418.231 475.462C434.146 468.585 469.734 458.649 486.76 455.554C492.897 454.677 522.63 446.857 524.518 458.186C525.365 463.267 522.466 463.693 517.77 464.12C510.001 464.826 555.013 320.567 575.388 294.09C579.463 286.813 584.596 278.625 592.185 274.708C609.599 265.721 614.151 300.505 614.151 311.27C614.151 335.9 595.679 455.33 593.286 480.056C589.347 496.627 589.044 513.906 587.161 530.782C586.408 537.525 586.138 544.46 587.256 551.169C587.471 552.458 587.561 555.963 588.5 557.007C589.786 558.436 592.682 559.609 594.339 560.453C598.84 562.746 602.716 565.841 607.068 568.397C611.965 571.272 616.927 573.661 621.904 576.149M409.138 140.809C407.827 138.677 405.482 135.475 403.779 133.583C401.384 130.922 403.864 134.887 404.831 135.975M404.831 135.975C407.143 138.576 419.239 154.751 421.007 146.504C422.469 139.677 415.614 133.829 409.856 131.238C404.434 128.798 391.936 128.656 388.465 134.731M388.465 134.731C386.422 138.307 380.934 140.235 377.65 142.675C371.7 147.095 366.098 152.115 360.23 156.649C353.896 161.544 347.469 165.601 341.758 171.101C337.876 174.84 333.853 178.673 330.416 182.874C327.552 186.374 332.196 188.651 335.345 187.181C338.338 182.193 364.989 153.091 365.207 146.982C365.368 142.48 365.355 139.255 360.9 136.837C359.597 136.129 349.555 126.067 351.792 123.581C355.152 119.847 363.499 118.733 367.872 119.13C371.071 119.421 385.998 133.322 388.465 134.731ZM394.244 130.616C365.207 119.13 324.722 148.944 309.025 164.401C301.735 167.095 296.048 163.54 288.734 163.54C285.496 163.54 282.258 163.54 279.02 163.54C272.74 163.54 267.51 167.711 262.079 170.527C251.59 175.966 225.066 186.882 189.291 212.64C185.261 215.541 177.725 218.371 180.916 224.221C182.411 226.961 189.887 226.872 192.497 227.666C195.887 228.698 199.353 229.291 202.786 229.915C211.275 231.459 219.249 235.036 228.054 235.036C238.583 235.036 261.84 235.719 288.926 223.407C296.377 220.02 305.434 221.254 313.428 221.254C320.594 221.254 324.296 220.731 324.722 212.64C325.027 206.835 323.273 208.91 321.276 212.448C319.481 215.628 319.121 217.704 318.5 219.722C315.225 230.366 313.475 240.124 306.632 249.488C297.911 261.423 237.616 280.677 229.537 284.566C227.513 285.541 224.003 286.663 226.594 289.541C228.519 291.681 239.483 292.795 242.458 292.795M289.404 305.075C289.404 310.798 289.664 326.468 289.404 332.183C289.26 335.356 285.148 338.669 282.13 339.217C280.613 339.493 276.605 340.811 275.239 340.031C273.072 338.793 272.294 331.248 271.746 328.833C270.474 323.237 269.592 315.805 269.592 310.025C269.592 307.84 269.631 303.948 267.008 303.948C264.068 303.948 261.716 303.592 259.447 305.862C256.991 308.317 255.917 313.184 255.14 316.486C254.292 320.091 252.836 323.462 251.694 327.014C250.019 332.225 249.757 333.235 243.798 333.235C238.874 333.235 234.802 333.489 231.308 329.359C226.315 323.458 230.139 310.339 232.121 303.996C233.977 298.056 240.28 290.144 247.196 293.42C253.236 294.99 274.717 301.716 280.79 303.278C285.379 304.458 294.781 306.77 299.31 304.331C304.375 301.603 311.079 288.175 302.804 285.811C292.855 282.968 281.537 281.248 270.932 280.69C262.421 280.242 254.767 276.2 246.813 273.799C239.427 271.569 164.93 252.111 157.275 251.498C123.346 246.526 146.275 230.64 149.188 228.623C153.619 225.555 157.682 223.714 162.779 221.732C164.864 220.921 171.128 219.965 169.191 223.838C167.742 226.737 140.335 238.228 137.587 239.53C128.473 241.524 131.192 242.052 123.346 247.096C114.633 252.697 107.613 258.16 106.788 269.3C106.788 277.425 107.784 281.871 111.095 281.504C118.593 280.67 135.032 273.983 142.251 272.178M134.089 274.718C133.11 274.896 113.38 284.85 116.742 285.811C118.97 286.447 121.796 287.394 124.016 288.443C126.803 289.759 141.028 293.502 141.244 295.334C142.131 302.877 125.149 295.006 123.155 294.09C118.764 292.072 113.643 290.12 108.894 289.256C106.56 288.832 100.774 286.162 98.6526 286.768C98.1582 286.909 97.3127 293.364 97.3127 294.042C91.2829 314.955 74.9164 371.173 74.9164 383.196C74.9164 386.689 76.6078 385.813 79.2233 387.121C83.317 389.167 87.0085 392.254 91.2829 393.916C103.774 398.774 139.098 410.146 147.944 415.93C168.487 434.251 187.726 469.336 187.726 469.336C190.768 465.013 200.6 458.999 205.849 458.999C216.838 458.999 226.453 465.3 230.159 476.419C230.824 478.413 230.915 482.58 232.121 484.028C232.549 484.541 233.551 490.604 233.366 491.254C181.313 486.373 184.399 490.896 184.314 492.594C183.93 500.272 226.154 511.907 232.504 513.698C233.379 513.917 241.761 514.433 238.151 511.545C230.829 505.687 185.175 503.458 185.175 509.391C185.175 517.305 202.855 522.611 209.246 524.848C216.705 527.459 225.356 529.544 232.552 531.548C235.759 532.898 237.022 531.866 236.859 528.773C236.696 525.679 228.724 524.466 228.724 524.466C221.36 524.466 193.556 520.535 191.205 526.365C188.854 532.195 213.961 541.198 213.961 541.198L240.257 551.6C254.506 551.115 231.906 543.151 227.719 542.507C221.249 541.512 213.418 538.611 208.624 544.469C203.105 551.216 222.526 559.021 225.661 559.783C236.568 562.432 248.438 561.506 259.638 561.506C264.599 561.506 269.56 561.506 274.521 561.506C280.255 561.506 288.941 561.793 294.094 559.352C297.648 557.669 300.609 555.633 304.239 554.423C309.044 552.822 313.579 551.459 314.193 545.809C314.832 539.933 313.976 534.755 311.131 529.634C306.627 520.447 301.637 501.873 295.817 493.407C289.5 484.219 278.791 477.254 269.209 471.968C264.636 469.445 259.955 468.188 255.14 466.369C249.643 464.293 244.303 461.523 238.582 460.052C233.848 458.835 229.91 458.138 224.991 458.138C222.065 458.138 222.52 463.371 223.268 465.699C224.772 470.378 230.406 474.942 233.844 478.381C238.43 482.967 243.451 489.369 249.349 492.163C250.751 492.827 266.141 498.338 266.96 494.652C268.848 486.155 256.616 486.564 251.503 486.564C248.351 486.564 234.671 488.514 232.743 486.373C231.638 485.145 232.789 480.883 232.121 479.146C229.726 472.918 230.829 464.315 230.829 457.659C230.829 446.785 229.828 436.192 229.154 425.405C228.149 409.327 227.912 391.429 229.776 375.348C230.889 365.749 225.58 362.445 217.908 358.407C215.63 357.208 212.21 353.909 209.342 350.415C208.708 348.3 194.137 334.48 242.458 332.326C252.386 330.12 263.239 328.067 273.516 328.067C281.526 328.067 288.648 322.899 296.487 322.899C304.626 322.899 309.466 325.359 316.012 329.359C325.252 335.006 360.303 352.996 364.154 361.661C365.974 365.757 366.617 373.447 362.24 375.635C350.555 381.478 336.641 381.233 324.291 385.35C314.492 388.616 304.357 390.577 294.573 393.964C292.008 394.852 283.903 399.448 281.221 397.362C269.233 388.037 253.172 379.014 238.295 376.497C235.489 376.022 226.883 376.295 228.436 371.807C229.054 370.022 231.872 364.958 233.413 363.767C236.492 361.388 245.514 364.17 248.727 364.916C252.652 366.274 284.877 378.555 285.767 383.005C286.295 385.644 285.369 392.581 281.843 388.173C275.773 380.585 299.4 372.817 302.325 371.998C315.859 368.209 329.965 370.245 343.624 366.83C347.21 365.933 353.499 365.092 356.21 362.523C357.599 361.207 352.424 357.492 351.425 356.493C341.743 346.812 328.14 340.629 316.012 334.48C311.446 332.165 305.171 328.364 300.172 327.253C294.77 326.053 287.505 330.248 282.609 331.943C279.001 333.192 275.065 334.125 271.315 334.958C266.692 335.986 265.481 335.551 270.645 336.872C273.5 337.603 276.404 339.847 279.067 341.179C283.925 343.608 288.671 346.296 293.711 348.358C297.635 349.963 304.681 350.984 307.972 353.909C310.985 356.587 286.121 364.793 283.901 365.873C281.967 366.468 278.587 362.552 276.866 361.614C264.097 352.049 229.445 345.457 224.799 342.902C220.325 341.018 222.215 351.715 222.215 353.909C222.215 372.938 221.784 392.044 221.354 410.953C221.255 415.318 221.354 419.698 221.354 424.065C221.354 430.744 228.411 429.712 234.227 429.712C238.846 429.712 256.523 417.191 259.303 412.867C266.714 405.086 276.089 403.577 286.341 402.817C293.798 402.265 299.433 401.809 306.441 404.061C311.746 405.767 317.54 410.292 308.164 412.484C299.775 414.445 291.215 415.168 282.657 415.882C279.533 416.142 276.158 415.394 279.498 412.053C285.12 406.431 295.949 408.523 301.895 402.578C304.238 400.234 302.668 391.796 304.574 390.949C308.691 389.119 312.921 387.503 316.969 385.589C322.078 383.174 327.312 381.016 332.378 378.507C337.392 376.023 345.929 373.562 349.319 368.744C350.776 366.674 349.702 361.624 349.702 359.269C349.702 354.965 349.695 350.785 350.563 346.539C352.962 334.813 360.754 303.573 364.011 292.08C366.938 282.648 370.145 273.029 373.486 263.749C380.667 243.803 391.044 222.741 413.158 216.66C423.252 213.884 434.505 214.825 444.839 213.692C453.33 212.762 462.626 212.64 471.159 212.64M471.159 212.64C474.319 212.64 476.963 212.698 479.964 211.587C488.039 208.596 496.066 201.159 499.92 193.737C502.063 189.451 514.787 167.822 502.121 169.235C494.002 171.671 474.56 185.895 471.159 212.64Z" stroke="#CB6700" stroke-width="6.24314" stroke-linecap="round"/>
<path d="M77.537 385.862C75.3726 384.131 64.1708 404.389 63.5909 406.773C56.0536 437.759 37.517 485.629 45.4717 516.454C51.3069 519.93 92.8564 544.161 98.2382 548.233C105.156 553.469 120.06 562.016 120.06 562.016C121.747 563.534 123.693 564.852 125.611 566.131C126.874 566.973 128.17 568.058 129.536 568.715C132.275 570.034 134.126 558.689 134.417 557.421C141.631 526.017 138.169 493.134 136.14 460.897C135.754 458.933 132.536 440.881 129.679 445.344C124.211 453.888 127.143 465.733 127.143 478.556C127.143 494.883 131.713 520.018 132.79 528.325C134.412 540.841 134.485 569.577 152.985 569.577C159.237 569.577 161.49 567.101 165.858 562.733C171.314 557.277 162.071 438.741 162.071 431.336" stroke="#CB6700" stroke-width="6.24314" stroke-linecap="round"/>
</svg>
