<svg width="515" height="495" viewBox="0 0 515 495" fill="none" xmlns="http://www.w3.org/2000/svg">
<path d="M2 317.609C7.89309 315.796 40.3549 311.289 46.285 309.893C47.9787 309.168 43.1695 321.455 43.0016 322.042C41.6482 326.779 27.3412 339.5 70.7054 345.683C73.9469 345.683 76.166 345.983 78.7908 343.836C82.2225 341.028 92.8016 257.308 94.3459 253.337C97.077 245.69 97.8621 236.967 100.625 229.368C102.56 224.047 148.784 205.617 153.078 203.47C158.424 200.797 168.428 197.601 175.98 184.631C179.588 181.023 182.344 176.921 185.748 173.139C194.675 163.22 207.531 155.639 219.731 150.648C223.845 148.965 229.162 148.072 233.563 147.734C236.379 147.517 239.386 146.215 242.099 146.215C246.341 146.5 256.262 179.627 258.841 180.773C270.312 184.522 294.704 167.894 303.085 159.513C308.271 154.327 317.084 147.192 317.084 140.141M317.084 140.141C317.084 132.658 314.385 123.197 306.577 120.194C305.568 119.806 299.97 117.279 299.395 119.291C298.446 122.611 298.357 123.794 300.872 126.31C305.193 130.63 310.675 136.788 316.715 138.13L320.039 115.187M317.084 140.141C318.797 144.492 325.585 168.335 326.36 169.487C329.841 179 335.903 182.251 342.572 185.329C345.291 186.584 348.477 186.109 351.396 186.109C355.083 186.109 359.274 183.723 362.888 183C364.771 182.623 379.044 178.769 375.734 182.631C369.809 189.543 359.751 195.287 359.194 205.317C359.034 208.191 358.455 210.961 358.455 214.018C358.455 216.997 358.37 221.542 357.552 224.361C357.339 225.094 355.327 229.27 356.69 229.573C358.101 229.886 361.565 227.651 362.888 227.11C368.187 224.942 372.728 221.38 377.581 218.45C388.042 212.134 397.88 205.207 407.953 198.339C414.999 193.535 423.316 189.953 429.418 183.851C433.664 179.605 443.447 171.493 441.033 164.52C440.155 161.983 436.321 159.447 434.22 157.871C429.669 154.458 423.85 150.488 420.512 145.887C415.306 138.712 409.63 132.263 405.408 124.422C403.315 120.535 402.866 116.403 399.826 112.93C394.879 107.276 390.053 102.068 384.271 97.0464C375.917 89.7919 365.455 82.2449 360.713 71.9693C356.393 62.6112 347.96 54.0457 340.725 46.8101C328.817 34.9025 320.918 50.0003 315.771 59.7796C311.475 67.941 306.344 78.3493 309.368 87.8528C310.767 92.25 312.562 96.4315 314.129 100.74C315.881 105.557 315.602 95.9004 315.648 95.0353C315.951 89.2802 316.85 83.7482 315.771 78.0847C315.207 75.1262 314.432 71.3654 314.129 68.6448C313.371 61.8183 310.435 54.873 310.435 47.8772C310.435 41.5331 312.42 37.0302 315.935 31.9527C319.158 27.2972 357.501 10.6326 362.395 8.0659C371.675 4.51195 414.115 -14.2733 453.305 39.4223C493.2 94.0847 484.574 127.703 479.982 138.417C478.422 142.058 475.911 145.064 473.375 148.062C470.002 149.1 455.796 162.584 452.443 163.782C450.191 164.586 446.237 167.611 445.055 169.856C443.567 172.683 448.548 175.445 450.965 176.341C458.92 179.287 467.171 181.489 475.18 184.262C480.754 186.191 485.436 188.241 490.695 190.87C510.806 205.5 509.889 222.428 510.806 227.316C513.057 239.321 512.691 250.916 512.119 262.941C510.806 327.049 482.348 429.353 479.695 436.428C478.407 439.863 477.808 443.404 476.658 446.853C475.601 450.025 475.56 453.821 473.703 456.662C471.011 460.78 468.318 462.612 464.263 465.363C459.925 468.307 453.477 470.462 448.421 472.012C439.917 474.618 431.403 475.925 422.564 476.444C416.892 476.778 411.458 480.2 405.736 480.836C398.774 481.61 392.05 483.519 384.969 483.873C366.167 484.813 347.685 486.048 328.863 486.048C321.024 486.048 313.185 486.048 305.346 486.048C292.766 486.048 280.078 487.424 267.587 485.884C258.604 484.777 246.523 485.606 240.252 477.594C236.123 472.317 237.177 440.324 239.144 433.637C240.386 428.669 245.323 425.656 250.185 424.772C265.23 422.036 280.453 420.43 295.496 418.246C298.674 417.785 303.285 418.428 303.048 414.388C302.922 412.245 297.932 410.956 296.399 410.53C283.426 406.926 271.79 398.573 259.501 393.374C254.489 392.075 224.254 378.978 219.403 377.203C215.914 375.927 209.963 373.995 209.963 378.886C209.963 381.112 250.185 401.09 258.722 401.09C263.446 401.09 276.341 399 281.049 388.942C284.466 384.524 291.341 343 284.579 334.191C275.841 330.5 278.289 370.598 279.818 376.711C281.278 382.554 283.357 388.094 286.179 393.456C288.309 397.503 292.258 399.47 296.029 401.501C301.621 404.512 307.281 407.321 313.39 409.217C319.921 411.243 325.599 408.907 331.531 406.344C345.18 400.446 375.702 391.925 390.304 389.27C395.568 388.518 421.068 381.811 422.687 391.527C423.413 395.885 420.927 396.25 416.9 396.617C410.237 397.222 448.841 273.5 466.315 250.792C469.81 244.551 474.213 237.529 480.721 234.17C495.656 226.462 499.56 256.294 499.56 265.526C499.56 286.65 483.717 389.078 481.665 410.284C478.287 424.496 478.027 439.315 476.412 453.789C475.766 459.572 475.535 465.519 476.494 471.273C476.678 472.379 476.755 475.385 477.561 476.28C478.664 477.505 481.147 478.511 482.568 479.235C486.428 481.202 489.753 483.856 493.486 486.048C497.685 488.515 501.941 490.563 506.209 492.697M323.733 119.333C322.608 117.504 320.597 114.758 319.136 113.135C317.083 110.853 319.21 114.254 320.039 115.187M320.039 115.187C322.022 117.418 332.396 131.29 333.912 124.217C335.166 118.362 329.287 113.346 324.349 111.124C319.698 109.031 308.98 108.91 306.003 114.12M306.003 114.12C304.251 117.187 299.544 118.841 296.727 120.933C291.624 124.724 286.82 129.029 281.788 132.918C276.355 137.116 270.843 140.596 265.945 145.312C262.616 148.519 259.166 151.806 256.218 155.409C253.762 158.411 257.744 160.363 260.445 159.103C263.012 154.825 285.869 129.866 286.056 124.627C286.194 120.766 286.183 118 282.362 115.926C281.244 115.319 272.632 106.689 274.551 104.557C277.433 101.355 284.591 100.399 288.341 100.74C291.085 100.99 303.887 112.911 306.003 114.12ZM310.959 110.59C286.056 100.74 251.334 126.31 237.872 139.566C231.62 141.877 226.742 138.828 220.47 138.828C217.693 138.828 214.915 138.828 212.138 138.828C206.752 138.828 202.267 142.405 197.609 144.82C188.613 149.485 165.865 158.846 135.183 180.937C131.727 183.426 125.264 185.853 128.001 190.87C129.283 193.22 135.694 193.143 137.933 193.825C140.84 194.71 143.813 195.218 146.757 195.754C154.038 197.077 160.876 200.145 168.428 200.145C177.458 200.145 197.404 200.731 220.634 190.172C227.024 187.267 234.792 188.325 241.648 188.325C247.794 188.325 250.969 187.877 251.334 180.937C251.596 175.959 250.092 177.739 248.379 180.773C246.84 183.5 246.531 185.281 245.998 187.012C243.19 196.14 241.689 204.509 235.82 212.54C228.34 222.776 176.629 239.289 169.7 242.624C167.964 243.46 164.954 244.422 167.176 246.891C168.827 248.726 178.23 249.682 180.782 249.682M221.045 260.214C221.045 265.122 221.267 278.561 221.045 283.462C220.921 286.184 217.394 289.025 214.806 289.495C213.505 289.732 210.067 290.862 208.896 290.193C207.038 289.131 206.37 282.66 205.9 280.589C204.809 275.79 204.053 269.416 204.053 264.459C204.053 262.585 204.086 259.247 201.837 259.247C199.316 259.247 197.298 258.942 195.352 260.888C193.246 262.994 192.324 267.168 191.658 270C190.931 273.091 189.682 275.983 188.703 279.029C187.266 283.499 187.042 284.365 181.931 284.365C177.708 284.365 174.216 284.582 171.219 281.04C166.936 275.98 170.216 264.728 171.916 259.288C173.508 254.194 178.914 247.408 184.845 250.217C190.026 251.564 208.448 257.333 213.657 258.672C217.592 259.684 225.656 261.667 229.54 259.575C233.884 257.236 239.634 245.719 232.536 243.692C224.004 241.254 214.297 239.779 205.202 239.3C197.902 238.916 191.338 235.449 184.517 233.39C178.182 231.478 114.29 214.789 107.726 214.264C78.6266 210 98.2918 196.375 100.79 194.646C104.59 192.015 108.074 190.435 112.446 188.736C114.234 188.04 119.606 187.22 117.945 190.541C116.702 193.027 93.1972 202.883 90.8398 204C83.0234 205.71 85.3554 206.162 78.6266 210.488C71.1539 215.292 65.1336 219.977 64.4258 229.532C64.4258 236.5 65.2803 240.313 68.1197 239.998C74.5502 239.283 88.6486 233.548 94.8398 232M87.8398 234.178C87.0008 234.331 70.0793 242.868 72.9627 243.692C74.8736 244.238 77.297 245.05 79.2012 245.949C81.5917 247.078 93.7917 250.288 93.9765 251.859C94.7376 258.328 80.1731 251.578 78.4624 250.792C74.6965 249.062 70.305 247.387 66.2317 246.647C64.2305 246.283 59.2678 243.993 57.4486 244.512C57.0246 244.634 56.2994 250.17 56.2994 250.751C51.128 268.687 37.0914 316.902 37.0914 327.213C37.0914 330.208 38.5421 329.457 40.7853 330.579C44.2961 332.334 47.4622 334.981 51.128 336.407C61.8412 340.573 92.1362 350.326 99.7225 355.287C117.341 371 133.841 401.09 133.841 401.09C136.45 397.382 144.882 392.225 149.384 392.225C158.809 392.225 167.055 397.629 170.234 407.164C170.804 408.875 170.882 412.449 171.916 413.69C172.284 414.131 173.143 419.331 172.984 419.888C128.341 415.701 130.988 419.581 130.915 421.037C130.586 427.622 166.799 437.601 172.245 439.137C172.995 439.324 180.184 439.767 177.088 437.29C170.808 432.266 131.654 430.355 131.654 435.443C131.654 442.23 146.817 446.781 152.298 448.7C158.694 450.938 166.115 452.727 172.286 454.446C175.036 455.604 176.119 454.718 175.98 452.065C175.84 449.412 169.002 448.371 169.002 448.371C162.688 448.371 138.841 445 136.825 450C134.809 455 156.341 462.722 156.341 462.722L178.894 471.642C191.115 471.227 171.732 464.397 168.141 463.844C162.592 462.991 155.875 460.503 151.765 465.527C147.031 471.313 163.687 478.008 166.376 478.661C175.73 480.932 185.91 480.138 195.516 480.138C199.771 480.138 204.026 480.138 208.28 480.138C213.197 480.138 220.647 480.385 225.067 478.291C228.115 476.848 230.654 475.102 233.768 474.064C237.888 472.691 241.778 471.522 242.305 466.676C242.852 461.637 242.118 457.196 239.678 452.804C235.815 444.925 231.536 428.995 226.544 421.735C221.126 413.854 211.942 407.881 203.725 403.348C199.802 401.183 195.788 400.106 191.658 398.546C186.944 396.765 182.364 394.39 177.457 393.128C173.397 392.084 170.02 391.486 165.801 391.486C163.292 391.486 163.682 395.974 164.324 397.971C165.613 401.983 170.445 405.898 173.394 408.847C177.327 412.781 181.633 418.271 186.692 420.668C187.894 421.237 201.093 425.964 201.796 422.802C203.415 415.515 192.924 415.866 188.539 415.866C185.836 415.866 174.103 417.538 172.45 415.701C171.502 414.648 172.489 410.993 171.916 409.504C169.862 404.162 170.808 396.784 170.808 391.076C170.808 381.749 169.95 372.664 169.372 363.413C168.51 349.624 168.306 334.274 169.905 320.482C170.86 312.25 166.306 309.416 159.727 305.953C157.773 304.925 154.84 302.095 152.38 299.099C151.836 297.285 139.34 285.432 180.782 283.585C189.296 281.693 198.604 279.932 207.418 279.932C214.288 279.932 220.396 275.5 227.119 275.5C234.099 275.5 238.25 277.61 243.864 281.04C251.789 285.884 281.85 301.313 285.153 308.744C286.714 312.256 287.265 318.852 283.511 320.729C273.49 325.74 261.557 325.53 250.965 329.06C242.56 331.862 233.869 333.543 225.477 336.448C223.278 337.209 216.327 341.151 214.026 339.362C203.745 331.365 189.97 323.627 177.211 321.467C174.804 321.06 167.424 321.295 168.756 317.445C169.286 315.915 171.703 311.571 173.025 310.55C175.665 308.51 183.403 310.895 186.158 311.535C189.525 312.7 217.162 323.233 217.925 327.049C218.378 329.313 217.584 335.262 214.56 331.482C209.353 324.974 229.618 318.312 232.126 317.609C243.733 314.36 255.831 316.106 267.546 313.177C270.621 312.408 276.015 311.686 278.34 309.483C279.531 308.355 275.093 305.169 274.236 304.312C265.933 296.008 254.266 290.706 243.864 285.432C239.948 283.447 234.566 280.187 230.279 279.235C225.646 278.205 219.416 281.803 215.216 283.257C212.122 284.328 208.747 285.128 205.53 285.842C201.565 286.724 200.527 286.351 204.956 287.484C207.405 288.111 209.895 290.036 212.179 291.178C216.345 293.261 220.416 295.566 224.738 297.334C228.104 298.711 234.147 299.587 236.969 302.095C239.553 304.392 218.229 311.43 216.325 312.356C214.666 312.866 211.767 309.508 210.291 308.703C199.34 300.5 169.621 294.847 165.637 292.656C161.8 291.04 163.421 300.214 163.421 302.095C163.421 318.415 163.05 334.802 162.682 351.018C162.597 354.762 162.682 358.519 162.682 362.264C162.682 367.992 168.735 367.107 173.722 367.107C177.684 367.107 192.845 356.368 195.229 352.66C201.584 345.987 209.625 344.692 218.418 344.041C224.813 343.567 229.646 343.176 235.656 345.108C240.206 346.571 245.175 350.452 237.133 352.332C229.939 354.013 222.597 354.634 215.258 355.246C212.579 355.469 209.684 354.827 212.549 351.962C217.37 347.14 226.658 348.935 231.757 343.836C233.767 341.826 232.42 334.589 234.055 333.862C237.586 332.293 241.214 330.907 244.685 329.266C249.067 327.194 253.556 325.344 257.901 323.191C262.201 321.061 269.522 318.951 272.43 314.819C273.679 313.043 272.758 308.712 272.758 306.692C272.758 303.001 272.752 299.416 273.497 295.775C275.554 285.718 282.237 258.926 285.03 249.068C287.54 240.979 290.291 232.73 293.156 224.771C299.315 207.665 308.215 189.601 327.181 184.385C335.838 182.004 345.488 182.812 354.351 181.84C361.634 181.042 369.606 180.937 376.924 180.937M376.924 180.937C379.634 180.937 381.902 180.988 384.476 180.034C391.401 177.47 398.286 171.091 401.591 164.726C403.429 161.05 414.341 142.5 403.479 143.712C396.516 145.801 379.841 158 376.924 180.937Z" stroke="black" stroke-width="3" stroke-linecap="round"/>
<path d="M39.3398 329.5C37.4836 328.015 27.8765 345.389 27.3792 347.433C20.9149 374.009 5.01718 415.064 11.8394 441.5C16.8439 444.481 52.4784 465.263 57.094 468.755C63.0274 473.246 75.8095 480.576 75.8095 480.576C77.2565 481.878 78.9248 483.008 80.5704 484.105C81.6529 484.827 82.7645 485.758 83.9359 486.322C86.2855 487.453 87.8726 477.722 88.1222 476.636C94.3097 449.702 91.3398 421.5 89.5998 393.853C89.2689 392.168 86.5089 376.686 84.059 380.514C79.3694 387.841 81.8838 398 81.8838 408.997C81.8838 423 85.8033 444.557 86.7268 451.682C88.1182 462.416 88.1809 487.06 104.047 487.06C109.409 487.06 111.341 484.937 115.087 481.191C119.767 476.512 111.84 374.851 111.84 368.5" stroke="black" stroke-width="3" stroke-linecap="round"/>
</svg>
