<svg width="668" height="599" viewBox="0 0 668 599" fill="none" xmlns="http://www.w3.org/2000/svg">
<path d="M63 374.25C69.2598 372.324 103.742 367.536 110.041 366.054C111.84 365.283 106.731 378.335 106.553 378.959C105.116 383.991 89.9182 397.503 135.981 404.071C139.424 404.071 141.781 404.39 144.57 402.109C148.215 399.126 159.452 310.196 161.093 305.978C163.994 297.855 164.828 288.589 167.763 280.517C169.818 274.865 218.919 255.288 223.48 253.008C229.159 250.168 239.785 246.773 247.807 232.997C251.64 229.164 254.567 224.807 258.183 220.79C267.666 210.253 281.322 202.2 294.281 196.899C298.651 195.111 304.299 194.163 308.973 193.803C311.965 193.573 315.159 192.19 318.041 192.19C322.547 192.492 333.085 227.681 335.825 228.899C348.009 232.881 373.92 215.218 382.822 206.315C388.331 200.807 397.692 193.227 397.692 185.738M397.692 185.738C397.692 177.789 394.826 167.74 386.532 164.55C385.46 164.138 379.513 161.453 378.902 163.591C377.895 167.117 377.799 168.373 380.472 171.046C385.061 175.635 390.885 182.176 397.3 183.602L400.831 159.231M397.692 185.738C399.511 190.359 406.722 215.687 407.545 216.909C411.243 227.015 417.682 230.468 424.766 233.738C427.654 235.071 431.039 234.566 434.139 234.566C438.056 234.566 442.507 232.032 446.346 231.264C448.347 230.864 463.508 226.769 459.992 230.872C453.699 238.214 443.015 244.316 442.423 254.969C442.253 258.022 441.638 260.965 441.638 264.212C441.638 267.376 441.548 272.205 440.679 275.198C440.452 275.978 438.315 280.413 439.763 280.735C441.261 281.068 444.941 278.694 446.346 278.119C451.975 275.816 456.799 272.033 461.954 268.92C473.066 262.211 483.516 254.853 494.216 247.558C501.701 242.454 510.535 238.65 517.017 232.168C521.527 227.658 531.919 219.041 529.355 211.634C528.422 208.939 524.349 206.245 522.118 204.572C517.283 200.946 511.102 196.729 507.556 191.841C502.027 184.22 495.998 177.37 491.513 169.04C489.29 164.912 488.812 160.523 485.583 156.833C480.329 150.828 475.202 145.295 469.06 139.961C460.187 132.255 449.073 124.239 444.036 113.324C439.448 103.383 430.49 94.2846 422.804 86.5987C410.155 73.9501 401.765 89.9874 396.297 100.375C391.734 109.045 386.284 120.101 389.496 130.196C390.982 134.866 392.889 139.308 394.553 143.885C396.414 149.002 396.118 138.744 396.166 137.825C396.488 131.712 397.443 125.835 396.297 119.82C395.699 116.677 394.875 112.682 394.553 109.792C393.748 102.541 390.63 95.1634 390.63 87.7322C390.63 80.9933 392.738 76.2102 396.472 70.8167C399.895 65.8715 440.624 48.1698 445.823 45.4434C455.68 41.6683 500.761 21.714 542.39 78.7512C584.769 136.815 575.606 172.525 570.728 183.907C569.07 187.774 566.403 190.967 563.709 194.152C560.126 195.254 545.036 209.577 541.475 210.849C539.083 211.704 534.882 214.917 533.627 217.302C532.047 220.305 537.338 223.239 539.905 224.19C548.355 227.32 557.119 229.659 565.627 232.604C571.547 234.654 576.521 236.831 582.107 239.623C603.469 255.164 602.496 273.146 603.469 278.337C605.86 291.09 605.472 303.406 604.864 316.179C603.469 384.278 573.241 492.948 570.423 500.463C569.054 504.112 568.418 507.873 567.197 511.537C566.073 514.906 566.031 518.939 564.058 521.956C561.198 526.33 558.337 528.276 554.03 531.199C549.422 534.325 542.573 536.615 537.202 538.261C528.169 541.029 519.125 542.417 509.736 542.97C503.711 543.324 497.939 546.959 491.861 547.635C484.466 548.456 477.324 550.485 469.801 550.861C449.83 551.859 430.197 553.171 410.205 553.171C401.878 553.171 393.551 553.171 385.224 553.171C371.861 553.171 358.383 554.633 345.115 552.997C335.573 551.821 322.74 552.702 316.079 544.191C311.693 538.586 312.813 504.602 314.902 497.498C316.222 492.221 321.466 489.02 326.63 488.081C342.611 485.176 358.781 483.469 374.76 481.15C378.136 480.66 383.035 481.342 382.782 477.051C382.648 474.775 377.348 473.406 375.72 472.953C361.939 469.126 349.58 460.253 336.526 454.73C331.202 453.35 299.085 439.438 293.932 437.553C290.227 436.197 283.905 434.145 283.905 439.34C283.905 441.705 326.63 462.926 335.698 462.926C340.716 462.926 354.414 460.706 359.414 450.021C363.045 445.329 370.347 401.221 363.164 391.863C353.883 387.943 356.483 430.536 358.107 437.03C359.658 443.237 361.866 449.121 364.864 454.817C367.127 459.116 371.321 461.205 375.327 463.362C381.267 466.56 387.279 469.544 393.769 471.558C400.706 473.711 406.737 471.23 413.038 468.507C427.537 462.242 459.958 453.19 475.469 450.37C481.06 449.572 508.147 442.448 509.867 452.768C510.638 457.397 507.997 457.785 503.72 458.174C496.642 458.818 537.649 327.396 556.21 303.275C559.923 296.646 564.599 289.186 571.513 285.618C587.377 277.43 591.524 309.119 591.524 318.926C591.524 341.365 574.695 450.167 572.515 472.692C568.927 487.789 568.651 503.53 566.935 518.904C566.249 525.047 566.004 531.364 567.022 537.477C567.218 538.651 567.3 541.844 568.156 542.795C569.327 544.097 571.965 545.165 573.475 545.934C577.575 548.023 581.107 550.843 585.071 553.171C589.532 555.791 594.053 557.967 598.586 560.234M404.755 163.634C403.56 161.692 401.424 158.776 399.872 157.051C397.691 154.627 399.95 158.24 400.831 159.231M400.831 159.231C402.937 161.6 413.957 176.336 415.567 168.822C416.9 162.604 410.655 157.275 405.409 154.915C400.469 152.692 389.084 152.563 385.921 158.097M385.921 158.097C384.06 161.355 379.06 163.112 376.068 165.335C370.648 169.361 365.544 173.934 360.199 178.065C354.428 182.524 348.574 186.221 343.371 191.231C339.834 194.637 336.17 198.129 333.038 201.956C330.429 205.145 334.659 207.219 337.529 205.879C340.255 201.336 364.534 174.824 364.733 169.258C364.88 165.157 364.868 162.219 360.81 160.016C359.622 159.371 350.474 150.204 352.512 147.939C355.573 144.538 363.177 143.523 367.161 143.885C370.075 144.15 383.674 156.813 385.921 158.097ZM391.186 154.348C364.733 143.885 327.85 171.046 313.551 185.127C306.91 187.582 301.728 184.343 295.066 184.343C292.116 184.343 289.165 184.343 286.215 184.343C280.494 184.343 275.73 188.142 270.782 190.708C261.226 195.663 237.063 205.607 204.472 229.073C200.8 231.716 193.935 234.294 196.842 239.623C198.204 242.12 205.014 242.039 207.392 242.762C210.48 243.702 213.638 244.243 216.766 244.811C224.499 246.217 231.764 249.476 239.785 249.476C249.377 249.476 270.564 250.098 295.24 238.882C302.028 235.797 310.279 236.92 317.562 236.92C324.09 236.92 327.462 236.444 327.85 229.073C328.129 223.785 326.531 225.675 324.711 228.899C323.077 231.795 322.749 233.687 322.183 235.525C319.199 245.222 317.605 254.111 311.371 262.642C303.425 273.515 248.496 291.055 241.136 294.599C239.293 295.487 236.095 296.509 238.455 299.131C240.209 301.08 250.197 302.096 252.908 302.096M295.676 313.283C295.676 318.496 295.913 332.771 295.676 337.978C295.545 340.869 291.799 343.887 289.049 344.387C287.667 344.638 284.016 345.839 282.771 345.128C280.797 344 280.089 337.126 279.589 334.926C278.43 329.828 277.627 323.058 277.627 317.792C277.627 315.801 277.662 312.256 275.273 312.256C272.595 312.256 270.452 311.932 268.384 313.999C266.147 316.236 265.168 320.67 264.461 323.678C263.688 326.962 262.362 330.033 261.322 333.269C259.796 338.017 259.557 338.937 254.128 338.937C249.642 338.937 245.933 339.168 242.749 335.406C238.201 330.03 241.685 318.078 243.491 312.299C245.182 306.888 250.923 299.68 257.224 302.664C262.727 304.095 282.296 310.222 287.829 311.645C292.009 312.72 300.574 314.826 304.7 312.604C309.315 310.12 315.422 297.886 307.883 295.732C298.819 293.143 288.508 291.576 278.848 291.068C271.094 290.659 264.121 286.977 256.875 284.79C250.146 282.758 182.278 265.031 175.305 264.474C144.395 259.944 165.284 245.471 167.937 243.634C171.974 240.839 175.676 239.162 180.319 237.356C182.218 236.618 187.925 235.746 186.161 239.275C184.84 241.915 159.873 252.385 157.368 253.571C149.066 255.387 151.543 255.868 144.395 260.463C136.457 265.565 130.062 270.542 129.311 280.692C129.311 288.093 130.218 292.144 133.234 291.809C140.065 291.05 155.041 284.957 161.617 283.313M154.182 285.627C153.291 285.789 135.316 294.857 138.379 295.732C140.409 296.312 142.983 297.175 145.006 298.13C147.545 299.329 160.504 302.739 160.7 304.408C161.509 311.28 146.038 304.11 144.221 303.275C140.221 301.437 135.556 299.658 131.229 298.871C129.103 298.485 123.832 296.052 121.899 296.604C121.449 296.733 120.679 302.613 120.679 303.231C115.185 322.283 100.275 373.499 100.275 384.452C100.275 387.633 101.816 386.835 104.199 388.027C107.928 389.892 111.291 392.703 115.185 394.218C126.565 398.643 158.745 409.003 166.804 414.272C185.519 430.963 203.046 462.926 203.046 462.926C205.817 458.987 214.774 453.509 219.556 453.509C229.567 453.509 238.327 459.249 241.703 469.378C242.309 471.195 242.392 474.992 243.491 476.31C243.88 476.778 244.793 482.302 244.624 482.893C197.204 478.447 200.015 482.568 199.937 484.114C199.588 491.109 238.055 501.709 243.839 503.34C244.637 503.54 252.273 504.01 248.984 501.378C242.313 496.042 200.722 494.012 200.722 499.417C200.722 506.626 216.829 511.46 222.651 513.498C229.446 515.876 237.328 517.776 243.883 519.602C246.805 520.832 247.955 519.891 247.807 517.073C247.658 514.255 240.395 513.15 240.395 513.15C233.687 513.15 208.357 509.569 206.215 514.88C204.074 520.191 226.946 528.393 226.946 528.393L250.902 537.869C263.883 537.427 243.294 530.172 239.48 529.586C233.586 528.679 226.451 526.036 222.085 531.373C217.056 537.519 234.749 544.63 237.605 545.324C247.541 547.737 258.355 546.894 268.559 546.894C273.078 546.894 277.598 546.894 282.117 546.894C287.341 546.894 295.254 547.155 299.948 544.932C303.186 543.398 305.884 541.544 309.191 540.441C313.568 538.982 317.7 537.741 318.259 532.594C318.841 527.241 318.061 522.524 315.469 517.858C311.366 509.488 306.82 492.568 301.518 484.855C295.763 476.484 286.007 470.14 277.278 465.324C273.112 463.025 268.848 461.88 264.461 460.223C259.453 458.331 254.589 455.809 249.376 454.468C245.064 453.359 241.476 452.724 236.995 452.724C234.329 452.724 234.743 457.491 235.425 459.613C236.795 463.875 241.928 468.033 245.06 471.166C249.238 475.344 253.812 481.176 259.185 483.722C260.463 484.327 274.483 489.347 275.229 485.989C276.949 478.248 265.805 478.621 261.147 478.621C258.276 478.621 245.813 480.397 244.057 478.447C243.05 477.328 244.099 473.445 243.491 471.863C241.308 466.189 242.313 458.352 242.313 452.289C242.313 442.382 241.402 432.731 240.788 422.904C239.872 408.257 239.656 391.952 241.354 377.302C242.368 368.558 237.531 365.547 230.542 361.869C228.467 360.776 225.351 357.771 222.739 354.588C222.16 352.661 208.887 340.07 252.908 338.109C261.952 336.099 271.839 334.228 281.202 334.228C288.499 334.228 294.987 329.52 302.128 329.52C309.543 329.52 313.952 331.761 319.916 335.406C328.334 340.55 360.266 356.939 363.774 364.833C365.432 368.564 366.018 375.57 362.03 377.564C351.385 382.886 338.709 382.663 327.458 386.414C318.531 389.39 309.298 391.176 300.384 394.261C298.048 395.07 290.665 399.257 288.221 397.357C277.3 388.862 262.668 380.642 249.115 378.348C246.558 377.916 238.718 378.165 240.134 374.076C240.696 372.45 243.264 367.837 244.668 366.752C247.472 364.585 255.692 367.118 258.619 367.798C262.194 369.036 291.552 380.224 292.363 384.278C292.843 386.682 292 393.001 288.788 388.986C283.257 382.073 304.783 374.996 307.447 374.25C319.776 370.798 332.627 372.653 345.071 369.542C348.338 368.725 354.067 367.958 356.537 365.618C357.802 364.419 353.088 361.035 352.177 360.125C343.357 351.305 330.964 345.673 319.916 340.07C315.756 337.961 310.039 334.499 305.485 333.487C300.564 332.394 293.946 336.216 289.485 337.76C286.199 338.897 282.613 339.747 279.196 340.506C274.985 341.442 273.881 341.047 278.586 342.25C281.187 342.916 283.832 344.961 286.259 346.174C290.684 348.386 295.008 350.835 299.6 352.713C303.175 354.176 309.594 355.106 312.591 357.771C315.337 360.211 292.685 367.686 290.662 368.67C288.901 369.212 285.821 365.645 284.254 364.79C272.621 356.076 241.052 350.071 236.82 347.743C232.744 346.027 234.466 355.772 234.466 357.771C234.466 375.106 234.073 392.512 233.681 409.738C233.591 413.715 233.681 417.705 233.681 421.684C233.681 427.768 240.111 426.828 245.409 426.828C249.617 426.828 265.721 415.421 268.254 411.482C275.005 404.393 283.545 403.018 292.886 402.327C299.679 401.823 304.812 401.408 311.196 403.46C316.03 405.014 321.308 409.136 312.766 411.133C305.123 412.92 297.325 413.579 289.529 414.229C286.683 414.466 283.608 413.784 286.651 410.741C291.773 405.619 301.639 407.525 307.055 402.109C309.19 399.974 307.76 392.286 309.496 391.515C313.247 389.848 317.1 388.375 320.788 386.632C325.442 384.432 330.211 382.466 334.826 380.179C339.394 377.916 347.17 375.675 350.259 371.286C351.586 369.4 350.608 364.799 350.608 362.654C350.608 358.733 350.602 354.925 351.393 351.057C353.578 340.374 360.677 311.914 363.643 301.444C366.31 292.851 369.232 284.088 372.275 275.634C378.817 257.464 388.271 238.275 408.417 232.735C417.613 230.206 427.864 231.064 437.278 230.032C445.014 229.184 453.483 229.073 461.256 229.073M461.256 229.073C464.135 229.073 466.544 229.126 469.278 228.114C476.634 225.389 483.947 218.614 487.458 211.852C489.41 207.948 501.002 188.244 489.464 189.531C482.067 191.75 464.355 204.708 461.256 229.073Z" stroke="#CB6700" stroke-width="4.92857" stroke-linecap="round"/>
<path d="M102.663 386.881C100.691 385.303 90.4861 403.758 89.9578 405.93C83.0912 434.159 66.2042 477.77 73.451 505.851C78.7669 509.018 116.619 531.092 121.522 534.802C127.824 539.572 141.402 547.358 141.402 547.358C142.939 548.741 144.711 549.942 146.459 551.107C147.609 551.874 148.79 552.863 150.034 553.462C152.53 554.663 154.216 544.327 154.481 543.173C161.054 514.563 157.899 484.606 156.05 455.238C155.699 453.449 152.767 437.003 150.165 441.069C145.183 448.853 147.854 459.644 147.854 471.325C147.854 486.199 152.018 509.098 152.999 516.666C154.477 528.068 154.543 554.246 171.397 554.246C177.093 554.246 179.145 551.991 183.124 548.012C188.095 543.041 179.675 435.054 179.675 428.308" stroke="#CB6700" stroke-width="4.92857" stroke-linecap="round"/>
</svg>
