<svg width="276" height="217" viewBox="0 0 276 217" fill="none" xmlns="http://www.w3.org/2000/svg">
<path d="M6 110.5L34 58.25M130 167.5L62 6L34 58.25M34 58.25H79.5" stroke="#6E8270" stroke-width="12" stroke-linecap="round" stroke-linejoin="round"/>
<path d="M234 93L178 197.5L110 36" stroke="#6E8270" stroke-width="12" stroke-linecap="round" stroke-linejoin="round"/>
<path d="M206.268 204.102C205.807 203.394 205.571 202.632 205.561 201.814C205.559 200.983 205.812 200.123 206.322 199.235L208.279 200.358L207.992 200.857C206.773 202.981 207.316 204.703 209.619 206.025L215.822 209.586L214.734 211.48L203.328 204.933L204.415 203.038L206.268 204.102ZM219.025 189.783C219.386 189.991 219.756 190.23 220.134 190.503L214.901 199.62C216.065 200.196 217.165 200.32 218.202 199.992C219.232 199.643 220.034 198.969 220.608 197.97C221.078 197.151 221.281 196.364 221.217 195.607C221.147 194.829 220.857 194.146 220.346 193.558L221.517 191.518C222.438 192.452 222.982 193.577 223.15 194.891C223.305 196.197 222.991 197.53 222.211 198.89C221.589 199.972 220.789 200.804 219.809 201.386C218.838 201.953 217.769 202.225 216.602 202.201C215.421 202.169 214.241 201.814 213.061 201.137C211.882 200.46 210.984 199.631 210.366 198.649C209.749 197.668 209.448 196.618 209.462 195.501C209.47 194.362 209.792 193.237 210.43 192.127C211.051 191.045 211.837 190.223 212.786 189.661C213.736 189.099 214.755 188.835 215.842 188.869C216.924 188.881 217.985 189.186 219.025 189.783ZM217.507 191.513C216.785 191.099 216.076 190.904 215.38 190.928C214.669 190.945 214.023 191.155 213.44 191.559C212.852 191.94 212.367 192.464 211.985 193.13C211.435 194.088 211.27 195.082 211.491 196.112C211.719 197.129 212.346 197.996 213.373 198.715L217.507 191.513ZM229.106 186.877C228.604 187.752 228.009 188.452 227.319 188.979C226.615 189.497 225.884 189.806 225.126 189.906C224.354 189.998 223.609 189.865 222.891 189.509L224.014 187.552C224.615 187.823 225.231 187.826 225.863 187.562C226.503 187.283 227.045 186.755 227.492 185.978C227.906 185.257 228.073 184.596 227.993 183.997C227.912 183.397 227.629 182.958 227.144 182.679C226.644 182.392 226.149 182.403 225.658 182.712C225.154 183.013 224.516 183.56 223.747 184.355C223.039 185.074 222.419 185.64 221.886 186.054C221.347 186.446 220.745 186.708 220.077 186.842C219.405 186.954 218.7 186.799 217.965 186.376C217.382 186.042 216.947 185.562 216.661 184.936C216.374 184.31 216.275 183.599 216.364 182.801C216.439 181.995 216.712 181.183 217.182 180.365C217.907 179.102 218.811 178.265 219.896 177.854C220.98 177.444 222.093 177.529 223.235 178.111L222.148 180.005C221.527 179.704 220.909 179.672 220.293 179.909C219.686 180.132 219.171 180.612 218.749 181.347C218.358 182.027 218.193 182.652 218.254 183.221C218.314 183.791 218.58 184.211 219.052 184.482C219.427 184.697 219.807 184.759 220.192 184.666C220.571 184.552 220.941 184.358 221.3 184.085C221.654 183.79 222.109 183.368 222.663 182.819C223.355 182.128 223.96 181.589 224.476 181.203C224.979 180.81 225.549 180.556 226.187 180.442C226.832 180.314 227.505 180.442 228.207 180.827C228.832 181.185 229.294 181.681 229.594 182.315C229.895 182.949 230.007 183.668 229.932 184.474C229.852 185.258 229.576 186.059 229.106 186.877ZM232.677 166.001C233.038 166.208 233.408 166.448 233.786 166.721L228.553 175.838C229.717 176.413 230.817 176.538 231.853 176.21C232.884 175.861 233.686 175.187 234.26 174.188C234.73 173.369 234.933 172.581 234.869 171.825C234.799 171.047 234.508 170.364 233.997 169.775L235.168 167.736C236.089 168.67 236.634 169.795 236.802 171.109C236.956 172.415 236.643 173.748 235.862 175.108C235.241 176.19 234.441 177.022 233.461 177.604C232.49 178.171 231.42 178.443 230.253 178.419C229.073 178.387 227.893 178.032 226.713 177.355C225.534 176.678 224.635 175.849 224.018 174.867C223.401 173.886 223.099 172.836 223.113 171.719C223.121 170.58 223.444 169.455 224.081 168.345C224.703 167.263 225.488 166.441 226.438 165.879C227.388 165.317 228.406 165.053 229.494 165.087C230.575 165.099 231.636 165.404 232.677 166.001ZM231.158 167.731C230.437 167.317 229.728 167.122 229.031 167.146C228.321 167.163 227.674 167.373 227.092 167.776C226.504 168.158 226.019 168.682 225.636 169.348C225.087 170.306 224.922 171.3 225.142 172.33C225.37 173.347 225.998 174.214 227.024 174.933L231.158 167.731ZM234.101 164.436C232.936 163.767 232.051 162.945 231.448 161.972C230.831 160.99 230.514 159.951 230.499 158.853C230.491 157.742 230.778 156.68 231.359 155.667C231.933 154.667 232.646 153.924 233.498 153.435C234.35 152.947 235.206 152.709 236.065 152.723L233.984 151.528L235.083 149.613L246.489 156.161L245.39 158.076L243.267 156.857C243.718 157.614 243.951 158.494 243.964 159.499C243.972 160.481 243.694 161.465 243.128 162.45C242.547 163.463 241.771 164.235 240.802 164.767C239.832 165.299 238.761 165.542 237.588 165.496C236.415 165.45 235.253 165.097 234.101 164.436ZM239.666 154.79C238.806 154.296 237.957 154.039 237.12 154.02C236.282 154 235.526 154.193 234.85 154.599C234.169 154.982 233.625 155.528 233.219 156.236C232.812 156.944 232.608 157.684 232.607 158.458C232.605 159.232 232.824 159.976 233.263 160.689C233.703 161.403 234.352 162.006 235.213 162.5C236.087 163.002 236.95 163.266 237.801 163.294C238.638 163.313 239.398 163.131 240.079 162.748C240.747 162.356 241.284 161.806 241.69 161.099C242.096 160.391 242.3 159.65 242.302 158.876C242.297 158.08 242.075 157.326 241.636 156.612C241.183 155.891 240.527 155.284 239.666 154.79ZM239.86 145.581C239.399 144.874 239.164 144.111 239.153 143.294C239.151 142.462 239.405 141.602 239.914 140.714L241.871 141.838L241.584 142.337C240.366 144.46 240.908 146.183 243.211 147.505L249.414 151.066L248.327 152.96L236.92 146.412L238.008 144.518L239.86 145.581ZM246.654 142.617C245.474 141.94 244.583 141.114 243.979 140.141C243.362 139.159 243.05 138.113 243.042 137.001C243.042 135.876 243.353 134.772 243.974 133.69C244.779 132.289 245.78 131.332 246.978 130.82C248.183 130.295 249.473 130.233 250.848 130.634L249.677 132.674C248.872 132.47 248.104 132.537 247.375 132.875C246.654 133.199 246.055 133.777 245.577 134.61C244.956 135.692 244.829 136.782 245.195 137.878C245.549 138.966 246.405 139.901 247.765 140.681C249.139 141.47 250.391 141.746 251.523 141.51C252.655 141.274 253.531 140.615 254.153 139.533C254.63 138.7 254.834 137.895 254.765 137.117C254.695 136.339 254.359 135.638 253.757 135.016L254.927 132.976C255.918 133.951 256.504 135.099 256.686 136.421C256.854 137.735 256.544 139.079 255.755 140.453C255.134 141.535 254.338 142.36 253.366 142.928C252.402 143.481 251.341 143.739 250.182 143.701C249.023 143.663 247.847 143.302 246.654 142.617ZM251.677 120.223C252.171 119.363 252.804 118.693 253.577 118.215C254.336 117.728 255.195 117.501 256.153 117.535C257.12 117.555 258.13 117.867 259.185 118.473L265.908 122.332L264.833 124.205L258.38 120.501C257.242 119.848 256.212 119.635 255.289 119.861C254.351 120.08 253.6 120.681 253.035 121.667C252.461 122.666 252.315 123.643 252.597 124.598C252.887 125.539 253.629 126.352 254.822 127.037L261.129 130.658L260.042 132.552L244.639 123.71L245.726 121.816L251.346 125.042C250.978 124.333 250.822 123.561 250.877 122.725C250.94 121.876 251.207 121.042 251.677 120.223ZM268.156 118.706C267.948 119.067 267.648 119.3 267.255 119.407C266.862 119.513 266.485 119.463 266.124 119.256C265.763 119.048 265.53 118.748 265.423 118.355C265.317 117.962 265.367 117.585 265.575 117.224C265.774 116.877 266.066 116.658 266.451 116.565C266.844 116.459 267.221 116.509 267.582 116.716C267.943 116.923 268.176 117.223 268.283 117.617C268.397 117.996 268.355 118.359 268.156 118.706Z" fill="#6E8270"/>
</svg>
