<svg width="543" height="170" viewBox="0 0 543 170" fill="none" xmlns="http://www.w3.org/2000/svg">
<path d="M1.94203 131.855C9.37574 131.299 52.703 129.691 60.0775 129.092M58.4621 129.224C63.2369 128.836 68.0118 128.448 72.7866 128.061C83.1142 127.222 93.4434 128.34 103.789 127.5C109.948 127 116.231 127.142 122.305 126.649C131.032 125.941 133.675 127.92 142.38 127.593C151.124 127.265 167.945 137.126 211.666 158.161C213.604 159.5 240.733 171.508 255.795 155.152M260.872 147.982C259.599 142.368 246.394 144.109 243.03 145.542C240.757 146.51 238.117 148.385 238.34 151.139C238.687 155.413 239.598 156.405 244.406 157.132C248.241 157.712 250.422 157.436 253.776 156.081C258.964 153.986 259.941 151.941 260.651 145.705C261.158 141.239 254.83 140.122 251.156 140.317C239.309 141.279 207.723 139.931 205.159 127.096C203.12 121.065 210.574 117.52 216.575 116.424C222.234 115.965 224.487 117.05 229.653 119.141C229.653 119.141 242.594 121.67 248.446 123.003C253.093 124.061 257.487 124.805 262.255 124.418C264.909 124.202 268.127 123.466 270.74 124.055C274.29 124.856 279.708 130.055 280.605 134.014C281.381 137.437 261.704 144.574 259.414 145.806M224.085 138.767C232.473 132.849 231.028 122.274 222.336 117.225M205.336 122.822C186.764 112.379 198.805 99.1243 198.754 99.0684C198.703 99.0126 203.012 95.437 203.815 95.2885C210.461 94.0592 215.789 95.4356 222.784 96.0671C228.113 96.5482 233.654 97.4224 238.812 98.9322C243.54 100.316 249.15 102.569 252.596 106.291C257.408 111.488 260.883 117.331 266.345 122.13C269.654 125.037 273.626 127.36 277.641 129.183C282.022 131.171 286.591 132.74 291.1 134.321C301.964 138.13 288.211 115.686 286.356 112.028C280.207 99.9022 299.642 104.428 306.381 103.881C313.448 103.307 347.157 107.092 354.257 76.8806C352.306 52.8452 300.185 43.0243 293.432 42.5467C282.065 41.7428 270.045 40.5419 258.672 41.8905C226.482 42.2311 229.996 52.3484 231.75 52.5535C236.566 53.1165 245.455 55.1443 248.695 50.1997C250.474 47.4842 248.963 47.2434 246.551 47.4393C242.572 47.7623 233.844 45.003 230.679 48.7278C226.697 53.4133 229.774 58.3998 233.674 61.5268C238.446 65.3529 244.886 65.1815 250.598 64.7177C257.888 64.1259 265.032 63.4272 272.118 65.6154C282.374 68.7823 284.062 81.7841 288.635 89.6708C295.908 102.216 298.41 116.448 312.429 123.931C319.169 127.529 332.647 130.204 339.364 125.042C340.349 124.285 339.771 121.802 338.935 121.091C337.697 120.039 335.423 120.434 333.964 120.553C328.891 120.965 323.235 120.873 318.155 120.387C298.254 118.484 283.033 108.732 272.09 92.934C264.793 82.3997 254.839 74.0985 243.336 68.5316C236.445 65.1966 229.846 64.0074 222.505 62.2886C217.961 61.2246 212.286 61.6227 210.908 66.7079C210.106 69.6711 207.567 70.803 204.689 72.2123C199.565 74.7212 194.036 76.7262 188.649 79.0211C185.068 80.5471 181.207 81.2993 177.743 83.0221C175.025 84.3738 172.472 84.2991 169.741 85.302C159.043 89.2307 145.48 84.2502 134.711 83.11C130.414 82.655 126.19 81.5214 121.923 80.8875C121.579 80.8364 117.307 79.2464 118.704 78.7215C120.291 78.1255 122.703 78.3607 124.352 78.2268C139.012 77.0368 154.436 77.8171 168.811 80.9939C171.62 81.6145 174.494 83.2264 177.34 82.0767C182.136 80.1395 186.486 77.9417 191.172 75.7369C198.485 72.2964 209.466 68.4238 217.464 70.7043C224.248 72.6388 229.234 76.5732 235.055 80.326C240.865 84.0712 247.513 86.9882 253.494 90.5672C260.835 94.9604 267.699 102.092 273.223 108.674C278.833 115.359 281.021 124.09 287.204 130.508C289.128 132.505 298.14 134.568 295.355 130.498C292.61 126.488 276.624 126.692 281.45 126.12C283.459 125.882 284.955 124.531 287.031 124.363C288.975 124.205 290.918 124.047 292.862 123.89C296.459 123.598 303.596 126.884 304.444 130.449C305.237 133.782 295.96 139.039 293.941 140.757C290.988 143.27 288.017 145.919 284.75 148.024C278.628 151.969 274.371 156.959 267.362 159.652C266.054 160.154 251.89 163.589 252.622 165.957C253.16 167.698 256.684 167.499 258.085 167.651C265.321 168.437 272.52 168.58 279.777 167.991C292.335 166.972 305.332 154.655 304.712 141.332C304.605 139.049 302.552 138.273 300.281 138.974C293.11 141.19 293.565 152.525 301.51 151.88C302.324 151.814 303.859 151.312 304.591 151.449C306.247 151.759 306.418 154.632 308.396 154.582C313.415 154.454 317.233 151.685 321.272 148.972C324.127 147.054 327.183 145.901 329.818 143.568C337.297 136.949 345.058 130.632 352.261 123.705C358.402 117.8 361.232 108.997 367.162 102.859C372.872 96.9489 377.522 90.5397 385.221 87.0106C396.257 81.9524 408.058 79.0403 419.46 74.9929C425.909 72.7035 432.156 69.4495 438.507 66.8531C444.814 64.2752 451.102 62.2429 456.381 57.6492C466.67 48.6974 471.714 35.5561 482.515 27.0159C488.822 22.0299 496.679 20.268 503.989 17.0851C508.5 15.1213 512.827 13.1823 517.493 11.6052C522.725 9.83647 527.945 8.03316 533.181 6.27406C535.843 5.38005 540.308 4.89839 541.203 2.00001" stroke="#6E8270" stroke-width="3.28816" stroke-linecap="round" stroke-linejoin="round"/>
</svg>
