<svg width="544" height="431" viewBox="0 0 544 431" fill="none" xmlns="http://www.w3.org/2000/svg">
<circle cx="420.222" cy="327.916" r="53.5835" fill="#F2F7FF" stroke="#395996"/>
<circle cx="395.886" cy="184.595" r="37.3585" fill="#F6F6F6" stroke="#EAEAEA"/>
<circle cx="257.586" cy="349.936" r="23.4513" fill="#F6F6F6" stroke="#EAEAEA"/>
<path d="M426.985 319.153C426.651 318.532 426.639 312.419 417.138 306.592C416.428 306.095 415.861 305.651 415.09 305.25C414.527 304.958 413.48 304.759 413.172 304.156C412.88 303.583 412.65 302.938 412.453 302.331C412.288 301.823 412.084 301.398 411.95 300.88C411.743 300.083 411.722 299.3 411.779 298.454C411.846 297.453 412.439 296.462 413.082 295.692C413.441 295.261 414.053 294.943 414.577 294.798C414.981 294.687 415.364 294.675 415.774 294.597C416.648 294.429 419.807 294.444 420.646 294.217C420.872 294.156 421.144 294.279 420.897 293.734C420.646 292.45 416.252 292.634 414.806 293.065C414.303 293.394 411.554 295.147 411.411 295.776C411.23 296.574 410.747 297.327 410.772 298.178C410.789 298.764 411.168 299.735 411.587 300.17C411.944 300.54 412.297 301.073 412.906 300.964C413.568 300.846 413.425 299.886 413.308 299.45C413.197 299.034 412.591 297.552 413.127 297.26C413.647 296.977 414.114 297.337 414.577 297.576C414.911 297.748 415.201 297.995 415.528 298.173C416.235 298.558 416.152 297.471 416.252 297.157C416.477 296.451 417.007 296.033 417.727 295.889C418.401 295.754 419.487 295.661 420.011 296.175C420.289 296.447 420.026 297.196 419.966 297.502C419.854 298.075 419.83 298.611 419.83 299.194C419.83 300.209 420.688 300.976 420.646 302.015C420.631 302.383 419.417 302.208 419.242 302.074C418.889 301.806 419.015 302.709 419.015 302.962C419.015 303.379 418.994 303.988 418.472 303.988C417.753 303.988 417.148 303.761 416.499 303.495C416.141 303.348 415.827 303.385 415.442 303.347C414.824 303.285 414.259 303.189 413.635 303.189C412.956 303.189 412.287 303.158 411.623 303.327C411.076 303.466 410.657 303.776 410.229 304.121C409.848 304.427 409.35 304.636 409.031 305.004C408.004 306.189 407.26 307.658 407.239 309.226C407.219 310.777 407.149 312.319 407.149 313.872C407.149 315.137 407.276 316.47 407.103 317.724C406.991 318.537 407.009 319.404 406.973 320.225C406.946 320.825 406.877 321.418 406.877 322.02C406.877 322.582 406.894 323.283 406.696 323.816C406.608 324.051 406.163 323.661 406.082 323.608C405.392 323.157 405.25 321.889 405.161 321.147C404.985 319.682 404.848 318.452 404.029 317.137C403.629 316.496 402.802 315.587 402.016 315.46C401.61 315.395 401.162 315.441 400.753 315.441C400.329 315.441 399.702 315.326 399.308 315.529C398.701 315.844 398.567 316.757 398.725 317.335C399.06 318.568 401.329 318.288 402.101 317.798C402.378 317.623 402.711 317.541 403.027 317.438C403.626 317.242 404.167 316.896 404.774 316.723C406.1 316.346 407.544 316.215 408.92 316.24C409.856 316.257 410.406 317.321 410.5 318.109C410.617 319.085 410.689 320.07 410.999 321.014C411.29 321.902 412.911 321.922 413.641 321.922C414.695 321.922 415.761 321.974 416.811 321.877C417.784 321.787 418.667 321.52 419.629 321.389C421.111 321.186 424.123 320.654 425.129 322.188C425.47 322.707 425.972 323.146 426.262 323.697C426.82 324.762 427.541 325.63 428.325 326.538C429.202 327.554 430.441 327.767 431.697 328.136C433.217 328.584 434.679 329.219 436.201 329.68C439.522 330.346 441.318 336.829 441.525 338.114C441.816 338.947 441.05 340.048 440.392 339.609C440.02 339.36 439.72 338.628 439.522 338.223C439.037 337.231 438.71 336.226 438.49 335.15C438.35 334.465 438.2 333.802 438.108 333.108C438.028 332.504 437.972 331.443 437.539 330.972C437.293 330.704 437.363 330.406 436.981 330.346C436.352 330.248 435.717 329.908 435.078 329.774C434.233 329.597 433.395 329.368 432.557 329.157C432.006 329.018 431.355 328.976 430.831 328.758C430.141 328.47 429.2 328.249 428.808 327.544C428.526 327.037 428.512 326.176 428.526 325.601C428.536 325.205 428.737 325.02 429.024 324.768C429.473 324.373 430.156 324.348 430.74 324.324C431.516 324.291 432.205 324.101 432.965 323.983C433.871 323.843 434.88 323.964 435.793 323.964C436.474 323.964 437.155 323.964 437.836 323.964C438.487 323.964 439.161 323.917 439.809 323.983C440.37 324.041 440.841 324.326 441.318 324.6C442.01 324.997 444.468 329.157 444.65 329.956C445.465 332.04 446.166 334.114 446.643 336.304C447.214 338.929 446.933 341.816 446.371 344.413C446.21 345.156 446.05 345.984 445.601 346.623C445.362 346.962 445.116 347.259 444.922 347.629C444.658 348.131 444.274 348.201 443.694 348.097C442.197 347.831 442.107 345.185 442.003 344.058C441.899 342.944 441.786 341.973 442.501 341.039C442.88 340.543 443.599 340.581 444.137 340.837C444.701 341.105 445.269 341.294 445.848 341.542C446.543 341.84 447.259 342.086 447.951 342.386C448.783 342.746 449.691 342.809 450.538 343.121C451.345 343.417 452.138 343.574 452.983 343.742C453.571 343.859 454.161 344.021 454.161 344.694C454.161 345.008 454.264 345.504 454.121 345.784C453.913 346.191 453.081 346.261 452.707 346.327C451.949 346.46 451.165 346.484 450.422 346.692C449.76 346.877 443.666 349.857 443.06 350.154C441.077 351.444 441.596 350.802 441.077 351.698C440.786 352.201 440.848 352.738 440.775 353.301C440.685 353.996 440.597 354.545 440.292 355.185C439.459 356.93 437.925 356.709 437.021 355.264C436.7 354.752 436.421 354.163 436.362 353.567C436.312 353.075 436.173 352.313 436.487 351.89C436.876 351.368 437.516 350.978 438.131 350.885C438.682 350.801 439.001 350.697 439.572 350.697C441.068 350.697 441.899 352.511 442.068 353.705C442.187 354.542 442.364 355.687 441.63 356.339C440.496 357.348 438.557 357.743 437.061 357.789C434.202 357.877 426.947 356.887 424.077 357.081M424.349 357.059C423.378 357.144 422.381 357.144 421.405 357.207C420.617 357.259 416.556 356.854 415.784 356.655M415.784 356.655C422.622 356.581 427.591 352.412 428.219 351.875C429.251 350.994 430.377 350.278 430.811 348.921C431.024 348.254 431.234 347.59 431.375 346.904C431.569 345.95 431.491 344.943 431.626 343.979C431.84 342.445 431.925 341.031 431.737 339.476C431.603 338.374 431.605 337.148 431.289 336.082C431.083 335.388 430.901 334.424 430.499 333.818C430.226 333.407 429.985 332.963 429.704 332.556C424.599 325.159 419.409 325.562 418.3 325.562C414.96 325.562 412.396 326.096 409.549 327.027C408.919 327.233 408.241 327.303 407.692 327.692C407.285 327.981 406.799 328.199 406.419 328.496C405.75 329.021 405.291 329.711 404.703 330.316C404.233 330.8 403.79 331.379 403.495 331.984C403.249 332.488 402.955 332.906 402.605 333.35C401.938 334.194 401.606 334.956 401.301 335.979C400.874 337.416 400.627 338.952 400.627 340.452C400.627 341.576 400.84 342.715 401.08 343.811C401.146 344.113 401.297 344.381 401.331 344.689C401.356 344.913 401.329 345.132 401.402 345.345C401.772 346.433 402.821 349.885 403.616 350.79C403.87 351.308 408.307 354.458 408.789 354.676M415.784 356.655C415.146 356.922 414.57 356.901 413.882 356.901C413.236 356.901 412.589 356.99 411.95 356.99C410.6 356.99 400.671 357.295 399.308 357.207M416.086 356.635C415.197 356.635 414.112 356.8 413.243 356.581C411.594 356.165 410.091 355.542 408.323 354.392" stroke="#35507A" stroke-width="0.624041" stroke-linecap="round"/>
<circle cx="261.835" cy="103.084" r="53.5835" fill="#F3E6D9" stroke="#7B6251"/>
<circle cx="108.084" cy="323.281" r="53.5835" fill="#FFECE0" stroke="#D65A00"/>
<path d="M289.822 134.447C288.261 134.447 286.782 134.314 285.233 134.185C284.529 134.126 283.832 134.048 283.134 133.981C282.814 133.951 282.21 134.113 281.948 133.909C281.356 133.449 280.118 133.278 280.118 132.381C280.118 131.611 281.063 130.696 281.508 130.08C282.204 129.117 282.361 128.215 282.361 127.071C282.361 126.485 282.068 126.117 281.797 125.622C281.268 124.654 280.946 123.538 280.682 122.474C280.372 121.222 280.03 119.982 280 118.685C279.976 117.636 280.118 116.625 280.118 115.564C280.118 112.838 279.146 110.197 278.945 107.479C278.915 107.081 279.003 106.714 278.794 106.358C278.458 105.788 278.142 107.184 278.112 107.302C277.908 108.095 277.928 108.992 277.64 109.755C277.38 110.442 277.075 111.141 276.932 111.866C276.569 113.698 276.342 115.408 276.342 117.268C276.342 118.669 276.444 120.1 276.604 121.491C276.74 122.666 277.259 123.787 277.397 124.959C277.483 125.685 277.522 126.517 277.522 127.248C277.522 127.575 277.555 127.973 277.338 128.251C276.745 129.014 275.45 129.037 274.65 129.49C274.297 129.69 272.795 130.688 273.654 131.26C274.047 131.523 274.639 131.556 275.083 131.614C276.123 131.75 277.186 131.85 278.237 131.85C278.786 131.85 279.465 131.957 279.994 131.791C281.048 131.462 282.13 131.054 283.193 130.788C283.761 130.646 284.269 130.269 284.839 130.106C285.237 129.993 285.615 129.96 286.019 129.87C286.672 129.725 287.394 130.042 287.888 129.424C288.225 129.003 288.262 128.505 288.262 127.995C288.262 126.714 288.262 125.434 288.262 124.153C288.262 122.419 287.918 120.601 287.763 118.868C287.544 116.404 287.411 113.985 286.911 111.558C286.626 110.171 286.899 108.615 286.242 107.302C285.512 105.841 284.702 104.715 283.357 103.827C282.252 103.097 281.5 102.464 280.145 102.464C279.194 102.464 278.245 102.201 277.286 102.411C276.025 102.687 275.287 102.581 274.244 101.873C273.24 101.192 272.567 100.174 271.496 99.572C270.622 99.0802 270.453 99.0728 269.733 99.8736C269.188 100.479 268.546 100.937 268.08 101.611C267.841 101.958 267.502 102.158 267.136 102.345C266.092 102.882 265.084 103.402 263.924 103.617C262.725 103.84 261.565 104.277 260.403 104.653C258.951 105.123 257.706 105.97 256.278 106.424C254.949 106.847 251.204 108.239 251.204 105.709C251.204 104.896 252.479 104.347 253.144 104.26C254.754 104.05 256.417 103.998 258.049 103.998C259.005 103.998 260.094 104.508 260.763 105.178C261.881 106.296 261.68 107.535 262.002 108.955C262.644 111.778 262.937 114.706 263.215 117.596C263.522 120.777 263.006 123.983 263.006 127.156C263.006 128.318 262.932 129.454 262.881 130.611C262.84 131.534 262.652 134.295 262.652 133.372C262.652 131.991 262.415 130.617 262.415 129.228C262.415 128.009 262.435 126.788 262.415 125.569C262.394 124.236 262.175 122.76 261.648 121.53C261.318 120.76 260.051 120.025 259.406 119.524C258.791 119.045 257.871 118.868 257.105 118.868C256.334 118.868 255.697 118.72 254.967 118.639C254.407 118.576 253.888 118.389 253.328 118.304C252.67 118.205 251.961 118.278 251.295 118.278C250.091 118.278 248.866 118.213 247.663 118.278C246.96 118.316 246.088 119.027 245.598 119.517C245.108 120.007 245.274 120.555 245.178 121.229C244.841 123.59 244.831 126.028 244.831 128.428C244.831 129.224 244.675 129.806 245.25 130.382C245.918 131.05 246.483 131.548 246.483 132.559C246.483 133.763 245.045 134.724 244.004 135.096C243.186 135.388 241.982 135.208 241.434 134.539C241.024 134.038 240.9 132.402 241.198 131.877C241.699 130.996 242.653 130.54 243.119 129.608C243.366 129.115 243.387 128.498 243.421 127.956C243.475 127.091 243.676 126.228 243.762 125.366C243.831 124.674 243.768 123.943 243.768 123.248C243.768 121.974 244.004 120.735 244.004 119.458C244.004 118.354 244.266 117.24 244.45 116.154C244.615 115.184 244.713 114.345 244.713 113.348C244.713 111.95 244.949 110.518 245.06 109.125C245.162 107.852 245.406 106.75 246.004 105.604C246.315 105.008 247.055 104.537 247.689 104.326C248.02 104.215 249.571 103.827 249.669 104.352C249.792 105.006 254.848 102.285 255.452 101.991C256.166 101.644 256.841 101.248 257.57 100.929C258.153 100.674 259.007 100.106 259.635 99.9917C260.401 99.8525 262.125 99.2292 262.468 98.4443C262.925 97.399 262.983 96.0091 263.006 94.884C263.028 93.7607 263.449 92.0144 263.097 90.8714C262.666 89.471 261.975 92.1038 261.878 92.4384C261.652 93.2198 261.333 93.9753 261.058 94.7398C260.742 95.617 260.175 96.3225 259.76 97.1526C259.272 98.1288 258.183 98.4242 257.314 98.9492C255.799 99.8649 254.152 100.779 252.797 101.926C252.501 102.176 252.178 102.417 251.912 102.7C251.568 103.064 252.629 102.936 252.83 102.936C254.286 102.936 255.463 102.205 256.842 101.873C258.019 101.59 259.204 101.119 260.298 100.641C261.518 100.107 262.463 99.763 263.261 98.6148C263.977 97.5857 264.8 96.6802 265.458 95.6184C266.399 94.1 267.19 92.6028 267.962 91.0156C268.596 89.714 269.895 88.3838 271.326 88.0127C272.773 87.6375 273.787 88.5002 274.926 89.2453C276.564 90.3177 277.992 91.6697 279.587 92.7794C280.61 93.4904 281.438 94.3776 282.42 95.1463C283.415 95.9253 284.081 97.0284 285.115 97.7821C285.521 98.078 285.856 98.1795 285.456 97.6247C284.914 96.8747 284.422 96.1019 283.869 95.3561C282.519 93.5372 280.833 91.7462 279.056 90.36C277.969 89.512 277.079 88.4377 275.889 87.7242C275.154 87.2832 274.65 86.4986 273.89 86.0195C272.904 85.3981 271.816 85.1524 270.795 84.6688C269.501 84.0558 267.824 84.2885 266.408 84.2885C264.78 84.2885 263.347 84.3418 262.088 83.0821C261.835 82.8294 261.57 82.3478 261.734 81.9806C261.96 81.4709 263.205 82.0249 263.465 82.1379C264.309 82.5063 265.178 83.0787 266.081 83.2722C266.434 83.348 267.733 83.6874 268.074 83.4034C269.334 82.3534 265.759 81.1228 265.241 80.7348C264.519 80.1931 264.122 79.4321 263.569 78.7416C263.042 78.0827 262.909 77.3006 262.442 76.6172C262.09 76.1026 261.759 75.5884 261.38 75.083C260.966 74.5314 260.375 74.1164 259.99 73.5487C259.452 72.7579 259.001 72.3933 258.173 71.8964C257.714 71.6211 257.177 71.0194 256.633 70.9588C255.477 70.8305 254.144 71.2554 253.21 71.9227C252.441 72.472 251.423 73.0477 250.528 73.3651C249.901 73.5876 249.142 73.653 248.483 73.7848C247.993 73.8827 247.296 73.8656 246.896 74.2044C246.084 74.8914 246.514 76.7181 246.339 77.7056C246.291 77.9755 246.063 78.8086 246.365 79.0038C247.127 79.4968 248.158 79.4369 249.053 79.4497C249.609 79.4576 250.226 79.3714 250.777 79.4563C251.157 79.5147 251.521 79.8815 251.918 79.9808C252.451 80.114 254.118 80.3195 254.384 79.7447C254.595 79.2872 254.635 78.8234 254.81 78.3744C254.979 77.938 255.121 77.2651 255.623 77.0893C256.401 76.8171 257.278 77.7725 257.577 78.3875C257.771 78.787 258.159 80.1795 257.282 79.8562C256.787 79.6739 256.481 79.1078 256.042 78.8334C255.934 78.7655 255.7 78.3542 255.833 78.7678C255.999 79.284 256.205 79.7947 256.396 80.3021C256.846 81.4917 257.695 82.4777 257.695 83.7574C257.695 84.5841 256.425 84.9275 255.8 84.9901C254.513 85.1187 253.47 84.1289 252.685 83.2001C251.741 82.0812 250.783 80.9734 249.905 79.8038" stroke="#7B6251" stroke-width="0.624041" stroke-linecap="round"/>
<path d="M70.6816 328.767C71.3617 328.558 75.1079 328.038 75.7923 327.877C75.9878 327.793 75.4327 329.211 75.4134 329.279C75.2572 329.825 73.6061 331.293 78.6105 332.007C78.9846 332.007 79.2407 332.042 79.5436 331.794C79.9396 331.47 81.1605 321.808 81.3387 321.35C81.6539 320.467 81.7445 319.461 82.0634 318.584C82.2867 317.97 87.6211 315.843 88.1166 315.595C88.7336 315.286 89.888 314.918 90.7595 313.421C91.176 313.004 91.494 312.531 91.8868 312.095C92.917 310.95 94.4007 310.075 95.8086 309.499C96.2834 309.305 96.897 309.202 97.4048 309.163C97.7298 309.138 98.0769 308.988 98.39 308.988C98.8795 309.02 100.024 312.843 100.322 312.976C101.646 313.408 104.461 311.489 105.428 310.522C106.026 309.924 107.043 309.1 107.043 308.287M107.043 308.287C107.043 307.423 106.732 306.331 105.831 305.985C105.715 305.94 105.068 305.648 105.002 305.88C104.893 306.264 104.882 306.4 105.173 306.69C105.671 307.189 106.304 307.9 107.001 308.054L107.385 305.407M107.043 308.287C107.241 308.789 108.024 311.54 108.114 311.673C108.516 312.771 109.215 313.146 109.985 313.501C110.299 313.646 110.666 313.591 111.003 313.591C111.429 313.591 111.912 313.316 112.329 313.233C112.547 313.189 114.194 312.744 113.812 313.19C113.128 313.988 111.967 314.651 111.903 315.808C111.885 316.14 111.818 316.459 111.818 316.812C111.818 317.156 111.808 317.681 111.714 318.006C111.689 318.091 111.457 318.572 111.614 318.607C111.777 318.644 112.177 318.386 112.329 318.323C112.941 318.073 113.465 317.662 114.025 317.324C115.232 316.595 116.368 315.795 117.53 315.003C118.343 314.448 119.303 314.035 120.007 313.331C120.497 312.841 121.626 311.905 121.348 311.1C121.246 310.807 120.804 310.515 120.561 310.333C120.036 309.939 119.365 309.481 118.979 308.95C118.379 308.122 117.724 307.377 117.236 306.473C116.995 306.024 116.943 305.547 116.592 305.146C116.021 304.494 115.464 303.893 114.797 303.313C113.833 302.476 112.626 301.605 112.078 300.419C111.58 299.339 110.607 298.351 109.772 297.516C108.398 296.142 107.486 297.884 106.892 299.013C106.396 299.954 105.804 301.156 106.153 302.252C106.315 302.76 106.522 303.242 106.702 303.74C106.905 304.296 106.872 303.181 106.878 303.081C106.913 302.417 107.016 301.779 106.892 301.125C106.827 300.784 106.737 300.35 106.702 300.036C106.615 299.248 106.276 298.446 106.276 297.639C106.276 296.907 106.505 296.387 106.911 295.801C107.283 295.264 111.708 293.341 112.273 293.045C113.343 292.634 118.241 290.467 122.764 296.663C127.368 302.972 126.372 306.851 125.843 308.088C125.662 308.508 125.373 308.855 125.08 309.201C124.691 309.32 123.051 310.877 122.664 311.015C122.405 311.108 121.948 311.457 121.812 311.716C121.64 312.042 122.215 312.361 122.494 312.464C123.412 312.804 124.364 313.058 125.288 313.378C125.932 313.601 126.472 313.837 127.079 314.141C129.4 315.829 129.294 317.783 129.4 318.347C129.659 319.732 129.617 321.07 129.551 322.458C129.4 329.856 126.116 341.663 125.809 342.479C125.661 342.876 125.592 343.284 125.459 343.682C125.337 344.048 125.332 344.486 125.118 344.814C124.807 345.289 124.496 345.501 124.028 345.818C123.528 346.158 122.784 346.407 122.2 346.586C121.219 346.886 120.236 347.037 119.216 347.097C118.562 347.136 117.935 347.531 117.274 347.604C116.471 347.693 115.695 347.914 114.878 347.955C112.708 348.063 110.575 348.206 108.403 348.206C107.498 348.206 106.594 348.206 105.689 348.206C104.237 348.206 102.773 348.364 101.331 348.187C100.295 348.059 98.9005 348.154 98.1768 347.23C97.7003 346.621 97.822 342.929 98.0489 342.157C98.1923 341.584 98.762 341.236 99.3231 341.134C101.059 340.818 102.816 340.633 104.552 340.381C104.919 340.328 105.451 340.402 105.424 339.936C105.409 339.688 104.833 339.54 104.656 339.49C103.159 339.075 101.816 338.111 100.398 337.511C99.8198 337.361 96.3305 335.849 95.7707 335.644C95.3681 335.497 94.6813 335.274 94.6813 335.839C94.6813 336.095 99.3231 338.401 100.308 338.401C100.853 338.401 102.342 338.16 102.885 336.999C103.279 336.489 104.073 331.697 103.292 330.681C102.284 330.255 102.566 334.882 102.743 335.588C102.911 336.262 103.151 336.901 103.477 337.52C103.723 337.987 104.178 338.214 104.614 338.448C105.259 338.796 105.912 339.12 106.617 339.339C107.371 339.573 108.026 339.303 108.711 339.007C110.286 338.327 113.808 337.343 115.493 337.037C116.101 336.95 119.044 336.176 119.23 337.297C119.314 337.8 119.027 337.843 118.563 337.885C117.794 337.955 122.249 323.677 124.265 321.056C124.669 320.336 125.177 319.525 125.928 319.138C127.651 318.248 128.102 321.691 128.102 322.756C128.102 325.194 126.274 337.015 126.037 339.462C125.647 341.102 125.617 342.812 125.43 344.483C125.356 345.15 125.329 345.836 125.44 346.5C125.461 346.628 125.47 346.975 125.563 347.078C125.69 347.22 125.977 347.336 126.141 347.419C126.586 347.646 126.97 347.953 127.401 348.206C127.885 348.49 128.377 348.727 128.869 348.973M107.811 305.885C107.681 305.674 107.449 305.357 107.28 305.17C107.043 304.907 107.289 305.299 107.385 305.407M107.385 305.407C107.613 305.664 108.811 307.265 108.985 306.449C109.13 305.773 108.452 305.194 107.882 304.938C107.345 304.696 106.108 304.682 105.765 305.284M105.765 305.284C105.562 305.638 105.019 305.828 104.694 306.07C104.105 306.507 103.551 307.004 102.97 307.453C102.343 307.937 101.707 308.339 101.142 308.883C100.758 309.253 100.36 309.633 100.019 310.049C99.7359 310.395 100.195 310.62 100.507 310.475C100.803 309.981 103.441 307.101 103.463 306.496C103.479 306.051 103.477 305.731 103.036 305.492C102.907 305.422 101.914 304.426 102.135 304.18C102.468 303.811 103.294 303.7 103.726 303.74C104.043 303.768 105.521 305.144 105.765 305.284ZM106.337 304.876C103.463 303.74 99.4557 306.69 97.9021 308.22C97.1806 308.487 96.6177 308.135 95.8939 308.135C95.5734 308.135 95.2529 308.135 94.9324 308.135C94.3108 308.135 93.7931 308.548 93.2556 308.827C92.2175 309.365 89.5923 310.445 86.0515 312.995C85.6526 313.282 84.9068 313.562 85.2226 314.141C85.3705 314.412 86.1105 314.403 86.3688 314.482C86.7043 314.584 87.0474 314.643 87.3872 314.704C88.2273 314.857 89.0166 315.211 89.888 315.211C90.9302 315.211 93.232 315.279 95.9128 314.06C96.6502 313.725 97.5467 313.847 98.3379 313.847C99.0472 313.847 99.4135 313.795 99.4557 312.995C99.4859 312.42 99.3123 312.625 99.1147 312.976C98.937 313.29 98.9014 313.496 98.8399 313.696C98.5158 314.749 98.3426 315.715 97.6653 316.642C96.8021 317.823 90.8344 319.729 90.0348 320.114C89.8345 320.21 89.4871 320.321 89.7435 320.606C89.9341 320.818 91.0192 320.928 91.3137 320.928M95.9602 322.143C95.9602 322.71 95.9859 324.261 95.9602 324.826C95.9459 325.14 95.5389 325.468 95.2402 325.523C95.0901 325.55 94.6934 325.68 94.5582 325.603C94.3437 325.481 94.2667 324.734 94.2124 324.495C94.0865 323.941 93.9993 323.205 93.9993 322.633C93.9993 322.417 94.0031 322.032 93.7435 322.032C93.4526 322.032 93.2198 321.997 92.9951 322.221C92.7521 322.464 92.6458 322.946 92.5689 323.273C92.4849 323.63 92.3408 323.963 92.2278 324.315C92.062 324.831 92.0361 324.931 91.4463 324.931C90.959 324.931 90.5559 324.956 90.2101 324.547C89.7159 323.963 90.0944 322.664 90.2906 322.037C90.4743 321.449 91.0981 320.666 91.7826 320.99C92.3805 321.145 94.5065 321.811 95.1076 321.965C95.5617 322.082 96.4923 322.311 96.9406 322.07C97.4419 321.8 98.1054 320.471 97.2864 320.237C96.3017 319.955 95.1815 319.785 94.1319 319.73C93.2895 319.686 92.532 319.285 91.7447 319.048C91.0137 318.827 83.6404 316.901 82.8828 316.841C79.5246 316.349 81.7941 314.776 82.0823 314.577C82.5209 314.273 82.923 314.091 83.4275 313.895C83.6338 313.814 84.2538 313.72 84.0622 314.103C83.9187 314.39 81.2061 315.527 80.9341 315.656C80.032 315.853 80.3012 315.906 79.5246 316.405C78.6622 316.959 77.9675 317.5 77.8858 318.603C77.8858 319.407 77.9844 319.847 78.3121 319.81C79.0542 319.728 80.6812 319.066 81.3957 318.887M80.5879 319.139C80.491 319.156 78.5382 320.142 78.871 320.237C79.0915 320.3 79.3712 320.393 79.5909 320.497C79.8668 320.627 81.2747 320.998 81.2961 321.179C81.3839 321.926 79.7031 321.147 79.5057 321.056C79.0711 320.856 78.5643 320.663 78.0942 320.578C77.8633 320.536 77.2905 320.271 77.0806 320.331C77.0317 320.345 76.948 320.984 76.948 321.051C76.3512 323.121 74.7313 328.685 74.7313 329.875C74.7313 330.221 74.8987 330.134 75.1576 330.264C75.5628 330.466 75.9281 330.772 76.3512 330.936C77.5875 331.417 81.0837 332.543 81.9592 333.115C83.9924 334.929 85.8966 338.401 85.8966 338.401C86.1977 337.973 87.1708 337.378 87.6903 337.378C88.7779 337.378 89.7296 338.002 90.0964 339.102C90.1622 339.299 90.1712 339.712 90.2906 339.855C90.333 339.906 90.4321 340.506 90.4138 340.57C85.2619 340.087 85.5673 340.535 85.5589 340.703C85.5209 341.463 89.7 342.614 90.3285 342.792C90.4151 342.813 91.2447 342.864 90.8874 342.579C90.1627 341.999 85.6441 341.778 85.6441 342.365C85.6441 343.149 87.394 343.674 88.0266 343.895C88.7647 344.154 89.6211 344.36 90.3332 344.558C90.6506 344.692 90.7756 344.59 90.7595 344.284C90.7434 343.978 89.9543 343.857 89.9543 343.857C89.2256 343.857 86.4736 343.468 86.2409 344.045C86.0083 344.622 88.4932 345.514 88.4932 345.514L91.0958 346.543C92.5061 346.495 90.2693 345.707 89.8549 345.643C89.2145 345.545 88.4394 345.257 87.965 345.837C87.4187 346.505 89.3409 347.278 89.6512 347.353C90.7307 347.615 91.9055 347.523 93.0141 347.523C93.5051 347.523 93.9961 347.523 94.4871 347.523C95.0546 347.523 95.9143 347.552 96.4243 347.31C96.7761 347.144 97.0692 346.942 97.4285 346.822C97.904 346.664 98.3529 346.529 98.4137 345.97C98.4769 345.388 98.3921 344.876 98.1105 344.369C97.6648 343.46 97.1709 341.621 96.5949 340.783C95.9696 339.874 94.9097 339.185 93.9614 338.662C93.5087 338.412 93.0455 338.287 92.5689 338.107C92.0248 337.902 91.4963 337.628 90.93 337.482C90.4615 337.362 90.0718 337.293 89.5849 337.293C89.2953 337.293 89.3403 337.811 89.4144 338.041C89.5632 338.504 90.1208 338.956 90.4611 339.296C90.9151 339.75 91.4119 340.384 91.9957 340.66C92.1345 340.726 93.6577 341.272 93.7388 340.907C93.9256 340.066 92.7149 340.106 92.2089 340.106C91.8969 340.106 90.5429 340.299 90.3522 340.087C90.2428 339.966 90.3567 339.544 90.2906 339.372C90.0535 338.756 90.1627 337.904 90.1627 337.245C90.1627 336.169 90.0637 335.121 89.997 334.053C89.8975 332.462 89.874 330.69 90.0585 329.099C90.1687 328.149 89.6432 327.822 88.8839 327.422C88.6584 327.303 88.3199 326.977 88.0361 326.631C87.9732 326.422 86.5312 325.054 91.3137 324.841C92.2963 324.622 93.3704 324.419 94.3877 324.419C95.1804 324.419 95.8853 323.907 96.6612 323.907C97.4667 323.907 97.9458 324.151 98.5936 324.547C99.5082 325.106 102.977 326.886 103.359 327.744C103.539 328.149 103.602 328.91 103.169 329.127C102.013 329.705 100.635 329.681 99.4131 330.089C98.4432 330.412 97.4402 330.606 96.4717 330.941C96.2179 331.029 95.4157 331.484 95.1502 331.277C93.9637 330.355 92.3741 329.461 90.9016 329.212C90.6239 329.165 89.7721 329.192 89.9259 328.748C89.9871 328.571 90.266 328.07 90.4185 327.952C90.7232 327.717 91.6162 327.992 91.9342 328.066C92.3226 328.201 95.5121 329.416 95.6002 329.856C95.6524 330.118 95.5608 330.804 95.2118 330.368C94.611 329.617 96.9495 328.848 97.239 328.767C98.5785 328.392 99.9746 328.594 101.327 328.256C101.682 328.167 102.304 328.083 102.572 327.829C102.71 327.699 102.198 327.331 102.099 327.232C101.14 326.274 99.794 325.662 98.5936 325.054C98.1418 324.825 97.5206 324.448 97.0259 324.338C96.4912 324.22 95.7722 324.635 95.2876 324.803C94.9305 324.926 94.541 325.019 94.1698 325.101C93.7122 325.203 93.5924 325.16 94.1035 325.291C94.3861 325.363 94.6734 325.585 94.9371 325.717C95.4178 325.957 95.8876 326.223 96.3864 326.427C96.7748 326.586 97.4722 326.687 97.7979 326.977C98.0961 327.242 95.6352 328.054 95.4155 328.161C95.2241 328.22 94.8895 327.832 94.7192 327.739C93.4554 326.793 90.0257 326.14 89.5659 325.887C89.1231 325.701 89.3102 326.76 89.3102 326.977C89.3102 328.86 89.2674 330.751 89.2249 332.623C89.2151 333.055 89.2249 333.488 89.2249 333.92C89.2249 334.581 89.9234 334.479 90.499 334.479C90.9562 334.479 92.7058 333.24 92.9809 332.812C93.7144 332.042 94.6423 331.893 95.657 331.817C96.395 331.763 96.9528 331.718 97.6463 331.941C98.1715 332.109 98.7449 332.557 97.8169 332.774C96.9866 332.968 96.1394 333.04 95.2923 333.11C94.9832 333.136 94.6491 333.062 94.9797 332.732C95.5362 332.175 96.608 332.382 97.1964 331.794C97.4283 331.562 97.273 330.727 97.4616 330.643C97.8691 330.462 98.2878 330.302 98.6884 330.112C99.194 329.873 99.7121 329.66 100.214 329.411C100.71 329.165 101.555 328.922 101.89 328.445C102.034 328.24 101.928 327.74 101.928 327.507C101.928 327.081 101.927 326.667 102.013 326.247C102.251 325.087 103.022 321.995 103.344 320.857C103.634 319.924 103.951 318.972 104.282 318.053C104.993 316.079 106.02 313.994 108.209 313.392C109.208 313.118 110.321 313.211 111.344 313.099C112.185 313.007 113.105 312.995 113.949 312.995M113.949 312.995C114.262 312.995 114.524 313 114.821 312.89C115.62 312.594 116.414 311.858 116.796 311.124C117.008 310.7 118.267 308.559 117.014 308.699C116.21 308.94 114.286 310.348 113.949 312.995Z" stroke="#CB6700" stroke-width="0.624041" stroke-linecap="round"/>
<path d="M74.9872 330.139C74.773 329.968 73.6643 331.973 73.6069 332.209C72.8609 335.276 71.0262 340.014 71.8135 343.064C72.3911 343.409 76.5034 345.807 77.0361 346.21C77.7208 346.728 79.1959 347.574 79.1959 347.574C79.3629 347.724 79.5554 347.855 79.7453 347.981C79.8703 348.065 79.9985 348.172 80.1337 348.237C80.4049 348.368 80.588 347.245 80.6168 347.119C81.3309 344.011 80.9882 340.756 80.7874 337.566C80.7492 337.371 80.4307 335.585 80.1479 336.026C79.6067 336.872 79.8969 338.044 79.8969 339.314C79.8969 340.93 80.3492 343.417 80.4558 344.239C80.6164 345.478 80.6236 348.322 82.4546 348.322C83.0734 348.322 83.2964 348.077 83.7287 347.645C84.2687 347.105 83.3539 335.373 83.3539 334.64" stroke="#CB6700" stroke-width="0.624041" stroke-linecap="round"/>
<circle cx="110.788" cy="184.595" r="37.3585" fill="#F6F6F6" stroke="#EAEAEA"/>
<path d="M88.3809 199.276C89.0316 199.276 89.653 199.135 90.3019 199.135C91.0537 199.135 91.8094 199.161 92.5602 199.135C92.8492 199.125 93.1122 198.994 93.4031 198.994C93.6815 198.994 93.9598 198.994 94.2382 198.994C94.5335 198.994 94.8289 198.994 95.1242 198.994C95.369 198.994 95.6022 198.965 95.826 199.064C96.1174 199.194 96.0507 199.371 96.1985 199.574C96.487 199.971 95.4086 200.292 95.1556 200.052C94.862 199.774 95.0145 199.019 95.0145 198.637C95.0145 198.095 94.8733 197.57 94.8733 197.026C94.8733 196.394 94.8607 195.802 95.0145 195.187C95.368 193.773 95.6602 192.3 96.3553 191.019C96.5664 190.631 96.975 190.259 97.2884 189.945C97.7337 189.5 98.4579 189.416 98.9978 189.114C99.4106 188.883 100.012 188.8 100.476 188.691C100.683 188.642 100.979 188.489 101.154 188.377C101.462 188.179 101.713 188.114 102.056 187.985C102.604 187.778 103.167 187.598 103.695 187.334C104.179 187.092 104.778 187.013 105.212 186.675C105.848 186.181 106.464 185.551 106.815 184.809C106.913 184.604 107.312 183.552 107.043 183.398C106.758 183.235 106.577 182.752 106.341 182.516C106.165 182.34 106.011 182.055 105.957 181.81C105.905 181.577 105.944 181.337 105.878 181.108C105.831 180.942 105.62 180.738 105.6 180.575C105.58 180.412 105.392 179.995 105.741 179.94C105.864 179.92 106.005 179.94 106.129 179.94C106.273 179.94 106.247 180.076 106.341 180.152C106.54 180.311 106.065 180.269 105.984 180.222C105.683 180.05 105.359 179.708 105.192 179.375C104.867 178.725 104.712 178.002 104.753 177.258C104.77 176.961 105.096 176.92 105.302 177.047C105.547 177.197 105.6 177.419 105.6 177.717C105.6 178.034 105.72 179.103 105.145 178.529C104.897 178.281 104.867 177.946 104.769 177.627C104.697 177.393 104.612 177.007 104.612 176.764C104.612 176.003 104.33 175.281 104.33 174.51C104.33 174.145 104.33 173.781 104.33 173.416C104.33 173.075 104.541 172.795 104.541 172.459C104.541 171.802 105.583 170.819 106.059 170.487C106.394 170.254 106.731 170.013 107.086 169.813C107.214 169.741 107.427 169.574 107.576 169.566C107.78 169.555 107.951 169.585 108.141 169.496C108.53 169.312 109.121 169.329 109.552 169.284C109.914 169.246 110.225 169.143 110.61 169.143C110.963 169.143 111.262 169.246 111.598 169.284C111.844 169.311 112.048 169.513 112.269 169.562C112.593 169.634 112.855 169.848 113.186 169.848C113.472 169.848 113.958 170.082 114.21 170.201C115.049 170.599 115.305 171.159 115.66 171.969C115.768 172.216 115.94 172.478 115.978 172.742C116.032 173.121 116.033 173.481 116.044 173.871C116.063 174.516 116.24 175.073 116.119 175.737C116.062 176.048 115.91 176.755 116.131 177.031C116.546 177.55 116.317 178.062 116.189 178.634C116.083 179.114 115.811 179.476 115.621 179.905C115.404 180.394 114.562 181.043 114.562 180.136C114.562 179.466 114.789 178.883 115.056 178.282C115.145 178.081 115.372 177.868 115.519 177.721C115.639 177.601 115.696 177.807 115.692 177.893C115.684 178.043 115.558 178.208 115.48 178.332C115.14 178.872 114.813 179.527 114.617 180.136C114.382 180.869 113.803 181.506 113.641 182.233C113.607 182.386 113.602 182.776 113.429 182.833C113.106 182.941 112.858 183.045 112.516 183.045C111.869 183.045 111.234 182.974 110.559 182.974C109.39 182.974 108.03 183.269 107.294 182.143C107.084 181.822 107.351 181.37 107.098 181.053C106.981 180.907 106.965 180.607 106.831 180.473C106.477 180.119 106.296 179.581 106.149 179.14C106.035 178.798 106.019 179.899 106.18 180.222C106.299 180.459 106.489 180.728 106.517 180.998C106.575 181.548 106.729 182.057 106.729 182.618C106.729 183.068 106.659 183.516 106.659 183.959C106.659 184.264 106.729 184.669 106.604 184.95C106.282 185.674 107.203 185.69 107.65 185.55C108.053 185.424 108.43 185.176 108.85 185.092C109.272 185.007 109.606 184.95 110.046 184.95C110.799 184.95 111.639 185.014 112.375 185.178C112.738 185.259 113.097 185.343 113.449 185.46C113.657 185.53 114.676 186.005 114.492 185.617C114.147 184.893 114.416 184.133 114.194 183.382C114.106 183.087 114.068 182.79 114.068 182.48C114.068 182.395 114.038 182.237 114.104 182.171C114.115 182.159 114.07 182.716 114.068 182.786C114.06 183.265 114.05 183.751 114.068 184.229C114.075 184.39 114.23 184.517 114.315 184.641C114.529 184.95 114.543 185.23 114.841 185.507C115.172 185.816 115.621 186.009 115.939 186.327C116.362 186.75 117.104 186.692 117.644 186.871C118.406 187.125 119.148 187.461 119.91 187.703C120.441 187.871 120.919 188.304 121.467 188.408C122.138 188.536 122.875 188.705 123.525 188.938C123.825 189.045 124.089 189.162 124.305 189.404C124.768 189.925 125.293 190.521 125.501 191.196C125.648 191.675 125.58 192.048 125.571 192.556C125.557 193.457 125.78 194.261 125.858 195.148C125.911 195.759 126.136 196.371 126.136 196.983C126.136 197.548 126.136 198.114 126.136 198.68C126.136 198.934 126.432 200.144 126.026 200.26C125.856 200.309 125.62 200.162 125.469 200.119C125.26 200.059 125.413 199.554 125.446 199.457C125.526 199.22 125.888 199.114 126.097 199.01C126.909 198.603 127.802 198.681 128.676 198.778C129.387 198.857 130.084 198.923 130.801 198.923C131.603 198.923 132.389 198.782 133.193 198.782" stroke="#676666" stroke-width="0.134578" stroke-linecap="round"/>
<path d="M373.479 199.276C374.129 199.276 374.751 199.135 375.4 199.135C376.151 199.135 376.907 199.161 377.658 199.135C377.947 199.125 378.21 198.994 378.501 198.994C378.779 198.994 379.057 198.994 379.336 198.994C379.631 198.994 379.927 198.994 380.222 198.994C380.467 198.994 380.7 198.965 380.924 199.064C381.215 199.194 381.148 199.371 381.296 199.574C381.585 199.971 380.506 200.292 380.253 200.052C379.96 199.774 380.112 199.019 380.112 198.637C380.112 198.095 379.971 197.57 379.971 197.026C379.971 196.394 379.958 195.802 380.112 195.187C380.466 193.773 380.758 192.3 381.453 191.019C381.664 190.631 382.073 190.259 382.386 189.945C382.831 189.5 383.556 189.416 384.095 189.114C384.508 188.883 385.109 188.8 385.573 188.691C385.78 188.642 386.076 188.489 386.252 188.377C386.56 188.179 386.811 188.114 387.153 187.985C387.702 187.778 388.265 187.598 388.792 187.334C389.277 187.092 389.876 187.013 390.31 186.675C390.946 186.181 391.562 185.551 391.913 184.809C392.01 184.604 392.41 183.552 392.14 183.398C391.856 183.235 391.675 182.752 391.439 182.516C391.263 182.34 391.109 182.055 391.054 181.81C391.003 181.577 391.041 181.337 390.976 181.108C390.928 180.942 390.718 180.738 390.698 180.575C390.677 180.412 390.489 179.995 390.839 179.94C390.962 179.92 391.102 179.94 391.227 179.94C391.371 179.94 391.345 180.076 391.439 180.152C391.638 180.311 391.163 180.269 391.082 180.222C390.78 180.05 390.456 179.708 390.29 179.375C389.965 178.725 389.809 178.002 389.851 177.258C389.867 176.961 390.194 176.92 390.4 177.047C390.644 177.197 390.698 177.419 390.698 177.717C390.698 178.034 390.818 179.103 390.243 178.529C389.995 178.281 389.965 177.946 389.866 177.627C389.794 177.393 389.71 177.007 389.71 176.764C389.71 176.003 389.427 175.281 389.427 174.51C389.427 174.145 389.427 173.781 389.427 173.416C389.427 173.075 389.639 172.795 389.639 172.459C389.639 171.802 390.68 170.819 391.156 170.487C391.492 170.254 391.829 170.013 392.184 169.813C392.312 169.741 392.525 169.574 392.674 169.566C392.877 169.555 393.048 169.585 393.238 169.496C393.628 169.312 394.219 169.329 394.65 169.284C395.011 169.246 395.323 169.143 395.708 169.143C396.06 169.143 396.36 169.246 396.696 169.284C396.942 169.311 397.145 169.513 397.367 169.562C397.69 169.634 397.953 169.848 398.284 169.848C398.569 169.848 399.055 170.082 399.307 170.201C400.147 170.599 400.403 171.159 400.758 171.969C400.865 172.216 401.038 172.478 401.075 172.742C401.13 173.121 401.131 173.481 401.142 173.871C401.16 174.516 401.337 175.073 401.217 175.737C401.16 176.048 401.008 176.755 401.228 177.031C401.644 177.55 401.414 178.062 401.287 178.634C401.181 179.114 400.909 179.476 400.719 179.905C400.501 180.394 399.66 181.043 399.66 180.136C399.66 179.466 399.887 178.883 400.154 178.282C400.243 178.081 400.47 177.868 400.617 177.721C400.737 177.601 400.794 177.807 400.789 177.893C400.781 178.043 400.656 178.208 400.577 178.332C400.238 178.872 399.911 179.527 399.715 180.136C399.479 180.869 398.9 181.506 398.739 182.233C398.705 182.386 398.7 182.776 398.527 182.833C398.204 182.941 397.956 183.045 397.614 183.045C396.966 183.045 396.331 182.974 395.657 182.974C394.488 182.974 393.128 183.269 392.391 182.143C392.181 181.822 392.449 181.37 392.195 181.053C392.078 180.907 392.063 180.607 391.929 180.473C391.575 180.119 391.393 179.581 391.247 179.14C391.132 178.798 391.117 179.899 391.278 180.222C391.396 180.459 391.587 180.728 391.615 180.998C391.673 181.548 391.827 182.057 391.827 182.618C391.827 183.068 391.756 183.516 391.756 183.959C391.756 184.264 391.826 184.669 391.701 184.95C391.38 185.674 392.301 185.69 392.748 185.55C393.151 185.424 393.527 185.176 393.948 185.092C394.369 185.007 394.703 184.95 395.144 184.95C395.897 184.95 396.736 185.014 397.472 185.178C397.836 185.259 398.195 185.343 398.547 185.46C398.755 185.53 399.774 186.005 399.589 185.617C399.245 184.893 399.514 184.133 399.292 183.382C399.204 183.087 399.166 182.79 399.166 182.48C399.166 182.395 399.135 182.237 399.201 182.171C399.213 182.159 399.167 182.716 399.166 182.786C399.158 183.265 399.148 183.751 399.166 184.229C399.172 184.39 399.327 184.517 399.413 184.641C399.627 184.95 399.641 185.23 399.938 185.507C400.27 185.816 400.718 186.009 401.036 186.327C401.459 186.75 402.202 186.692 402.742 186.871C403.503 187.125 404.246 187.461 405.008 187.703C405.538 187.871 406.017 188.304 406.564 188.408C407.236 188.536 407.972 188.705 408.622 188.938C408.923 189.045 409.187 189.162 409.403 189.404C409.865 189.925 410.391 190.521 410.598 191.196C410.746 191.675 410.677 192.048 410.669 192.556C410.654 193.457 410.878 194.261 410.955 195.148C411.008 195.759 411.234 196.371 411.234 196.983C411.234 197.548 411.234 198.114 411.234 198.68C411.234 198.934 411.529 200.144 411.124 200.26C410.953 200.309 410.718 200.162 410.567 200.119C410.358 200.059 410.511 199.554 410.544 199.457C410.624 199.22 410.986 199.114 411.194 199.01C412.006 198.603 412.9 198.681 413.774 198.778C414.485 198.857 415.182 198.923 415.899 198.923C416.701 198.923 417.487 198.782 418.291 198.782" stroke="#676666" stroke-width="0.134578" stroke-linecap="round"/>
<path d="M243.41 359.224C243.822 359.224 244.215 359.135 244.626 359.135C245.101 359.135 245.579 359.151 246.054 359.135C246.237 359.129 246.403 359.046 246.587 359.046C246.764 359.046 246.94 359.046 247.116 359.046C247.303 359.046 247.49 359.046 247.676 359.046C247.831 359.046 247.979 359.027 248.12 359.09C248.305 359.172 248.262 359.284 248.356 359.413C248.539 359.664 247.856 359.867 247.696 359.715C247.51 359.539 247.607 359.062 247.607 358.82C247.607 358.477 247.518 358.145 247.518 357.8C247.518 357.401 247.51 357.026 247.607 356.637C247.831 355.743 248.015 354.811 248.455 354.001C248.589 353.755 248.847 353.519 249.046 353.321C249.327 353.039 249.785 352.986 250.127 352.795C250.388 352.649 250.768 352.596 251.062 352.527C251.193 352.496 251.38 352.4 251.491 352.329C251.686 352.204 251.845 352.163 252.062 352.081C252.409 351.95 252.765 351.836 253.098 351.669C253.405 351.516 253.784 351.466 254.058 351.252C254.461 350.939 254.851 350.541 255.073 350.072C255.134 349.942 255.387 349.276 255.217 349.179C255.036 349.076 254.922 348.77 254.773 348.621C254.662 348.51 254.564 348.329 254.53 348.174C254.497 348.027 254.521 347.875 254.48 347.73C254.45 347.625 254.317 347.496 254.304 347.393C254.291 347.29 254.172 347.026 254.393 346.991C254.471 346.979 254.56 346.991 254.639 346.991C254.73 346.991 254.713 347.077 254.773 347.125C254.899 347.226 254.598 347.199 254.547 347.17C254.356 347.061 254.151 346.845 254.046 346.634C253.84 346.223 253.742 345.765 253.768 345.294C253.779 345.106 253.985 345.08 254.115 345.161C254.27 345.256 254.304 345.396 254.304 345.585C254.304 345.785 254.38 346.462 254.016 346.098C253.859 345.941 253.84 345.729 253.778 345.528C253.732 345.38 253.679 345.136 253.679 344.982C253.679 344.5 253.5 344.044 253.5 343.556C253.5 343.325 253.5 343.094 253.5 342.864C253.5 342.648 253.634 342.471 253.634 342.259C253.634 341.843 254.293 341.22 254.594 341.011C254.806 340.863 255.019 340.711 255.244 340.584C255.325 340.539 255.46 340.433 255.554 340.428C255.683 340.421 255.791 340.44 255.911 340.383C256.158 340.267 256.532 340.278 256.804 340.249C257.033 340.225 257.23 340.16 257.474 340.16C257.697 340.16 257.886 340.226 258.099 340.249C258.254 340.267 258.383 340.394 258.523 340.426C258.728 340.471 258.894 340.607 259.103 340.607C259.284 340.607 259.591 340.754 259.751 340.83C260.282 341.081 260.444 341.436 260.668 341.948C260.737 342.104 260.846 342.27 260.869 342.437C260.904 342.677 260.905 342.905 260.912 343.151C260.923 343.56 261.035 343.912 260.959 344.332C260.923 344.529 260.827 344.976 260.966 345.151C261.229 345.479 261.084 345.803 261.003 346.165C260.936 346.468 260.764 346.698 260.644 346.969C260.506 347.278 259.974 347.689 259.974 347.115C259.974 346.692 260.117 346.322 260.287 345.942C260.343 345.815 260.486 345.68 260.579 345.587C260.655 345.511 260.691 345.641 260.688 345.696C260.683 345.791 260.604 345.895 260.554 345.974C260.34 346.315 260.132 346.73 260.009 347.115C259.86 347.579 259.493 347.982 259.391 348.442C259.37 348.538 259.366 348.785 259.257 348.822C259.053 348.89 258.896 348.956 258.679 348.956C258.27 348.956 257.868 348.911 257.442 348.911C256.702 348.911 255.841 349.098 255.375 348.385C255.243 348.182 255.412 347.896 255.251 347.695C255.177 347.603 255.168 347.413 255.083 347.328C254.859 347.105 254.744 346.764 254.651 346.485C254.579 346.268 254.569 346.965 254.671 347.17C254.746 347.319 254.866 347.49 254.884 347.661C254.921 348.008 255.018 348.33 255.018 348.685C255.018 348.97 254.974 349.253 254.974 349.533C254.974 349.727 255.018 349.983 254.939 350.161C254.735 350.619 255.318 350.629 255.601 350.54C255.856 350.461 256.094 350.303 256.36 350.25C256.627 350.197 256.838 350.161 257.117 350.161C257.593 350.161 258.124 350.201 258.59 350.305C258.82 350.356 259.047 350.409 259.27 350.483C259.401 350.527 260.046 350.828 259.929 350.583C259.711 350.125 259.881 349.644 259.741 349.169C259.686 348.982 259.661 348.794 259.661 348.598C259.661 348.545 259.642 348.444 259.684 348.402C259.691 348.395 259.662 348.747 259.661 348.792C259.656 349.095 259.65 349.402 259.661 349.705C259.665 349.806 259.763 349.887 259.818 349.965C259.953 350.161 259.962 350.338 260.15 350.513C260.36 350.709 260.644 350.831 260.845 351.032C261.112 351.299 261.582 351.263 261.924 351.376C262.405 351.537 262.875 351.749 263.357 351.902C263.693 352.009 263.996 352.283 264.342 352.349C264.767 352.43 265.233 352.537 265.644 352.683C265.834 352.751 266.001 352.825 266.138 352.979C266.43 353.308 266.763 353.685 266.894 354.112C266.987 354.415 266.944 354.652 266.939 354.973C266.93 355.542 267.071 356.051 267.12 356.612C267.154 356.999 267.296 357.386 267.296 357.773C267.296 358.131 267.296 358.489 267.296 358.847C267.296 359.008 267.483 359.773 267.227 359.847C267.119 359.878 266.97 359.785 266.874 359.757C266.742 359.72 266.839 359.4 266.859 359.338C266.91 359.188 267.139 359.122 267.271 359.056C267.785 358.799 268.35 358.848 268.903 358.909C269.353 358.959 269.794 359.001 270.248 359.001C270.755 359.001 271.252 358.912 271.761 358.912" stroke="#676666" stroke-width="0.0851413" stroke-linecap="round"/>
<path d="M163 250.715C163.876 250.715 176.027 250.074 186.53 235.174C187.975 233.654 189.909 229.778 192.632 230.543C193.622 230.869 193.681 230.15 200.724 241.644C207.504 251.527 225.12 247.342 230.483 244.177C233.654 242.649 236.398 233.627 236.976 230.869C237.29 229.368 242.694 211.137 245.057 202.745C245.445 201.873 245.935 200.901 246.392 200.051C247.35 198.273 247.952 196.15 248.683 194.249C249.057 193.279 249.046 190.841 248.683 189.898C248.377 189.101 248.175 188.312 247.636 187.618M247.636 187.617C243.017 181.145 237.515 188.633 236.861 189.288C235.438 190.71 234.486 192.4 233.349 194.042C232.05 196.424 223.232 209.94 221.135 211.655C212.156 219.002 212.237 218.546 210.97 219.207C209.97 219.729 205.479 221.823 205.479 219.529C205.479 217.767 206.931 216.342 208.184 215.166C213.035 210.619 220.002 199.401 222.425 197.876C224.82 196.368 248.883 194.301 251.642 193.892C253.59 193.469 259.019 192.639 261.312 193.064C263.605 193.488 265.79 194.232 268.058 194.767C269.847 195.19 275.623 196.139 277.751 196.218C280.499 196.32 285.631 199.063 292.509 200.408C295.155 200.926 299.347 201.467 299.347 204.299C299.347 205.722 298.565 207.008 297.577 207.941C296.266 209.179 290.014 208.91 288.053 208.91C286.092 208.91 278.327 208.444 276.346 208.444C267.552 207.941 269.648 219.023 270.13 221.176C270.781 224.083 272.953 225.934 273.686 226.505C274.699 227.292 276.592 228.119 277.59 234.852C277.59 236.157 276.992 239.524 276.431 240.71C274.846 244.055 272.937 244.803 271.834 248.39C271.357 249.938 271.046 251.485 270.291 252.995C269.664 254.249 269.026 256.096 267.643 256.679C266.401 257.202 264.4 257.139 263.085 257.139C261.949 257.139 260.813 257.139 259.677 257.139C257.103 257.139 254.766 256.736 253.553 254.238C252.784 252.655 251.533 247.595 250.652 246.318C250.018 245.399 249.322 244.548 248.695 243.624C247.852 242.382 243.511 232.477 243.501 229.572C243.427 208.444 264.587 211.137 266.607 211.137C276.346 212.622 287.397 214.321 281.596 236.997C281.018 239.257 273.861 250.153 273.445 251.233C272.482 253.739 273.018 257.049 270.959 259.108C270.013 259.633 258.836 263.308 254.796 261.18C254.796 260.13 255.464 258.382 266.769 258.382C268.325 258.382 270.662 259.509 271.995 260.293C272.549 260.619 272.617 261.337 272.617 261.905C272.617 263.549 271.861 263.894 270.59 264.645C269.307 265.403 268.083 265.702 266.769 266.398C265.615 267.021 255.887 268.244 255.464 267.293C251.572 265.084 273.445 259.108 269.923 269.365C269.334 271.08 266.834 270.953 264.808 271.379C262.548 271.644 261.381 271.644 258.029 271.644C252.863 270.734 258.025 269.402 259.966 269.111C265.293 268.312 266.29 268.328 267.943 269.111C269.036 269.629 270.959 270.226 270.959 271.644C270.959 272.057 270.52 272.889 270.291 273.302C269.808 274.171 269.118 274.625 268.242 275.063C264.201 277.084 259.219 276.617 254.808 276.617C251.295 276.617 247.933 276.124 244.643 274.844C243.468 274.387 235.326 271.784 234.167 271.333C232.074 270.58 230.1 269.509 227.962 268.858C225.863 268.219 223.802 267.751 221.642 267.511C218.679 267.182 213.768 267.682 213.768 271.54C213.768 274.34 217.461 276.403 219.547 277.446C221.346 278.346 231.368 283.815 233.039 284.929C234.662 285.842 236.234 286.9 237.805 287.91C240.74 289.797 243.674 291.555 246.922 292.883C248.308 293.45 257.144 295.237 259.056 295.577C261.399 296.046 263.778 295.968 266.078 296.717C271.182 298.379 276.153 299.204 281.504 299.204C283.411 299.204 285.363 299.364 287.225 298.881C288.213 298.625 304.518 291.87 309.501 281.59C309.616 279.403 300.223 280.771 298.933 281.015C294.585 281.835 290.073 284.111 286.339 286.402C284.553 287.176 272.987 297.89 271.327 298.881C269.595 299.915 268.009 301.151 266.4 302.358C265.262 303.211 263.984 304.127 262.463 303.716C260.31 303.134 259.735 299.8 259.769 297.96C259.811 295.702 260.997 293.663 262.244 291.87C263.219 290.469 273.445 282.84 276.634 274.361C280.717 266.194 282.605 255.451 292.118 251.751C310.652 246.844 314.946 258.109 316.753 261.594C318.24 264.461 315.656 274.418 326.792 274.418C332.121 274.285 352.621 263.749 352.621 262.009" stroke="#6E8270" stroke-width="1.74657" stroke-linecap="round"/>
</svg>
