<svg width="661" height="303" viewBox="0 0 661 303" fill="none" xmlns="http://www.w3.org/2000/svg">
<path d="M184 171.889C185.358 171.889 204.198 170.895 220.483 147.793C222.723 145.436 225.722 139.427 229.943 140.612C231.478 141.118 231.57 140.004 242.49 157.824C253.002 173.148 280.315 166.66 288.63 161.751C293.547 159.383 297.801 145.395 298.696 141.118C299.183 138.791 307.562 110.525 311.226 97.5131C311.827 96.1608 312.588 94.6534 313.297 93.3365C314.781 90.5793 315.715 87.2873 316.849 84.3407C317.428 82.8357 317.411 79.0561 316.849 77.5938C316.373 76.3578 316.06 75.1344 315.224 74.0598M315.224 74.0574C308.063 64.0237 299.533 75.6329 298.518 76.6479C296.312 78.8538 294.836 81.4739 293.074 84.0194C291.06 87.7127 277.388 108.668 274.136 111.328C260.214 122.719 260.34 122.012 258.376 123.037C256.825 123.846 249.862 127.093 249.862 123.537C249.862 120.803 252.113 118.594 254.057 116.772C261.577 109.722 272.379 92.3282 276.136 89.9631C279.849 87.6249 317.158 84.4211 321.436 83.7874C324.456 83.1307 332.874 81.8439 336.429 82.5023C339.984 83.1606 343.372 84.3136 346.888 85.1439C349.662 85.7987 358.618 87.2707 361.917 87.3928C366.177 87.5506 374.135 91.8043 384.799 93.8898C388.902 94.6922 395.401 95.5314 395.401 99.9227C395.401 102.129 394.189 104.122 392.656 105.569C390.624 107.488 380.93 107.071 377.89 107.071C374.849 107.071 362.81 106.348 359.739 106.348C346.105 105.569 349.354 122.751 350.101 126.089C351.11 130.597 354.478 133.467 355.615 134.351C357.184 135.572 360.12 136.854 361.667 147.293C361.667 149.316 360.74 154.538 359.87 156.376C357.413 161.563 354.454 162.722 352.743 168.284C352.004 170.684 351.521 173.083 350.351 175.423C349.379 177.368 348.39 180.232 346.246 181.135C344.319 181.946 341.217 181.849 339.178 181.849C337.416 181.849 335.655 181.849 333.894 181.849C329.904 181.849 326.28 181.224 324.399 177.351C323.206 174.896 321.267 167.052 319.901 165.071C318.918 163.646 317.839 162.327 316.867 160.894C315.56 158.968 308.829 143.611 308.813 139.106C308.699 106.348 341.507 110.525 344.639 110.525C359.739 112.828 376.872 115.462 367.879 150.619C366.982 154.123 355.886 171.018 355.241 172.692C353.748 176.577 354.578 181.709 351.386 184.901C349.919 185.716 332.59 191.414 326.326 188.114C326.326 186.486 327.362 183.776 344.889 183.776C347.302 183.776 350.926 185.523 352.993 186.739C353.852 187.245 353.956 188.358 353.956 189.238C353.956 191.788 352.784 192.323 350.815 193.486C348.825 194.662 346.927 195.125 344.889 196.204C343.101 197.171 328.018 199.067 327.362 197.591C321.327 194.167 355.241 184.901 349.78 200.804C348.866 203.464 344.991 203.267 341.85 203.928C338.346 204.338 336.536 204.338 331.338 204.338C323.329 202.927 331.333 200.863 334.342 200.412C342.601 199.173 344.147 199.198 346.71 200.412C348.404 201.214 351.386 202.14 351.386 204.338C351.386 204.978 350.706 206.269 350.351 206.908C349.602 208.256 348.532 208.96 347.174 209.639C340.908 212.772 333.184 212.049 326.344 212.049C320.898 212.049 315.685 211.284 310.584 209.3C308.762 208.592 296.138 204.555 294.341 203.856C291.096 202.688 288.037 201.028 284.721 200.019C281.467 199.028 278.271 198.303 274.922 197.931C270.328 197.42 262.713 198.195 262.713 204.178C262.713 208.519 268.44 211.718 271.673 213.334C274.463 214.729 290.003 223.209 292.592 224.936C295.108 226.351 297.546 227.993 299.982 229.559C304.533 232.484 309.082 235.209 314.118 237.269C316.267 238.148 329.967 240.919 332.93 241.446C336.564 242.173 340.252 242.052 343.818 243.213C351.733 245.79 359.439 247.068 367.736 247.068C370.692 247.068 373.72 247.317 376.607 246.568C378.139 246.171 403.418 235.699 411.144 219.76C411.322 216.368 396.759 218.49 394.759 218.867C388.017 220.139 381.021 223.668 375.232 227.22C372.464 228.42 354.531 245.032 351.957 246.568C349.271 248.171 346.812 250.088 344.318 251.959C342.554 253.282 340.572 254.702 338.214 254.065C334.875 253.163 333.984 247.993 334.037 245.141C334.102 241.639 335.941 238.478 337.875 235.699C339.386 233.526 355.241 221.698 360.186 208.551C366.516 195.889 369.443 179.231 384.192 173.496C412.928 165.886 419.587 183.353 422.389 188.756C424.694 193.202 420.687 208.64 437.953 208.64C446.215 208.433 478 192.098 478 189.399" stroke="#6E8270" stroke-width="2.70799" stroke-linecap="round"/>
</svg>
