<svg width="661" height="428" viewBox="0 0 661 428" fill="none" xmlns="http://www.w3.org/2000/svg">
<path d="M117 227.982C118.972 227.982 146.335 226.539 169.987 192.985C173.24 189.562 177.596 180.834 183.727 182.555C185.956 183.29 186.09 181.672 201.95 207.554C217.217 229.81 256.886 220.387 268.962 213.257C276.103 209.818 282.283 189.502 283.583 183.29C284.29 179.911 296.459 138.858 301.781 119.96C302.654 117.995 303.758 115.806 304.788 113.893C306.944 109.889 308.301 105.108 309.947 100.828C310.788 98.6424 310.764 93.1529 309.947 91.0292C309.256 89.2339 308.802 87.4571 307.588 85.8963M307.588 85.8929C297.186 71.3201 284.798 88.1811 283.324 89.6552C280.12 92.8591 277.977 96.6645 275.417 100.362C272.491 105.726 252.635 136.16 247.913 140.024C227.692 156.568 227.874 155.542 225.022 157.03C222.77 158.205 212.657 162.921 212.657 157.756C212.657 153.786 215.926 150.577 218.749 147.931C229.671 137.691 245.36 112.429 250.816 108.994C256.209 105.598 310.396 100.945 316.609 100.025C320.996 99.0708 333.221 97.2018 338.385 98.1581C343.548 99.1143 348.468 100.789 353.576 101.995C357.604 102.946 370.612 105.084 375.403 105.261C381.591 105.49 393.149 111.668 408.637 114.697C414.595 115.862 424.035 117.081 424.035 123.459C424.035 126.663 422.274 129.558 420.048 131.66C417.097 134.447 403.018 133.841 398.602 133.841C394.185 133.841 376.7 132.792 372.241 132.792C352.438 131.66 357.157 156.615 358.242 161.463C359.707 168.01 364.599 172.178 366.25 173.463C368.53 175.235 372.793 177.097 375.04 192.26C375.04 195.198 373.694 202.781 372.43 205.45C368.861 212.984 364.564 214.668 362.079 222.745C361.006 226.232 360.304 229.716 358.605 233.115C357.193 235.939 355.756 240.099 352.643 241.41C349.845 242.588 345.339 242.447 342.377 242.447C339.819 242.447 337.261 242.447 334.704 242.447C328.907 242.447 323.645 241.54 320.912 235.914C319.181 232.349 316.364 220.956 314.38 218.079C312.952 216.009 311.385 214.094 309.973 212.013C308.075 209.216 298.299 186.912 298.277 180.369C298.111 132.792 345.76 138.858 350.309 138.858C372.241 142.202 397.124 146.028 384.062 197.09C382.76 202.179 366.643 226.716 365.708 229.148C363.538 234.79 364.745 242.244 360.108 246.88C357.978 248.064 332.809 256.34 323.712 251.546C323.712 249.182 325.216 245.247 350.672 245.247C354.177 245.247 359.44 247.784 362.442 249.55C363.69 250.284 363.841 251.901 363.841 253.179C363.841 256.882 362.139 257.659 359.279 259.349C356.389 261.057 353.632 261.73 350.672 263.297C348.076 264.7 326.168 267.455 325.216 265.311C316.451 260.338 365.708 246.88 357.775 269.978C356.448 273.841 350.821 273.554 346.258 274.514C341.169 275.11 338.541 275.11 330.991 275.11C319.359 273.06 330.983 270.063 335.353 269.407C347.349 267.608 349.594 267.644 353.317 269.407C355.778 270.573 360.108 271.918 360.108 275.11C360.108 276.04 359.121 277.914 358.605 278.843C357.517 280.801 355.964 281.823 353.991 282.809C344.891 287.359 333.673 286.309 323.738 286.309C315.828 286.309 308.257 285.198 300.848 282.317C298.202 281.288 279.868 275.425 277.258 274.41C272.544 272.713 268.101 270.303 263.285 268.837C258.559 267.398 253.917 266.344 249.053 265.804C242.381 265.062 231.322 266.188 231.322 274.877C231.322 281.182 239.64 285.828 244.335 288.176C248.387 290.202 270.956 302.518 274.717 305.026C278.372 307.081 281.912 309.466 285.449 311.74C292.059 315.989 298.667 319.947 305.981 322.939C309.101 324.215 328.999 328.24 333.304 329.005C338.581 330.06 343.938 329.885 349.117 331.571C360.612 335.314 371.804 337.171 383.854 337.171C388.148 337.171 392.545 337.532 396.738 336.445C398.963 335.868 435.678 320.657 446.9 297.508C447.159 292.581 426.007 295.664 423.102 296.212C413.311 298.059 403.15 303.184 394.742 308.344C390.721 310.086 364.677 334.214 360.938 336.445C357.037 338.773 353.465 341.557 349.843 344.274C347.281 346.195 344.403 348.258 340.977 347.332C336.128 346.022 334.834 338.513 334.911 334.371C335.005 329.285 337.676 324.694 340.485 320.657C342.679 317.503 365.708 300.323 372.889 281.228C382.083 262.839 386.334 238.646 407.755 230.315C449.491 219.263 459.162 244.632 463.231 252.479C466.579 258.936 460.759 281.358 485.836 281.358C497.836 281.057 544 257.332 544 253.413" stroke="#6E8270" stroke-width="3.93303" stroke-linecap="round"/>
</svg>
