<svg width="545" height="432" viewBox="0 0 545 432" fill="none" xmlns="http://www.w3.org/2000/svg">
<circle cx="474.5" cy="361.5" r="70" fill="#F2F7FF"/>
<circle cx="474.5" cy="361.5" r="70" stroke="#395996"/>
<circle cx="443" cy="176" r="49" fill="#F6F6F6"/>
<circle cx="443" cy="176" r="49" stroke="#395996"/>
<circle cx="264" cy="390" r="31" fill="#F6F6F6"/>
<circle cx="264" cy="390" r="31" stroke="#395996"/>
<path d="M483.253 350.158C482.821 349.353 482.805 341.441 470.508 333.9C469.59 333.257 468.855 332.682 467.857 332.164C467.13 331.785 465.774 331.527 465.376 330.746C464.998 330.005 464.7 329.171 464.444 328.384C464.231 327.727 463.967 327.178 463.793 326.507C463.526 325.476 463.498 324.462 463.572 323.367C463.658 322.071 464.426 320.789 465.259 319.792C465.724 319.234 466.515 318.822 467.193 318.635C467.717 318.491 468.212 318.476 468.743 318.374C469.874 318.158 473.963 318.176 475.048 317.883C475.341 317.804 475.694 317.963 475.374 317.257C475.048 315.596 469.362 315.834 467.49 316.393C466.839 316.818 463.281 319.086 463.096 319.9C462.862 320.933 462.237 321.908 462.269 323.009C462.291 323.768 462.781 325.025 463.324 325.588C463.786 326.067 464.243 326.756 465.031 326.616C465.888 326.463 465.703 325.22 465.552 324.656C465.407 324.117 464.623 322.2 465.317 321.822C465.99 321.455 466.594 321.922 467.193 322.23C467.626 322.453 468.002 322.773 468.424 323.003C469.339 323.501 469.232 322.094 469.362 321.688C469.653 320.775 470.339 320.234 471.27 320.047C472.143 319.872 473.549 319.752 474.227 320.417C474.586 320.769 474.246 321.739 474.169 322.135C474.023 322.877 473.993 323.57 473.993 324.324C473.993 325.639 475.103 326.631 475.048 327.976C475.029 328.452 473.458 328.225 473.231 328.052C472.775 327.705 472.938 328.874 472.938 329.201C472.938 329.742 472.91 330.529 472.234 330.529C471.304 330.529 470.522 330.236 469.681 329.891C469.218 329.701 468.811 329.749 468.313 329.699C467.513 329.619 466.783 329.495 465.975 329.495C465.095 329.495 464.23 329.455 463.37 329.674C462.662 329.854 462.12 330.256 461.566 330.702C461.074 331.098 460.428 331.368 460.015 331.844C458.686 333.379 457.723 335.279 457.697 337.309C457.67 339.316 457.579 341.312 457.579 343.323C457.579 344.96 457.745 346.684 457.521 348.308C457.376 349.36 457.399 350.482 457.351 351.545C457.317 352.322 457.228 353.09 457.228 353.869C457.228 354.596 457.249 355.503 456.993 356.192C456.88 356.498 456.303 355.992 456.199 355.924C455.305 355.34 455.122 353.699 455.007 352.739C454.779 350.842 454.602 349.25 453.541 347.549C453.024 346.718 451.953 345.542 450.936 345.378C450.411 345.294 449.83 345.353 449.301 345.353C448.753 345.353 447.941 345.204 447.432 345.467C446.645 345.874 446.473 347.056 446.676 347.804C447.11 349.401 450.047 349.038 451.046 348.404C451.404 348.177 451.836 348.072 452.245 347.938C453.02 347.685 453.72 347.236 454.505 347.012C456.222 346.524 458.091 346.354 459.872 346.387C461.083 346.409 461.795 347.787 461.917 348.806C462.069 350.069 462.161 351.345 462.562 352.566C462.939 353.716 465.037 353.741 465.982 353.741C467.346 353.741 468.726 353.809 470.085 353.683C471.344 353.567 472.488 353.222 473.732 353.051C475.651 352.789 479.549 352.1 480.852 354.086C481.292 354.758 481.943 355.326 482.317 356.039C483.04 357.417 483.972 358.54 484.988 359.716C486.123 361.031 487.727 361.307 489.351 361.785C491.32 362.363 493.212 363.185 495.181 363.783C499.48 364.645 501.805 373.035 502.072 374.699C502.449 375.776 501.457 377.202 500.606 376.633C500.124 376.311 499.736 375.364 499.48 374.84C498.852 373.555 498.429 372.255 498.144 370.862C497.964 369.976 497.768 369.117 497.649 368.219C497.546 367.438 497.473 366.065 496.913 365.455C496.595 365.108 496.685 364.722 496.19 364.645C495.378 364.517 494.555 364.077 493.728 363.904C492.634 363.675 491.549 363.379 490.465 363.106C489.752 362.926 488.909 362.871 488.231 362.589C487.338 362.217 486.12 361.931 485.613 361.019C485.248 360.362 485.229 359.248 485.248 358.503C485.261 357.991 485.521 357.752 485.893 357.424C486.474 356.914 487.357 356.881 488.114 356.85C489.118 356.808 490.01 356.561 490.993 356.409C492.165 356.228 493.472 356.384 494.653 356.384C495.535 356.384 496.416 356.384 497.298 356.384C498.141 356.384 499.012 356.323 499.851 356.409C500.577 356.484 501.187 356.853 501.805 357.207C502.7 357.721 505.881 363.106 506.117 364.14C507.172 366.837 508.079 369.522 508.696 372.356C509.436 375.754 509.071 379.49 508.344 382.851C508.136 383.813 507.928 384.885 507.348 385.711C507.039 386.15 506.72 386.535 506.469 387.014C506.128 387.663 505.63 387.754 504.879 387.62C502.942 387.275 502.826 383.851 502.691 382.392C502.557 380.95 502.411 379.694 503.336 378.485C503.827 377.843 504.756 377.892 505.452 378.223C506.183 378.57 506.918 378.815 507.667 379.136C508.567 379.522 509.494 379.84 510.39 380.228C511.466 380.694 512.641 380.776 513.737 381.179C514.782 381.563 515.808 381.765 516.903 381.983C517.664 382.134 518.427 382.344 518.427 383.215C518.427 383.621 518.56 384.263 518.375 384.626C518.107 385.152 517.029 385.243 516.545 385.328C515.564 385.501 514.549 385.531 513.588 385.801C512.731 386.04 504.843 389.898 504.059 390.282C501.492 391.951 502.164 391.12 501.492 392.28C501.115 392.931 501.196 393.627 501.102 394.355C500.985 395.254 500.872 395.966 500.476 396.794C499.398 399.052 497.413 398.766 496.243 396.896C495.828 396.233 495.466 395.47 495.389 394.7C495.326 394.062 495.145 393.077 495.552 392.529C496.055 391.853 496.884 391.349 497.68 391.228C498.393 391.119 498.805 390.984 499.545 390.984C501.481 390.984 502.556 393.332 502.775 394.878C502.929 395.961 503.159 397.443 502.209 398.287C500.741 399.593 498.231 400.105 496.295 400.164C492.595 400.278 483.205 398.997 479.49 399.247M479.842 399.219C478.584 399.329 477.294 399.328 476.032 399.411C475.011 399.478 469.754 398.954 468.756 398.696M468.756 398.696C477.607 398.6 484.038 393.204 484.851 392.51C486.187 391.37 487.644 390.442 488.205 388.686C488.481 387.823 488.753 386.964 488.935 386.075C489.186 384.841 489.086 383.538 489.26 382.289C489.538 380.304 489.647 378.475 489.404 376.461C489.231 375.035 489.233 373.449 488.824 372.069C488.558 371.171 488.321 369.923 487.801 369.139C487.448 368.606 487.136 368.032 486.772 367.504C480.166 357.931 473.448 358.452 472.013 358.452C467.69 358.452 464.371 359.144 460.686 360.348C459.87 360.615 458.993 360.706 458.283 361.21C457.756 361.584 457.126 361.866 456.635 362.251C455.769 362.93 455.175 363.823 454.414 364.606C453.805 365.232 453.233 365.982 452.851 366.764C452.532 367.416 452.151 367.959 451.698 368.532C450.835 369.625 450.405 370.611 450.011 371.935C449.457 373.795 449.138 375.784 449.138 377.725C449.138 379.18 449.414 380.653 449.724 382.072C449.81 382.463 450.005 382.81 450.05 383.209C450.082 383.498 450.047 383.781 450.141 384.058C450.62 385.466 451.977 389.934 453.007 391.106C453.335 391.775 459.079 395.853 459.702 396.134M468.756 398.696C467.93 399.041 467.185 399.015 466.294 399.015C465.457 399.015 464.621 399.13 463.793 399.13C462.046 399.13 449.196 399.524 447.432 399.411M469.147 398.67C467.996 398.67 466.592 398.884 465.467 398.6C463.333 398.062 461.388 397.256 459.099 395.768" stroke="#35507A" stroke-width="0.807692" stroke-linecap="round"/>
<circle cx="269.5" cy="70.5" r="70" fill="#F3E6D9"/>
<circle cx="269.5" cy="70.5" r="70" stroke="#7B6251"/>
<circle cx="70.5" cy="355.5" r="70" fill="#FFECE0"/>
<circle cx="70.5" cy="355.5" r="70" stroke="#D65A00"/>
<path d="M305.725 111.093C303.704 111.093 301.79 110.921 299.784 110.754C298.874 110.678 297.972 110.577 297.069 110.491C296.654 110.451 295.871 110.661 295.533 110.397C294.767 109.802 293.165 109.581 293.165 108.42C293.165 107.423 294.388 106.239 294.964 105.442C295.865 104.195 296.067 103.028 296.067 101.546C296.067 100.788 295.688 100.312 295.337 99.6709C294.653 98.4191 294.236 96.9745 293.895 95.5975C293.493 93.9763 293.051 92.3717 293.012 90.6925C292.981 89.3352 293.165 88.0271 293.165 86.653C293.165 83.1256 291.906 79.7068 291.646 76.1895C291.608 75.6734 291.722 75.199 291.451 74.7383C291.017 74.0001 290.608 75.8074 290.568 75.9604C290.304 76.987 290.33 78.1467 289.957 79.1342C289.621 80.0234 289.226 80.9292 289.041 81.8668C288.571 84.2388 288.277 86.4512 288.277 88.8594C288.277 90.6724 288.409 92.5245 288.616 94.3246C288.792 95.8453 289.465 97.296 289.643 98.8138C289.754 99.7527 289.804 100.83 289.804 101.775C289.804 102.199 289.847 102.714 289.567 103.074C288.799 104.062 287.123 104.091 286.087 104.678C285.63 104.937 283.686 106.228 284.798 106.969C285.307 107.309 286.073 107.352 286.648 107.427C287.994 107.603 289.37 107.733 290.729 107.733C291.441 107.733 292.319 107.87 293.004 107.656C294.369 107.23 295.769 106.702 297.145 106.358C297.88 106.174 298.538 105.686 299.275 105.475C299.79 105.328 300.279 105.286 300.803 105.17C301.648 104.982 302.581 105.393 303.221 104.593C303.657 104.048 303.705 103.403 303.705 102.743C303.705 101.085 303.705 99.4276 303.705 97.77C303.705 95.5264 303.259 93.1728 303.06 90.9301C302.776 87.7408 302.603 84.6092 301.957 81.4679C301.587 79.6733 301.94 77.6591 301.091 75.9604C300.146 74.0693 299.097 72.6115 297.357 71.4627C295.926 70.5177 294.953 69.6975 293.199 69.6975C291.969 69.6975 290.74 69.3582 289.499 69.6296C287.866 69.9867 286.911 69.8497 285.561 68.9338C284.262 68.0521 283.391 66.7345 282.006 65.9551C280.874 65.3185 280.656 65.309 279.723 66.3455C279.017 67.1295 278.186 67.7214 277.584 68.5943C277.275 69.0433 276.835 69.3015 276.362 69.5448C275.011 70.2396 273.706 70.9117 272.204 71.1911C270.653 71.4797 269.151 72.0453 267.647 72.5319C265.768 73.1397 264.156 74.2355 262.309 74.8232C260.588 75.3708 255.741 77.1726 255.741 73.8982C255.741 72.8454 257.391 72.1351 258.253 72.0228C260.336 71.7511 262.489 71.6833 264.6 71.6833C265.838 71.6833 267.247 72.3442 268.114 73.2108C269.56 74.6575 269.3 76.2615 269.718 78.0989C270.548 81.7532 270.927 85.5433 271.288 89.2837C271.684 93.4007 271.016 97.5501 271.016 101.657C271.016 103.16 270.921 104.631 270.855 106.129C270.802 107.323 270.558 110.897 270.558 109.702C270.558 107.915 270.252 106.136 270.252 104.338C270.252 102.761 270.278 101.181 270.252 99.603C270.224 97.8772 269.942 95.9673 269.259 94.3755C268.832 93.3785 267.191 92.4277 266.357 91.7787C265.561 91.1593 264.37 90.9301 263.378 90.9301C262.381 90.9301 261.556 90.738 260.612 90.6331C259.886 90.5524 259.216 90.3097 258.49 90.2003C257.638 90.0716 256.721 90.1663 255.86 90.1663C254.3 90.1663 252.716 90.0821 251.158 90.1663C250.248 90.2155 249.119 91.1361 248.485 91.7702C247.851 92.404 248.066 93.1134 247.942 93.9851C247.505 97.0412 247.492 100.197 247.492 103.303C247.492 104.333 247.29 105.087 248.035 105.832C248.9 106.697 249.631 107.342 249.631 108.649C249.631 110.208 247.77 111.453 246.423 111.933C245.364 112.312 243.805 112.079 243.096 111.212C242.566 110.564 242.405 108.446 242.791 107.767C243.439 106.626 244.674 106.037 245.277 104.831C245.596 104.193 245.624 103.393 245.668 102.692C245.738 101.573 245.997 100.455 246.109 99.3399C246.198 98.4439 246.117 97.4981 246.117 96.5989C246.117 94.9497 246.423 93.3459 246.423 91.6938C246.423 90.264 246.761 88.8225 247 87.4168C247.213 86.1619 247.339 85.0755 247.339 83.7847C247.339 81.9758 247.645 80.1219 247.789 78.3195C247.921 76.6714 248.237 75.246 249.011 73.7624C249.414 72.9913 250.372 72.3811 251.192 72.1076C251.62 71.9649 253.628 71.462 253.755 72.1416C253.914 72.9886 260.458 69.4669 261.24 69.0865C262.164 68.6371 263.037 68.1248 263.981 67.7117C264.735 67.3819 265.841 66.646 266.654 66.4982C267.645 66.3181 269.876 65.5113 270.32 64.4955C270.912 63.1425 270.987 61.3436 271.016 59.8875C271.045 58.4335 271.59 56.1732 271.135 54.6939C270.577 52.8813 269.682 56.289 269.556 56.7221C269.264 57.7335 268.852 58.7113 268.496 59.7008C268.087 60.8361 267.352 61.7493 266.815 62.8237C266.184 64.0871 264.775 64.4695 263.65 65.1489C261.688 66.3342 259.557 67.5175 257.803 69.0017C257.42 69.3255 257.002 69.6375 256.657 70.003C256.212 70.4743 257.585 70.3085 257.845 70.3085C259.73 70.3085 261.254 69.3631 263.039 68.9338C264.562 68.5673 266.096 67.9577 267.511 67.3384C269.09 66.6476 270.313 66.2022 271.347 64.7161C272.273 63.3842 273.338 62.2122 274.19 60.8379C275.408 58.8726 276.432 56.9349 277.432 54.8806C278.251 53.1958 279.932 51.4742 281.785 50.9939C283.658 50.5083 284.97 51.6249 286.444 52.5893C288.564 53.9772 290.413 55.7272 292.478 57.1634C293.801 58.0837 294.872 59.232 296.144 60.2269C297.432 61.2351 298.293 62.6629 299.631 63.6384C300.157 64.0214 300.591 64.1527 300.073 63.4347C299.372 62.4639 298.735 61.4637 298.019 60.4985C296.272 58.1443 294.09 55.8261 291.79 54.032C290.383 52.9344 289.231 51.544 287.691 50.6205C286.74 50.0498 286.087 49.0342 285.103 48.4141C283.828 47.6099 282.419 47.2918 281.098 46.6659C279.423 45.8726 277.252 46.1737 275.42 46.1737C273.312 46.1737 271.458 46.2426 269.828 44.6122C269.501 44.2852 269.158 43.6618 269.37 43.1866C269.663 42.5269 271.275 43.244 271.61 43.3902C272.703 43.867 273.827 44.6079 274.996 44.8583C275.453 44.9564 277.135 45.3957 277.576 45.0281C279.206 43.6692 274.579 42.0763 273.91 41.5742C272.975 40.8731 272.461 39.8881 271.746 38.9944C271.064 38.1416 270.891 37.1293 270.286 36.2448C269.83 35.5788 269.402 34.9132 268.911 34.259C268.376 33.5451 267.611 33.0081 267.112 32.2733C266.417 31.2497 265.833 30.7778 264.762 30.1347C264.168 29.7784 263.472 28.9995 262.767 28.9212C261.272 28.755 259.547 29.3051 258.338 30.1687C257.342 30.8797 256.024 31.6248 254.867 32.0357C254.055 32.3236 253.072 32.4082 252.219 32.5788C251.585 32.7056 250.684 32.6834 250.165 33.1219C249.114 34.0111 249.671 36.3754 249.444 37.6535C249.382 38.0029 249.087 39.081 249.478 39.3338C250.464 39.9718 251.799 39.8943 252.957 39.9109C253.677 39.9212 254.476 39.8096 255.189 39.9194C255.681 39.995 256.152 40.4698 256.666 40.5983C257.355 40.7706 259.513 41.0366 259.857 40.2928C260.13 39.7006 260.182 39.1002 260.408 38.5191C260.628 37.9543 260.811 37.0833 261.46 36.8558C262.467 36.5035 263.602 37.7401 263.989 38.5361C264.241 39.0532 264.743 40.8555 263.607 40.437C262.967 40.201 262.572 39.4683 262.004 39.1132C261.863 39.0254 261.56 38.4929 261.732 39.0283C261.947 39.6964 262.214 40.3574 262.462 41.0141C263.044 42.5539 264.142 43.83 264.142 45.4863C264.142 46.5563 262.499 47.0008 261.69 47.0817C260.024 47.2483 258.674 45.9672 257.659 44.765C256.436 43.3168 255.196 41.883 254.06 40.3691" stroke="#7B6251" stroke-width="0.807692" stroke-linecap="round"/>
<path d="M22.0898 362.601C22.9701 362.33 27.8188 361.657 28.7045 361.448C28.9575 361.34 28.2392 363.175 28.2141 363.263C28.0119 363.971 25.875 365.871 32.3521 366.794C32.8363 366.794 33.1677 366.839 33.5598 366.518C34.0724 366.099 35.6525 353.594 35.8832 353.001C36.2911 351.859 36.4084 350.556 36.8212 349.421C37.1102 348.626 44.0145 345.873 44.6558 345.552C45.4544 345.153 46.9485 344.676 48.0765 342.738C48.6155 342.199 49.0272 341.587 49.5356 341.022C50.869 339.54 52.7893 338.408 54.6115 337.663C55.226 337.411 56.0202 337.278 56.6775 337.227C57.0982 337.195 57.5474 337 57.9526 337C58.5862 337.043 60.0679 341.991 60.4532 342.162C62.1666 342.722 65.81 340.239 67.0618 338.987C67.8364 338.212 69.1528 337.146 69.1528 336.093M69.1528 336.093C69.1528 334.975 68.7497 333.562 67.5834 333.114C67.4327 333.056 66.5965 332.678 66.5106 332.979C66.3689 333.475 66.3555 333.651 66.7313 334.027C67.3766 334.673 68.1955 335.592 69.0976 335.793L69.5942 332.366M69.1528 336.093C69.4085 336.743 70.4225 340.304 70.5383 340.476C71.0582 341.897 71.9637 342.383 72.9598 342.843C73.3659 343.03 73.8418 342.959 74.2778 342.959C74.8285 342.959 75.4545 342.603 75.9943 342.495C76.2756 342.439 78.4075 341.863 77.9131 342.44C77.0281 343.472 75.5258 344.33 75.4426 345.828C75.4187 346.257 75.3322 346.671 75.3322 347.128C75.3322 347.573 75.3196 348.252 75.1973 348.673C75.1655 348.782 74.8649 349.406 75.0686 349.451C75.2792 349.498 75.7967 349.164 75.9943 349.083C76.7858 348.76 77.4641 348.228 78.189 347.79C79.7515 346.846 81.2209 345.812 82.7255 344.786C83.778 344.068 85.0202 343.533 85.9316 342.622C86.5659 341.988 88.0271 340.776 87.6665 339.735C87.5354 339.356 86.9627 338.977 86.6489 338.741C85.9691 338.232 85.1 337.639 84.6014 336.951C83.8238 335.88 82.976 334.916 82.3454 333.745C82.0328 333.165 81.9656 332.548 81.5116 332.029C80.7727 331.184 80.0519 330.406 79.1882 329.656C77.9405 328.573 76.3778 327.445 75.6694 325.911C75.0243 324.513 73.7646 323.233 72.6839 322.153C70.9053 320.374 69.7254 322.629 68.9566 324.09C68.315 325.309 67.5486 326.864 68.0003 328.283C68.2093 328.94 68.4774 329.564 68.7114 330.208C68.9731 330.928 68.9314 329.485 68.9382 329.356C68.9835 328.496 69.1177 327.67 68.9566 326.824C68.8724 326.382 68.7566 325.82 68.7114 325.414C68.5981 324.394 68.1597 323.357 68.1597 322.312C68.1597 321.364 68.4561 320.692 68.9811 319.933C69.4626 319.238 75.1896 316.749 75.9207 316.366C77.3068 315.835 83.6458 313.029 89.4995 321.049C95.4586 329.214 94.1702 334.235 93.4843 335.836C93.2512 336.38 92.8762 336.829 92.4973 337.276C91.9935 337.431 89.8716 339.445 89.3708 339.624C89.0345 339.744 88.4438 340.196 88.2673 340.532C88.0451 340.954 88.7891 341.366 89.1501 341.5C90.3383 341.94 91.5707 342.269 92.767 342.683C93.5995 342.971 94.2989 343.278 95.0843 343.67C98.0882 345.856 97.9513 348.384 98.0882 349.114C98.4244 350.907 98.3699 352.639 98.2844 354.435C98.0882 364.011 93.8376 379.292 93.4414 380.348C93.249 380.861 93.1594 381.39 92.9877 381.906C92.8298 382.379 92.8238 382.946 92.5463 383.371C92.1442 383.986 91.742 384.259 91.1363 384.67C90.4884 385.11 89.5252 385.432 88.77 385.663C87.4999 386.053 86.2282 386.248 84.9079 386.326C84.0607 386.375 83.2491 386.887 82.3944 386.981C81.3545 387.097 80.3502 387.382 79.2924 387.435C76.4841 387.576 73.7235 387.76 70.9122 387.76C69.7413 387.76 68.5704 387.76 67.3995 387.76C65.5205 387.76 63.6252 387.966 61.7595 387.735C60.4178 387.57 58.6133 387.694 57.6767 386.497C57.0599 385.709 57.2174 380.93 57.5112 379.932C57.6967 379.189 58.4341 378.739 59.1603 378.607C61.4076 378.199 63.6813 377.959 65.9282 377.633C66.4029 377.564 67.0917 377.66 67.0562 377.056C67.0374 376.736 66.292 376.544 66.0631 376.48C64.1253 375.942 62.3874 374.694 60.5519 373.918C59.8032 373.724 55.2871 371.767 54.5625 371.502C54.0414 371.312 53.1525 371.023 53.1525 371.754C53.1525 372.086 59.1603 375.07 60.4354 375.07C61.1411 375.07 63.0671 374.758 63.7703 373.256C64.2808 372.596 65.3076 366.393 64.2975 365.078C62.9925 364.526 63.3581 370.516 63.5864 371.429C63.8046 372.301 64.1151 373.129 64.5366 373.93C64.8548 374.534 65.4446 374.828 66.0079 375.131C66.8431 375.581 67.6886 376.001 68.6011 376.284C69.5765 376.587 70.4246 376.238 71.3107 375.855C73.3494 374.974 77.9083 373.701 80.0894 373.305C80.8756 373.192 84.6844 372.191 84.9263 373.642C85.0347 374.293 84.6634 374.347 84.0619 374.402C83.0666 374.492 88.8328 356.012 91.4429 352.621C91.9649 351.688 92.6225 350.64 93.5946 350.138C95.8253 348.987 96.4085 353.442 96.4085 354.821C96.4085 357.977 94.0421 373.276 93.7356 376.443C93.231 378.566 93.1923 380.78 92.9509 382.942C92.8545 383.805 92.8199 384.694 92.9632 385.553C92.9907 385.718 93.0022 386.167 93.1226 386.301C93.2873 386.484 93.6583 386.634 93.8705 386.742C94.4471 387.036 94.9437 387.433 95.5012 387.76C96.1284 388.128 96.7641 388.434 97.4016 388.753M70.1459 332.985C69.9779 332.712 69.6775 332.302 69.4593 332.059C69.1526 331.719 69.4703 332.226 69.5942 332.366M69.5942 332.366C69.8903 332.699 71.4398 334.771 71.6662 333.715C71.8536 332.84 70.9755 332.091 70.2379 331.759C69.5432 331.446 67.9423 331.428 67.4976 332.206M67.4976 332.206C67.2359 332.665 66.5329 332.912 66.1121 333.224C65.35 333.79 64.6323 334.433 63.8807 335.014C63.0692 335.641 62.246 336.161 61.5143 336.866C61.017 337.344 60.5017 337.835 60.0614 338.374C59.6946 338.822 60.2894 339.114 60.6929 338.925C61.0762 338.286 64.4903 334.558 64.5182 333.776C64.5388 333.199 64.5372 332.786 63.9665 332.476C63.7995 332.386 62.5132 331.097 62.7997 330.778C63.2302 330.3 64.2994 330.157 64.8595 330.208C65.2694 330.245 67.1816 332.026 67.4976 332.206ZM68.2379 331.679C64.5182 330.208 59.3319 334.027 57.3212 336.007C56.3873 336.352 55.6588 335.897 54.7219 335.897C54.307 335.897 53.8922 335.897 53.4774 335.897C52.6729 335.897 52.0029 336.431 51.3072 336.792C49.9635 337.489 46.5658 338.887 41.9829 342.187C41.4667 342.558 40.5014 342.921 40.9101 343.67C41.1016 344.021 42.0593 344.01 42.3937 344.112C42.8279 344.244 43.2719 344.32 43.7117 344.4C44.7991 344.598 45.8206 345.056 46.9485 345.056C48.2974 345.056 51.2766 345.143 54.7464 343.566C55.7009 343.132 56.8611 343.29 57.8851 343.29C58.8032 343.29 59.2774 343.223 59.3319 342.187C59.3711 341.443 59.1464 341.709 58.8905 342.162C58.6606 342.57 58.6145 342.835 58.535 343.094C58.1154 344.458 57.8913 345.708 57.0146 346.907C55.8974 348.436 48.1735 350.902 47.1386 351.401C46.8793 351.526 46.4296 351.669 46.7615 352.038C47.0082 352.312 48.4127 352.455 48.7938 352.455M54.8077 354.028C54.8077 354.761 54.841 356.768 54.8077 357.5C54.7892 357.907 54.2625 358.331 53.8759 358.402C53.6816 358.437 53.1681 358.606 52.9931 358.506C52.7155 358.347 52.6159 357.381 52.5456 357.071C52.3827 356.354 52.2697 355.402 52.2697 354.662C52.2697 354.382 52.2747 353.884 51.9387 353.884C51.5621 353.884 51.2608 353.838 50.9701 354.129C50.6555 354.443 50.5179 355.067 50.4183 355.49C50.3097 355.951 50.1232 356.383 49.977 356.838C49.7624 357.506 49.7288 357.635 48.9654 357.635C48.3347 357.635 47.813 357.668 47.3654 357.139C46.7258 356.383 47.2157 354.702 47.4696 353.89C47.7074 353.129 48.5148 352.115 49.4007 352.535C50.1745 352.736 52.9262 353.598 53.7042 353.798C54.292 353.949 55.4964 354.245 56.0767 353.933C56.7255 353.583 57.5843 351.863 56.5242 351.56C55.2497 351.196 53.7998 350.976 52.4414 350.904C51.351 350.847 50.3706 350.329 49.3517 350.021C48.4055 349.736 38.8622 347.243 37.8817 347.165C33.5353 346.528 36.4726 344.493 36.8457 344.234C37.4133 343.841 37.9338 343.605 38.5867 343.352C38.8538 343.248 39.6563 343.125 39.4082 343.621C39.2225 343.993 35.7116 345.465 35.3595 345.632C34.192 345.887 34.5403 345.955 33.5353 346.601C32.4191 347.318 31.5199 348.018 31.4142 349.445C31.4142 350.486 31.5418 351.055 31.9659 351.008C32.9264 350.902 35.0322 350.045 35.957 349.814M34.9114 350.139C34.7861 350.162 32.2586 351.437 32.6893 351.56C32.9747 351.642 33.3367 351.763 33.6211 351.897C33.9782 352.066 35.8004 352.545 35.828 352.78C35.9417 353.746 33.7663 352.738 33.5107 352.621C32.9482 352.362 32.2923 352.112 31.6839 352.001C31.385 351.947 30.6437 351.605 30.372 351.683C30.3087 351.701 30.2003 352.528 30.2003 352.615C29.4279 355.294 27.3313 362.495 27.3313 364.035C27.3313 364.483 27.548 364.371 27.8831 364.538C28.4075 364.8 28.8804 365.196 29.4279 365.409C31.0281 366.031 35.5531 367.488 36.6863 368.229C39.3179 370.576 41.7825 375.07 41.7825 375.07C42.1722 374.516 43.4316 373.746 44.104 373.746C45.5118 373.746 46.7435 374.553 47.2183 375.977C47.3034 376.233 47.3151 376.767 47.4696 376.952C47.5244 377.018 47.6528 377.795 47.629 377.878C40.9609 377.253 41.3562 377.832 41.3454 378.049C41.2962 379.033 46.7052 380.524 47.5187 380.753C47.6308 380.781 48.7045 380.847 48.2421 380.477C47.3041 379.727 41.4557 379.441 41.4557 380.201C41.4557 381.215 43.7205 381.895 44.5393 382.181C45.4947 382.516 46.603 382.783 47.5248 383.04C47.9356 383.213 48.0974 383.08 48.0765 382.684C48.0557 382.288 47.0344 382.132 47.0344 382.132C46.0911 382.132 42.5293 381.629 42.2282 382.376C41.927 383.122 45.1432 384.276 45.1432 384.276L48.5118 385.608C50.3372 385.546 47.442 384.526 46.9056 384.443C46.0768 384.316 45.0736 383.944 44.4596 384.695C43.7525 385.559 46.2404 386.559 46.642 386.657C48.0392 386.996 49.5598 386.877 50.9946 386.877C51.6301 386.877 52.2656 386.877 52.9011 386.877C53.6356 386.877 54.7484 386.914 55.4085 386.601C55.8637 386.386 56.2431 386.125 56.7081 385.97C57.3235 385.765 57.9046 385.59 57.9832 384.866C58.065 384.114 57.9554 383.45 57.5909 382.794C57.014 381.618 56.3748 379.238 55.6292 378.154C54.8199 376.977 53.4481 376.084 52.2207 375.407C51.6348 375.084 51.0352 374.923 50.4183 374.69C49.7142 374.424 49.0302 374.069 48.2972 373.881C47.6908 373.725 47.1864 373.636 46.5562 373.636C46.1814 373.636 46.2396 374.306 46.3355 374.604C46.5281 375.204 47.2498 375.788 47.6903 376.229C48.2778 376.816 48.921 377.636 49.6766 377.994C49.8562 378.079 51.8276 378.785 51.9325 378.313C52.1744 377.225 50.6074 377.277 49.9524 377.277C49.5487 377.277 47.7962 377.527 47.5493 377.253C47.4077 377.095 47.5552 376.549 47.4696 376.327C47.1627 375.529 47.3041 374.427 47.3041 373.574C47.3041 372.181 47.1759 370.824 47.0895 369.442C46.9608 367.383 46.9304 365.09 47.1692 363.03C47.3118 361.8 46.6317 361.377 45.6489 360.86C45.357 360.706 44.919 360.284 44.5516 359.836C44.4703 359.565 42.6038 357.795 48.7938 357.519C50.0655 357.236 51.4558 356.973 52.7724 356.973C53.7985 356.973 54.7108 356.311 55.715 356.311C56.7576 356.311 57.3776 356.626 58.2162 357.139C59.3999 357.862 63.89 360.167 64.3834 361.277C64.6165 361.801 64.6988 362.786 64.1381 363.067C62.6413 363.815 60.8588 363.784 59.2767 364.311C58.0214 364.73 56.7232 364.981 55.4698 365.415C55.1412 365.529 54.103 366.117 53.7594 365.85C52.2237 364.656 50.1663 363.5 48.2604 363.177C47.901 363.116 46.7986 363.151 46.9976 362.576C47.0767 362.348 47.4377 361.699 47.6351 361.547C48.0295 361.242 49.1853 361.598 49.5969 361.694C50.0997 361.868 54.2278 363.441 54.3418 364.011C54.4094 364.349 54.2908 365.238 53.8391 364.673C53.0614 363.701 56.0882 362.706 56.4629 362.601C58.1966 362.115 60.0036 362.376 61.7534 361.939C62.2128 361.824 63.0184 361.716 63.3657 361.387C63.5436 361.219 62.8807 360.743 62.7527 360.615C61.5124 359.374 59.7698 358.582 58.2162 357.795C57.6313 357.498 56.8274 357.011 56.187 356.869C55.495 356.715 54.5644 357.253 53.9372 357.47C53.475 357.63 52.9708 357.749 52.4904 357.856C51.8982 357.988 51.7431 357.932 52.4046 358.101C52.7704 358.195 53.1423 358.482 53.4835 358.653C54.1057 358.964 54.7138 359.308 55.3594 359.573C55.8621 359.778 56.7647 359.909 57.1863 360.284C57.5723 360.627 54.3871 361.678 54.1027 361.816C53.855 361.892 53.4219 361.391 53.2015 361.271C51.5657 360.045 47.1268 359.201 46.5317 358.874C45.9585 358.632 46.2006 360.003 46.2006 360.284C46.2006 362.721 46.1453 365.169 46.0903 367.591C46.0776 368.15 46.0903 368.711 46.0903 369.271C46.0903 370.126 46.9943 369.994 47.7394 369.994C48.331 369.994 50.5956 368.39 50.9517 367.836C51.901 366.84 53.1019 366.646 54.4153 366.549C55.3705 366.478 56.0924 366.42 56.9901 366.708C57.6698 366.927 58.412 367.506 57.2108 367.787C56.1362 368.038 55.0396 368.131 53.9433 368.222C53.5432 368.256 53.1108 368.16 53.5387 367.732C54.2589 367.012 55.6461 367.28 56.4077 366.518C56.708 366.218 56.5068 365.137 56.751 365.029C57.2784 364.794 57.8203 364.587 58.3388 364.342C58.9933 364.033 59.6638 363.756 60.3128 363.435C60.9551 363.116 62.0486 362.801 62.4829 362.184C62.6695 361.919 62.532 361.272 62.532 360.97C62.532 360.419 62.5311 359.883 62.6423 359.34C62.9496 357.837 63.9478 353.836 64.365 352.363C64.7399 351.155 65.1508 349.923 65.5788 348.734C66.4986 346.179 67.828 343.481 70.6609 342.702C71.9539 342.346 73.3954 342.467 74.7192 342.322C75.807 342.202 76.9978 342.187 78.0909 342.187M78.0909 342.187C78.4957 342.187 78.8344 342.194 79.2189 342.052C80.2532 341.669 81.2815 340.716 81.7752 339.765C82.0498 339.216 83.6797 336.445 82.0572 336.626C81.0172 336.939 78.5265 338.761 78.0909 342.187Z" stroke="#CB6700" stroke-width="0.807692" stroke-linecap="round"/>
<path d="M27.6633 364.377C27.3861 364.155 25.9511 366.75 25.8768 367.056C24.9113 371.025 22.5367 377.157 23.5557 381.106C24.3032 381.551 29.6258 384.655 30.3152 385.177C31.2015 385.848 33.1107 386.943 33.1107 386.943C33.3268 387.137 33.576 387.306 33.8218 387.47C33.9835 387.578 34.1495 387.717 34.3245 387.801C34.6754 387.97 34.9125 386.516 34.9498 386.354C35.874 382.331 35.4304 378.119 35.1705 373.989C35.1211 373.737 34.7088 371.425 34.3429 371.997C33.6424 373.091 34.018 374.609 34.018 376.251C34.018 378.343 34.6034 381.563 34.7414 382.627C34.9492 384.23 34.9586 387.911 37.3284 387.911C38.1293 387.911 38.4179 387.594 38.9775 387.035C39.6764 386.336 38.4924 371.151 38.4924 370.202" stroke="#CB6700" stroke-width="0.807692" stroke-linecap="round"/>
<path d="M145.246 264.036C146.38 264.036 162.107 263.207 175.701 243.922C177.571 241.954 180.075 236.937 183.598 237.927C184.88 238.349 184.957 237.419 194.073 252.295C202.847 265.087 225.648 259.671 232.589 255.573C236.693 253.596 240.245 241.919 240.992 238.349C241.399 236.407 248.393 212.811 251.452 201.949C251.954 200.82 252.588 199.561 253.18 198.462C254.42 196.161 255.199 193.412 256.145 190.953C256.629 189.696 256.615 186.541 256.145 185.321C255.749 184.289 255.487 183.267 254.79 182.37M254.79 182.368C248.811 173.992 241.691 183.684 240.843 184.531C239.002 186.372 237.77 188.56 236.299 190.684C234.617 193.768 223.204 211.26 220.49 213.481C208.868 222.99 208.973 222.4 207.334 223.255C206.039 223.931 200.226 226.641 200.226 223.673C200.226 221.391 202.106 219.547 203.728 218.026C210.006 212.14 219.023 197.62 222.159 195.646C225.259 193.694 256.404 191.02 259.975 190.491C262.496 189.943 269.523 188.868 272.491 189.418C275.458 189.968 278.286 190.93 281.222 191.623C283.537 192.17 291.014 193.399 293.768 193.501C297.324 193.632 303.967 197.183 312.869 198.924C316.294 199.594 321.72 200.294 321.72 203.96C321.72 205.802 320.707 207.466 319.428 208.674C317.732 210.276 309.639 209.928 307.101 209.928C304.563 209.928 294.513 209.324 291.95 209.324C280.568 208.674 283.28 223.017 283.904 225.803C284.746 229.567 287.557 231.962 288.507 232.7C289.817 233.719 292.267 234.79 293.559 243.504C293.559 245.193 292.785 249.552 292.059 251.086C290.007 255.416 287.538 256.384 286.109 261.027C285.492 263.03 285.089 265.033 284.112 266.986C283.301 268.61 282.475 271.001 280.686 271.754C279.077 272.432 276.488 272.35 274.785 272.35C273.315 272.35 271.845 272.35 270.375 272.35C267.043 272.35 264.019 271.829 262.448 268.596C261.453 266.546 259.834 259.998 258.693 258.345C257.873 257.155 256.972 256.054 256.16 254.858C255.069 253.25 249.451 240.431 249.438 236.67C249.343 209.324 276.73 212.811 279.345 212.811C291.95 214.733 306.252 216.932 298.744 246.281C297.996 249.206 288.733 263.309 288.195 264.707C286.948 267.949 287.641 272.233 284.977 274.898C283.752 275.579 269.286 280.335 264.057 277.58C264.057 276.221 264.921 273.96 279.553 273.96C281.568 273.96 284.592 275.418 286.318 276.433C287.035 276.855 287.122 277.784 287.122 278.519C287.122 280.647 286.144 281.094 284.5 282.065C282.839 283.047 281.254 283.433 279.553 284.334C278.061 285.141 265.469 286.724 264.921 285.492C259.884 282.634 288.195 274.898 283.636 288.174C282.873 290.395 279.638 290.23 277.016 290.782C274.091 291.124 272.58 291.124 268.241 291.124C261.555 289.946 268.236 288.223 270.748 287.846C277.643 286.812 278.934 286.833 281.073 287.846C282.488 288.516 284.977 289.289 284.977 291.124C284.977 291.658 284.409 292.736 284.112 293.27C283.487 294.395 282.594 294.982 281.46 295.549C276.23 298.164 269.782 297.561 264.072 297.561C259.526 297.561 255.174 296.922 250.916 295.266C249.395 294.675 238.857 291.305 237.357 290.722C234.648 289.747 232.094 288.361 229.326 287.518C226.609 286.692 223.941 286.086 221.146 285.775C217.311 285.349 210.954 285.996 210.954 290.99C210.954 294.614 215.735 297.284 218.434 298.634C220.763 299.798 233.735 306.877 235.897 308.319C237.997 309.5 240.032 310.87 242.065 312.178C245.864 314.62 249.662 316.895 253.866 318.614C255.659 319.348 267.096 321.661 269.57 322.101C272.604 322.708 275.682 322.607 278.659 323.576C285.266 325.727 291.699 326.794 298.625 326.794C301.093 326.794 303.62 327.002 306.03 326.377C307.309 326.046 328.412 317.303 334.861 303.998C335.01 301.166 322.853 302.938 321.183 303.253C315.556 304.314 309.716 307.26 304.883 310.226C302.572 311.227 287.602 325.095 285.453 326.377C283.211 327.715 281.158 329.315 279.076 330.877C277.604 331.981 275.95 333.167 273.981 332.635C271.194 331.882 270.45 327.566 270.494 325.185C270.548 322.262 272.083 319.623 273.697 317.303C274.959 315.49 288.195 305.615 292.322 294.64C297.607 284.071 300.05 270.165 312.363 265.377C336.351 259.025 341.909 273.606 344.248 278.117C346.172 281.828 342.827 294.715 357.241 294.715C364.138 294.542 390.671 280.906 390.671 278.653" stroke="#6E8270" stroke-width="2.26057" stroke-linecap="round"/>
<circle cx="74" cy="176" r="49" fill="#F6F6F6"/>
<circle cx="74" cy="176" r="49" stroke="#395996"/>
<path d="M45 195.002C45.8422 195.002 46.6465 194.819 47.4864 194.819C48.4594 194.819 49.4375 194.852 50.4093 194.819C50.7834 194.806 51.1237 194.636 51.5003 194.636C51.8605 194.636 52.2208 194.636 52.5811 194.636C52.9634 194.636 53.3456 194.636 53.7279 194.636C54.0447 194.636 54.3465 194.599 54.6362 194.728C55.0134 194.895 54.927 195.124 55.1183 195.387C55.4917 195.901 54.0959 196.316 53.7685 196.006C53.3885 195.646 53.5858 194.669 53.5858 194.174C53.5858 193.473 53.4031 192.794 53.4031 192.089C53.4031 191.271 53.3868 190.505 53.5858 189.709C54.0434 187.879 54.4216 185.972 55.3213 184.315C55.5945 183.812 56.1233 183.33 56.529 182.925C57.1053 182.348 58.0427 182.24 58.7414 181.849C59.2757 181.55 60.0537 181.442 60.6544 181.301C60.9221 181.238 61.3053 181.04 61.5323 180.895C61.9315 180.639 62.2563 180.555 62.6994 180.387C63.4091 180.119 64.138 179.886 64.8205 179.545C65.4479 179.231 66.2229 179.129 66.7843 178.693C67.6078 178.052 68.4049 177.237 68.8597 176.277C68.9856 176.011 69.503 174.65 69.154 174.45C68.7854 174.24 68.5514 173.614 68.2457 173.309C68.0185 173.081 67.8189 172.712 67.7484 172.395C67.6813 172.093 67.7316 171.784 67.6469 171.487C67.5853 171.271 67.313 171.008 67.2866 170.797C67.2603 170.586 67.0169 170.046 67.4693 169.975C67.6286 169.95 67.8103 169.975 67.9717 169.975C68.1578 169.975 68.1239 170.151 68.2457 170.249C68.5037 170.455 67.889 170.4 67.7839 170.34C67.3938 170.117 66.9744 169.675 66.7589 169.244C66.3383 168.403 66.1371 167.466 66.1906 166.504C66.2119 166.119 66.6343 166.066 66.901 166.23C67.2174 166.425 67.2866 166.713 67.2866 167.098C67.2866 167.508 67.4418 168.892 66.698 168.148C66.3771 167.827 66.3379 167.394 66.2108 166.981C66.1176 166.678 66.0079 166.179 66.0079 165.865C66.0079 164.879 65.6425 163.945 65.6425 162.947C65.6425 162.475 65.6425 162.003 65.6425 161.531C65.6425 161.09 65.9165 160.728 65.9165 160.293C65.9165 159.442 67.2641 158.169 67.8803 157.741C68.3146 157.438 68.7504 157.126 69.2098 156.868C69.3762 156.774 69.6516 156.558 69.8441 156.548C70.1076 156.534 70.329 156.572 70.5748 156.457C71.079 156.219 71.8442 156.241 72.4016 156.183C72.87 156.133 73.2728 156 73.7717 156C74.2274 156 74.6149 156.134 75.0504 156.183C75.3687 156.218 75.6319 156.479 75.9181 156.543C76.3372 156.636 76.6774 156.913 77.1055 156.913C77.4747 156.913 78.104 157.216 78.4299 157.37C79.5163 157.885 79.8484 158.609 80.3074 159.659C80.4468 159.977 80.6696 160.316 80.7185 160.658C80.7886 161.149 80.7903 161.615 80.8047 162.12C80.8286 162.955 81.0575 163.675 80.9011 164.535C80.8279 164.938 80.631 165.853 80.9164 166.21C81.454 166.882 81.1571 167.544 80.9925 168.285C80.8546 168.905 80.5033 169.374 80.2567 169.929C79.9754 170.562 78.8866 171.403 78.8866 170.229C78.8866 169.362 79.1801 168.607 79.526 167.828C79.6412 167.569 79.9343 167.293 80.1248 167.103C80.2802 166.947 80.3539 167.214 80.348 167.326C80.3378 167.519 80.1758 167.733 80.074 167.894C79.6347 168.592 79.2108 169.441 78.9577 170.229C78.6527 171.177 77.9034 172.002 77.6941 172.943C77.6504 173.14 77.6437 173.645 77.4201 173.72C77.0015 173.859 76.6812 173.994 76.2378 173.994C75.4002 173.994 74.5783 173.902 73.7057 173.902C72.1926 173.902 70.4318 174.284 69.4787 172.827C69.2071 172.411 69.5528 171.826 69.225 171.416C69.0736 171.227 69.0535 170.838 68.88 170.665C68.4222 170.207 68.187 169.51 67.997 168.94C67.8493 168.497 67.8288 169.922 68.0376 170.34C68.1908 170.646 68.4372 170.995 68.474 171.345C68.5488 172.056 68.748 172.715 68.748 173.441C68.748 174.023 68.6567 174.603 68.6567 175.176C68.6567 175.572 68.7474 176.096 68.5857 176.46C68.1693 177.397 69.3618 177.417 69.9405 177.236C70.4617 177.073 70.949 176.751 71.4933 176.643C72.039 176.533 72.4711 176.46 73.0409 176.46C74.0163 176.46 75.1022 176.542 76.0551 176.754C76.5257 176.859 76.9899 176.968 77.4455 177.12C77.7153 177.209 79.0343 177.824 78.7953 177.322C78.3491 176.385 78.6974 175.401 78.4096 174.43C78.2965 174.048 78.2472 173.663 78.2472 173.263C78.2472 173.153 78.2075 172.948 78.2929 172.862C78.3077 172.847 78.2488 173.567 78.2472 173.659C78.2369 174.278 78.2234 174.907 78.2472 175.526C78.2553 175.734 78.4558 175.898 78.5669 176.059C78.8438 176.459 78.8619 176.821 79.2469 177.18C79.6758 177.581 80.2564 177.83 80.6677 178.241C81.2153 178.789 82.1766 178.713 82.8751 178.946C83.861 179.275 84.8221 179.709 85.808 180.022C86.4946 180.24 87.1143 180.801 87.8226 180.935C88.692 181.101 89.6453 181.32 90.4866 181.62C90.875 181.759 91.2173 181.91 91.4964 182.224C92.0952 182.898 92.7752 183.67 93.0441 184.543C93.2349 185.163 93.146 185.647 93.1354 186.304C93.1166 187.469 93.406 188.51 93.5059 189.658C93.5746 190.449 93.8661 191.241 93.8661 192.033C93.8661 192.765 93.8661 193.498 93.8661 194.23C93.8661 194.559 94.249 196.125 93.7241 196.275C93.5033 196.338 93.1988 196.148 93.0035 196.093C92.7324 196.015 92.9304 195.361 92.9731 195.235C93.0766 194.929 93.5453 194.792 93.8154 194.657C94.8665 194.131 96.023 194.231 97.1543 194.357C98.0742 194.459 98.9767 194.545 99.9046 194.545C100.942 194.545 101.96 194.362 103 194.362" stroke="#676666" stroke-width="0.174184" stroke-linecap="round"/>
<path d="M414 195.002C414.842 195.002 415.647 194.819 416.486 194.819C417.459 194.819 418.438 194.852 419.409 194.819C419.783 194.806 420.124 194.636 420.5 194.636C420.861 194.636 421.221 194.636 421.581 194.636C421.963 194.636 422.346 194.636 422.728 194.636C423.045 194.636 423.347 194.599 423.636 194.728C424.013 194.895 423.927 195.124 424.118 195.387C424.492 195.901 423.096 196.316 422.769 196.006C422.388 195.646 422.586 194.669 422.586 194.174C422.586 193.473 422.403 192.794 422.403 192.089C422.403 191.271 422.387 190.505 422.586 189.709C423.043 187.879 423.422 185.972 424.321 184.315C424.594 183.812 425.123 183.33 425.529 182.925C426.105 182.348 427.043 182.24 427.741 181.849C428.276 181.55 429.054 181.442 429.654 181.301C429.922 181.238 430.305 181.04 430.532 180.895C430.931 180.639 431.256 180.555 431.699 180.387C432.409 180.119 433.138 179.886 433.82 179.545C434.448 179.231 435.223 179.129 435.784 178.693C436.608 178.052 437.405 177.237 437.86 176.277C437.986 176.011 438.503 174.65 438.154 174.45C437.785 174.24 437.551 173.614 437.246 173.309C437.018 173.081 436.819 172.712 436.748 172.395C436.681 172.093 436.732 171.784 436.647 171.487C436.585 171.271 436.313 171.008 436.287 170.797C436.26 170.586 436.017 170.046 436.469 169.975C436.629 169.95 436.81 169.975 436.972 169.975C437.158 169.975 437.124 170.151 437.246 170.249C437.504 170.455 436.889 170.4 436.784 170.34C436.394 170.117 435.974 169.675 435.759 169.244C435.338 168.403 435.137 167.466 435.191 166.504C435.212 166.119 435.634 166.066 435.901 166.23C436.217 166.425 436.287 166.713 436.287 167.098C436.287 167.508 436.442 168.892 435.698 168.148C435.377 167.827 435.338 167.394 435.211 166.981C435.118 166.678 435.008 166.179 435.008 165.865C435.008 164.879 434.643 163.945 434.643 162.947C434.643 162.475 434.643 162.003 434.643 161.531C434.643 161.09 434.917 160.728 434.917 160.293C434.917 159.442 436.264 158.169 436.88 157.741C437.315 157.438 437.75 157.126 438.21 156.868C438.376 156.774 438.652 156.558 438.844 156.548C439.108 156.534 439.329 156.572 439.575 156.457C440.079 156.219 440.844 156.241 441.402 156.183C441.87 156.133 442.273 156 442.772 156C443.227 156 443.615 156.134 444.05 156.183C444.369 156.218 444.632 156.479 444.918 156.543C445.337 156.636 445.677 156.913 446.106 156.913C446.475 156.913 447.104 157.216 447.43 157.37C448.516 157.885 448.848 158.609 449.307 159.659C449.447 159.977 449.67 160.316 449.718 160.658C449.789 161.149 449.79 161.615 449.805 162.12C449.829 162.955 450.058 163.675 449.901 164.535C449.828 164.938 449.631 165.853 449.916 166.21C450.454 166.882 450.157 167.544 449.992 168.285C449.855 168.905 449.503 169.374 449.257 169.929C448.975 170.562 447.887 171.403 447.887 170.229C447.887 169.362 448.18 168.607 448.526 167.828C448.641 167.569 448.934 167.293 449.125 167.103C449.28 166.947 449.354 167.214 449.348 167.326C449.338 167.519 449.176 167.733 449.074 167.894C448.635 168.592 448.211 169.441 447.958 170.229C447.653 171.177 446.903 172.002 446.694 172.943C446.65 173.14 446.644 173.645 446.42 173.72C446.002 173.859 445.681 173.994 445.238 173.994C444.4 173.994 443.578 173.902 442.706 173.902C441.193 173.902 439.432 174.284 438.479 172.827C438.207 172.411 438.553 171.826 438.225 171.416C438.074 171.227 438.054 170.838 437.88 170.665C437.422 170.207 437.187 169.51 436.997 168.94C436.849 168.497 436.829 169.922 437.038 170.34C437.191 170.646 437.437 170.995 437.474 171.345C437.549 172.056 437.748 172.715 437.748 173.441C437.748 174.023 437.657 174.603 437.657 175.176C437.657 175.572 437.747 176.096 437.586 176.46C437.169 177.397 438.362 177.417 438.941 177.236C439.462 177.073 439.949 176.751 440.493 176.643C441.039 176.533 441.471 176.46 442.041 176.46C443.016 176.46 444.102 176.542 445.055 176.754C445.526 176.859 445.99 176.968 446.445 177.12C446.715 177.209 448.034 177.824 447.795 177.322C447.349 176.385 447.697 175.401 447.41 174.43C447.296 174.048 447.247 173.663 447.247 173.263C447.247 173.153 447.207 172.948 447.293 172.862C447.308 172.847 447.249 173.567 447.247 173.659C447.237 174.278 447.223 174.907 447.247 175.526C447.255 175.734 447.456 175.898 447.567 176.059C447.844 176.459 447.862 176.821 448.247 177.18C448.676 177.581 449.256 177.83 449.668 178.241C450.215 178.789 451.177 178.713 451.875 178.946C452.861 179.275 453.822 179.709 454.808 180.022C455.495 180.24 456.114 180.801 456.823 180.935C457.692 181.101 458.645 181.32 459.487 181.62C459.875 181.759 460.217 181.91 460.496 182.224C461.095 182.898 461.775 183.67 462.044 184.543C462.235 185.163 462.146 185.647 462.135 186.304C462.117 187.469 462.406 188.51 462.506 189.658C462.575 190.449 462.866 191.241 462.866 192.033C462.866 192.765 462.866 193.498 462.866 194.23C462.866 194.559 463.249 196.125 462.724 196.275C462.503 196.338 462.199 196.148 462.003 196.093C461.732 196.015 461.93 195.361 461.973 195.235C462.077 194.929 462.545 194.792 462.815 194.657C463.867 194.131 465.023 194.231 466.154 194.357C467.074 194.459 467.977 194.545 468.905 194.545C469.942 194.545 470.96 194.362 472 194.362" stroke="#676666" stroke-width="0.174184" stroke-linecap="round"/>
<path d="M245.652 402.021C246.185 402.021 246.694 401.906 247.225 401.906C247.841 401.906 248.46 401.927 249.075 401.906C249.311 401.898 249.527 401.79 249.765 401.79C249.993 401.79 250.221 401.79 250.449 401.79C250.69 401.79 250.932 401.79 251.174 401.79C251.374 401.79 251.565 401.767 251.749 401.848C251.987 401.954 251.933 402.099 252.054 402.265C252.29 402.59 251.407 402.853 251.2 402.657C250.959 402.429 251.084 401.811 251.084 401.498C251.084 401.055 250.969 400.624 250.969 400.179C250.969 399.662 250.958 399.177 251.084 398.673C251.374 397.515 251.613 396.309 252.182 395.26C252.355 394.942 252.69 394.637 252.946 394.381C253.311 394.016 253.904 393.948 254.346 393.7C254.684 393.511 255.176 393.443 255.556 393.354C255.726 393.314 255.968 393.189 256.112 393.097C256.364 392.935 256.57 392.882 256.85 392.776C257.299 392.606 257.76 392.459 258.192 392.243C258.589 392.044 259.079 391.98 259.434 391.703C259.955 391.298 260.46 390.783 260.747 390.175C260.827 390.007 261.154 389.146 260.933 389.02C260.7 388.886 260.552 388.491 260.359 388.297C260.215 388.154 260.089 387.92 260.044 387.719C260.002 387.529 260.034 387.332 259.98 387.145C259.941 387.008 259.769 386.842 259.752 386.708C259.735 386.575 259.581 386.233 259.868 386.188C259.968 386.172 260.083 386.188 260.185 386.188C260.303 386.188 260.282 386.3 260.359 386.361C260.522 386.492 260.133 386.457 260.067 386.419C259.82 386.278 259.555 385.999 259.418 385.726C259.152 385.194 259.025 384.601 259.059 383.992C259.072 383.749 259.339 383.715 259.508 383.819C259.708 383.942 259.752 384.124 259.752 384.368C259.752 384.627 259.85 385.503 259.38 385.032C259.177 384.829 259.152 384.555 259.071 384.294C259.012 384.102 258.943 383.787 258.943 383.588C258.943 382.964 258.712 382.373 258.712 381.742C258.712 381.443 258.712 381.145 258.712 380.846C258.712 380.567 258.885 380.338 258.885 380.063C258.885 379.525 259.738 378.719 260.128 378.448C260.402 378.257 260.678 378.059 260.969 377.896C261.074 377.837 261.248 377.7 261.37 377.694C261.537 377.685 261.677 377.709 261.832 377.636C262.151 377.486 262.635 377.5 262.988 377.462C263.284 377.431 263.539 377.347 263.855 377.347C264.143 377.347 264.388 377.432 264.664 377.462C264.865 377.485 265.032 377.65 265.213 377.69C265.478 377.749 265.693 377.925 265.964 377.925C266.198 377.925 266.596 378.116 266.802 378.214C267.489 378.539 267.699 378.998 267.99 379.662C268.078 379.863 268.219 380.078 268.25 380.294C268.294 380.605 268.295 380.899 268.304 381.219C268.319 381.747 268.464 382.203 268.365 382.747C268.319 383.001 268.194 383.58 268.375 383.806C268.715 384.231 268.527 384.65 268.423 385.119C268.336 385.511 268.114 385.808 267.958 386.159C267.78 386.56 267.091 387.091 267.091 386.349C267.091 385.8 267.277 385.322 267.495 384.83C267.568 384.666 267.754 384.492 267.874 384.371C267.973 384.273 268.019 384.441 268.015 384.512C268.009 384.635 267.906 384.77 267.842 384.872C267.564 385.313 267.296 385.85 267.136 386.349C266.943 386.949 266.469 387.47 266.336 388.066C266.309 388.191 266.305 388.51 266.163 388.557C265.898 388.646 265.696 388.731 265.415 388.731C264.885 388.731 264.365 388.673 263.813 388.673C262.856 388.673 261.742 388.914 261.139 387.992C260.967 387.73 261.186 387.359 260.978 387.1C260.883 386.98 260.87 386.735 260.76 386.625C260.47 386.335 260.322 385.894 260.201 385.533C260.108 385.253 260.095 386.155 260.227 386.419C260.324 386.613 260.48 386.834 260.503 387.055C260.551 387.505 260.677 387.922 260.677 388.381C260.677 388.749 260.619 389.116 260.619 389.479C260.619 389.729 260.676 390.061 260.574 390.291C260.31 390.884 261.065 390.897 261.431 390.782C261.761 390.679 262.069 390.475 262.413 390.406C262.759 390.337 263.032 390.291 263.393 390.291C264.01 390.291 264.697 390.343 265.299 390.477C265.597 390.543 265.891 390.612 266.179 390.708C266.35 390.765 267.184 391.154 267.033 390.837C266.751 390.244 266.971 389.621 266.789 389.007C266.717 388.765 266.686 388.522 266.686 388.268C266.686 388.199 266.661 388.069 266.715 388.015C266.725 388.005 266.687 388.461 266.686 388.519C266.68 388.911 266.671 389.309 266.686 389.7C266.691 389.832 266.818 389.936 266.889 390.037C267.064 390.29 267.075 390.519 267.319 390.747C267.59 391 267.957 391.157 268.218 391.418C268.564 391.764 269.172 391.717 269.614 391.864C270.238 392.072 270.846 392.347 271.47 392.545C271.904 392.682 272.296 393.037 272.744 393.122C273.294 393.227 273.897 393.366 274.43 393.556C274.675 393.644 274.892 393.739 275.068 393.938C275.447 394.364 275.877 394.852 276.048 395.405C276.168 395.797 276.112 396.103 276.105 396.519C276.093 397.256 276.277 397.914 276.34 398.641C276.383 399.141 276.568 399.642 276.568 400.143C276.568 400.607 276.568 401.07 276.568 401.533C276.568 401.741 276.81 402.732 276.478 402.827C276.338 402.867 276.145 402.747 276.022 402.712C275.85 402.663 275.976 402.249 276.003 402.169C276.068 401.975 276.365 401.889 276.536 401.803C277.201 401.471 277.932 401.534 278.648 401.614C279.23 401.678 279.801 401.732 280.388 401.732C281.044 401.732 281.688 401.617 282.346 401.617" stroke="#676666" stroke-width="0.110198" stroke-linecap="round"/>
</svg>
