<svg width="435" height="177" viewBox="0 0 435 177" fill="none" xmlns="http://www.w3.org/2000/svg">
<circle cx="346.89" cy="88.109" r="87.4929" fill="#F2F7FF" stroke="#395996" stroke-width="1.23229"/>
<path d="M357.908 73.833C357.364 72.8202 357.344 62.8608 341.866 53.3688C340.71 52.5593 339.785 51.8359 338.529 51.1832C337.613 50.7072 335.907 50.3822 335.406 49.3994C334.93 48.4665 334.555 47.4162 334.233 46.4263C333.965 45.5986 333.632 44.9074 333.413 44.0639C333.077 42.7655 333.042 41.4899 333.135 40.1105C333.244 38.4796 334.21 36.8658 335.258 35.6107C335.844 34.9092 336.84 34.3904 337.693 34.1552C338.352 33.9734 338.975 33.9551 339.644 33.8269C341.068 33.5539 346.214 33.5776 347.58 33.2082C347.949 33.1084 348.393 33.3088 347.99 32.4207C347.58 30.3302 340.423 30.6295 338.066 31.3323C337.247 31.8674 332.768 34.7231 332.536 35.7473C332.241 37.0474 331.455 38.2746 331.495 39.6605C331.523 40.6159 332.14 42.1975 332.823 42.9068C333.404 43.5099 333.98 44.3772 334.971 44.2005C336.05 44.0083 335.818 42.4434 335.627 41.7337C335.445 41.0551 334.458 38.6417 335.332 38.166C336.179 37.7049 336.94 38.2916 337.693 38.6802C338.238 38.9611 338.711 39.3631 339.242 39.6525C340.394 40.2797 340.26 38.509 340.423 37.9972C340.789 36.8483 341.653 36.1672 342.825 35.9321C343.924 35.7119 345.693 35.5606 346.547 36.3982C346.999 36.8411 346.571 38.0616 346.473 38.5597C346.29 39.4937 346.252 40.366 346.252 41.3158C346.252 42.9705 347.649 44.2194 347.58 45.912C347.556 46.5115 345.578 46.226 345.293 46.0085C344.719 45.5709 344.924 47.0426 344.924 47.4548C344.924 48.1349 344.889 49.1262 344.039 49.1262C342.868 49.1262 341.883 48.7567 340.825 48.3226C340.242 48.0834 339.729 48.1444 339.103 48.0816C338.096 47.9806 337.176 47.8244 336.16 47.8244C335.052 47.8244 333.963 47.7743 332.881 48.0494C331.99 48.2758 331.307 48.7817 330.61 49.3431C329.99 49.8416 329.178 50.1814 328.658 50.7815C326.985 52.7128 325.773 55.1052 325.74 57.6597C325.707 60.1862 325.592 62.6987 325.592 65.229C325.592 67.2901 325.8 69.4606 325.518 71.5046C325.336 72.8288 325.365 74.241 325.305 75.5785C325.262 76.5567 325.15 77.5229 325.15 78.5034C325.15 79.4187 325.176 80.5601 324.854 81.4282C324.712 81.8125 323.986 81.1766 323.854 81.0908C322.73 80.3559 322.499 78.2899 322.354 77.0811C322.067 74.6941 321.844 72.6897 320.509 70.5484C319.858 69.5035 318.511 68.0222 317.23 67.8164C316.569 67.7103 315.838 67.7842 315.172 67.7842C314.482 67.7842 313.46 67.5975 312.819 67.9289C311.829 68.441 311.612 69.9286 311.868 70.8698C312.415 72.8797 316.111 72.4228 317.369 71.6251C317.819 71.3397 318.363 71.2068 318.878 71.0386C319.854 70.7197 320.734 70.1547 321.723 69.8734C323.883 69.2586 326.236 69.0453 328.478 69.086C330.002 69.1136 330.898 70.8482 331.052 72.1314C331.243 73.7211 331.36 75.3265 331.864 76.8642C332.339 78.3113 334.98 78.3427 336.168 78.3427C337.885 78.3427 339.622 78.4286 341.333 78.2704C342.918 78.1238 344.357 77.6891 345.924 77.4749C348.339 77.1446 353.246 76.2772 354.885 78.7766C355.44 79.6226 356.258 80.3375 356.73 81.2354C357.64 82.9697 358.813 84.3838 360.091 85.8638C361.52 87.5191 363.539 87.8659 365.584 88.4672C368.061 89.1957 370.443 90.2303 372.921 90.9823C378.332 92.0671 381.259 102.628 381.595 104.723C382.069 106.079 380.822 107.873 379.75 107.157C379.144 106.752 378.655 105.56 378.332 104.899C377.542 103.283 377.009 101.646 376.652 99.8935C376.424 98.7774 376.178 97.6965 376.028 96.5668C375.898 95.5827 375.807 93.855 375.102 93.0875C374.701 92.6509 374.815 92.1648 374.192 92.0671C373.169 91.9066 372.134 91.3528 371.093 91.135C369.716 90.8468 368.35 90.4744 366.986 90.1305C366.088 89.9042 365.027 89.8352 364.174 89.4797C363.049 89.0113 361.517 88.6511 360.878 87.503C360.418 86.6769 360.395 85.274 360.419 84.3371C360.435 83.6924 360.762 83.3909 361.23 82.9791C361.962 82.3365 363.073 82.2956 364.026 82.2559C365.29 82.2032 366.413 81.8929 367.65 81.7015C369.126 81.4731 370.77 81.6693 372.257 81.6693C373.367 81.6693 374.476 81.6693 375.586 81.6693C376.647 81.6693 377.744 81.593 378.799 81.7015C379.713 81.7953 380.481 82.2596 381.259 82.7059C382.386 83.3525 386.389 90.1305 386.686 91.4323C388.015 94.8269 389.156 98.2061 389.933 101.774C390.864 106.05 390.405 110.753 389.49 114.984C389.228 116.195 388.967 117.544 388.236 118.584C387.847 119.137 387.445 119.62 387.129 120.223C386.7 121.041 386.073 121.155 385.129 120.986C382.69 120.552 382.544 116.242 382.374 114.405C382.206 112.59 382.021 111.009 383.186 109.488C383.804 108.68 384.974 108.742 385.85 109.158C386.769 109.595 387.695 109.903 388.638 110.307C389.77 110.793 390.937 111.193 392.064 111.681C393.419 112.268 394.899 112.372 396.278 112.879C397.594 113.362 398.885 113.617 400.263 113.891C401.221 114.082 402.181 114.345 402.181 115.442C402.181 115.953 402.349 116.761 402.116 117.218C401.778 117.88 400.422 117.994 399.812 118.102C398.577 118.319 397.3 118.357 396.09 118.696C395.012 118.998 385.083 123.853 384.096 124.337C380.865 126.438 381.711 125.392 380.865 126.852C380.391 127.672 380.492 128.547 380.374 129.464C380.227 130.595 380.084 131.491 379.587 132.533C378.229 135.375 375.731 135.016 374.258 132.662C373.736 131.828 373.281 130.867 373.184 129.897C373.103 129.095 372.876 127.855 373.389 127.165C374.021 126.314 375.065 125.679 376.067 125.527C376.964 125.391 377.483 125.221 378.414 125.221C380.851 125.221 382.205 128.177 382.481 130.122C382.674 131.486 382.963 133.35 381.767 134.413C379.919 136.057 376.76 136.701 374.323 136.776C369.666 136.918 357.847 135.306 353.171 135.622M353.614 135.586C352.031 135.724 350.407 135.724 348.818 135.828C347.533 135.911 340.917 135.253 339.661 134.928M339.661 134.928C350.8 134.807 358.896 128.015 359.919 127.141C361.6 125.706 363.434 124.538 364.141 122.328C364.488 121.242 364.831 120.16 365.059 119.042C365.376 117.488 365.249 115.848 365.469 114.277C365.818 111.778 365.956 109.475 365.649 106.94C365.432 105.146 365.434 103.149 364.92 101.412C364.585 100.282 364.287 98.7112 363.633 97.7239C363.188 97.0533 362.795 96.3305 362.337 95.6669C354.022 83.6166 345.566 84.2728 343.76 84.2728C338.318 84.2728 334.141 85.144 329.503 86.6593C328.475 86.9949 327.371 87.1094 326.478 87.744C325.815 88.2148 325.022 88.5691 324.403 89.0538C323.314 89.9084 322.566 91.0328 321.608 92.0188C320.842 92.8069 320.121 93.7506 319.64 94.7348C319.239 95.5558 318.76 96.2384 318.189 96.9606C317.103 98.3358 316.562 99.5772 316.066 101.243C315.369 103.584 314.967 106.088 314.967 108.531C314.967 110.362 315.314 112.217 315.705 114.004C315.812 114.495 316.059 114.932 316.115 115.434C316.156 115.798 316.111 116.155 316.23 116.503C316.833 118.276 318.541 123.898 319.837 125.374C320.25 126.217 327.48 131.349 328.264 131.703M339.661 134.928C338.62 135.362 337.683 135.329 336.562 135.329C335.508 135.329 334.455 135.474 333.413 135.474C331.214 135.474 315.039 135.97 312.819 135.828M340.152 134.895C338.704 134.895 336.936 135.164 335.52 134.807C332.835 134.13 330.386 133.115 327.505 131.242" stroke="#35507A" stroke-width="0.487861" stroke-linecap="round"/>
<circle cx="217.5" cy="88.109" r="87.4929" fill="#F3E6D9" stroke="#7B6251" stroke-width="1.23229"/>
<circle cx="88.109" cy="88.109" r="87.4929" fill="#FFECE0" stroke="#D65A00" stroke-width="1.23229"/>
<path d="M263.096 139.204C260.552 139.204 258.143 138.987 255.619 138.777C254.472 138.681 253.337 138.554 252.2 138.446C251.678 138.396 250.694 138.66 250.267 138.328C249.303 137.578 247.287 137.3 247.287 135.839C247.287 134.584 248.826 133.094 249.551 132.09C250.685 130.521 250.94 129.052 250.94 127.187C250.94 126.233 250.463 125.634 250.021 124.826C249.159 123.251 248.635 121.433 248.206 119.699C247.7 117.659 247.143 115.639 247.095 113.525C247.055 111.817 247.287 110.17 247.287 108.441C247.287 104.001 245.703 99.6976 245.375 95.2704C245.327 94.6208 245.47 94.0237 245.129 93.4438C244.583 92.5146 244.068 94.7895 244.018 94.982C243.686 96.2742 243.719 97.734 243.249 98.9769C242.826 100.096 242.329 101.236 242.096 102.416C241.505 105.402 241.134 108.187 241.134 111.218C241.134 113.5 241.3 115.831 241.562 118.097C241.782 120.011 242.629 121.837 242.854 123.748C242.993 124.929 243.057 126.285 243.057 127.475C243.057 128.009 243.11 128.657 242.758 129.11C241.791 130.353 239.682 130.39 238.378 131.129C237.803 131.455 235.356 133.08 236.755 134.013C237.396 134.44 238.36 134.495 239.083 134.589C240.778 134.811 242.51 134.974 244.221 134.974C245.116 134.974 246.222 135.147 247.084 134.878C248.802 134.341 250.565 133.677 252.297 133.244C253.222 133.012 254.049 132.398 254.978 132.133C255.625 131.948 256.242 131.894 256.9 131.748C257.964 131.512 259.139 132.029 259.945 131.022C260.493 130.336 260.553 129.524 260.553 128.693C260.553 126.607 260.553 124.52 260.553 122.434C260.553 119.61 259.993 116.647 259.742 113.824C259.385 109.81 259.167 105.868 258.353 101.914C257.888 99.6555 258.333 97.1201 257.264 94.982C256.073 92.6017 254.753 90.7668 252.564 89.3207C250.762 88.1313 249.538 87.0989 247.33 87.0989C245.781 87.0989 244.234 86.6718 242.672 87.0135C240.618 87.463 239.415 87.2905 237.716 86.1376C236.081 85.0279 234.985 83.3693 233.241 82.3884C231.816 81.587 231.541 81.5751 230.367 82.8797C229.479 83.8666 228.433 84.6116 227.675 85.7103C227.286 86.2755 226.733 86.6005 226.137 86.9067C224.437 87.7812 222.793 88.6273 220.903 88.9789C218.951 89.3422 217.061 90.0541 215.167 90.6666C212.803 91.4317 210.774 92.8109 208.449 93.5507C206.282 94.2398 200.181 96.5078 200.181 92.3864C200.181 91.0612 202.259 90.1671 203.343 90.0257C205.964 89.6837 208.675 89.5985 211.333 89.5985C212.89 89.5985 214.664 90.4303 215.755 91.5211C217.576 93.3421 217.248 95.361 217.774 97.6738C218.819 102.273 219.296 107.044 219.75 111.752C220.249 116.934 219.408 122.157 219.408 127.326C219.408 129.219 219.289 131.069 219.205 132.955C219.138 134.458 218.831 138.956 218.831 137.452C218.831 135.203 218.447 132.964 218.447 130.701C218.447 128.715 218.479 126.727 218.447 124.741C218.411 122.569 218.055 120.165 217.197 118.161C216.659 116.906 214.594 115.709 213.544 114.893C212.541 114.113 211.042 113.824 209.794 113.824C208.539 113.824 207.501 113.583 206.312 113.451C205.399 113.349 204.555 113.044 203.642 112.906C202.569 112.744 201.414 112.863 200.331 112.863C198.368 112.863 196.373 112.757 194.413 112.863C193.268 112.925 191.846 114.084 191.048 114.882C190.25 115.68 190.521 116.572 190.365 117.67C189.815 121.516 189.798 125.488 189.798 129.398C189.798 130.695 189.544 131.644 190.482 132.581C191.571 133.67 192.49 134.482 192.49 136.128C192.49 138.089 190.148 139.656 188.453 140.261C187.119 140.738 185.158 140.444 184.265 139.353C183.598 138.537 183.395 135.872 183.881 135.017C184.696 133.581 186.251 132.84 187.011 131.321C187.412 130.518 187.447 129.512 187.502 128.629C187.59 127.221 187.917 125.814 188.057 124.41C188.17 123.282 188.068 122.092 188.068 120.96C188.068 118.884 188.453 116.865 188.453 114.786C188.453 112.986 188.878 111.172 189.179 109.402C189.447 107.823 189.606 106.455 189.606 104.83C189.606 102.554 189.991 100.22 190.172 97.9515C190.338 95.877 190.736 94.0829 191.71 92.2154C192.217 91.2448 193.423 90.4767 194.456 90.1325C194.995 89.9529 197.521 89.3199 197.681 90.1753C197.881 91.2415 206.119 86.8086 207.103 86.3299C208.265 85.7642 209.364 85.1194 210.553 84.5995C211.502 84.1842 212.894 83.258 213.918 83.072C215.164 82.8453 217.973 81.8298 218.532 80.5511C219.277 78.8481 219.372 76.5838 219.408 74.751C219.444 72.9209 220.13 70.0759 219.557 68.2138C218.855 65.9324 217.728 70.2217 217.571 70.7668C217.202 72.0398 216.684 73.2706 216.235 74.516C215.721 75.945 214.797 77.0945 214.12 78.4468C213.325 80.0371 211.552 80.5184 210.136 81.3736C207.667 82.8655 204.984 84.3549 202.777 86.2231C202.295 86.6306 201.769 87.0234 201.335 87.4835C200.774 88.0767 202.502 87.868 202.83 87.868C205.203 87.868 207.12 86.678 209.367 86.1376C211.285 85.6764 213.215 84.909 214.996 84.1295C216.984 83.26 218.523 82.6994 219.824 80.8288C220.991 79.1523 222.331 77.6772 223.403 75.9473C224.936 73.4736 226.225 71.0346 227.483 68.4488C228.515 66.3283 230.631 64.1613 232.963 63.5567C235.32 62.9455 236.972 64.3509 238.827 65.5648C241.496 67.3118 243.823 69.5145 246.422 71.3222C248.087 72.4807 249.436 73.926 251.036 75.1783C252.658 76.4473 253.742 78.2445 255.426 79.4723C256.088 79.9544 256.634 80.1197 255.982 79.2159C255.099 77.994 254.298 76.7351 253.397 75.5201C251.198 72.5569 248.452 69.639 245.556 67.3807C243.785 65.9992 242.335 64.2491 240.397 63.0867C239.2 62.3683 238.378 61.09 237.139 60.3094C235.534 59.2972 233.761 58.8968 232.098 58.109C229.99 57.1105 227.257 57.4895 224.952 57.4895C222.298 57.4895 219.965 57.5763 217.912 55.5241C217.501 55.1125 217.07 54.3278 217.336 53.7296C217.705 52.8992 219.733 53.8018 220.156 53.9859C221.532 54.5861 222.946 55.5186 224.418 55.8338C224.993 55.9572 227.109 56.5102 227.665 56.0475C229.717 54.337 223.893 52.3321 223.05 51.7001C221.874 50.8176 221.226 49.5778 220.326 48.4529C219.468 47.3795 219.251 46.1053 218.489 44.992C217.916 44.1537 217.376 43.3159 216.759 42.4925C216.085 41.5939 215.123 40.9179 214.494 39.993C213.619 38.7046 212.885 38.1107 211.536 37.3012C210.788 36.8527 209.913 35.8724 209.025 35.7738C207.143 35.5646 204.971 36.2569 203.45 37.344C202.197 38.2389 200.538 39.1768 199.081 39.6939C198.059 40.0563 196.822 40.1628 195.748 40.3775C194.95 40.5372 193.815 40.5092 193.163 41.0612C191.84 42.1805 192.541 45.1564 192.255 46.7652C192.177 47.2049 191.806 48.562 192.298 48.8801C193.539 49.6832 195.22 49.5856 196.677 49.6065C197.583 49.6194 198.589 49.479 199.487 49.6171C200.106 49.7124 200.698 50.31 201.345 50.4717C202.213 50.6886 204.929 51.0235 205.362 50.0871C205.706 49.3417 205.771 48.5861 206.056 47.8547C206.332 47.1438 206.562 46.0474 207.38 45.7611C208.647 45.3176 210.076 46.8742 210.563 47.876C210.88 48.5269 211.512 50.7954 210.083 50.2687C209.277 49.9717 208.779 49.0494 208.064 48.6024C207.887 48.4919 207.506 47.8217 207.722 48.4956C207.992 49.3365 208.329 50.1685 208.641 50.9951C209.373 52.9332 210.756 54.5395 210.756 56.6243C210.756 57.9711 208.688 58.5305 207.669 58.6324C205.572 58.8421 203.873 57.2295 202.595 55.7164C201.056 53.8935 199.495 52.0888 198.066 50.1833" stroke="#7B6251" stroke-width="0.616147" stroke-linecap="round"/>
<path d="M27.1699 97.047C28.2779 96.7061 34.3809 95.8586 35.4958 95.5963C35.8143 95.4598 34.9101 97.7699 34.8785 97.8803C34.6241 98.7709 31.9342 101.163 40.087 102.325C40.6965 102.325 41.1137 102.381 41.6072 101.978C42.2523 101.45 44.2413 85.7098 44.5316 84.9632C45.0451 83.5255 45.1927 81.8856 45.7122 80.4569C46.076 79.4565 54.7665 75.9915 55.5737 75.5879C56.5789 75.0853 58.4596 74.4844 59.8794 72.0461C60.5578 71.3677 61.076 70.5965 61.7159 69.8855C63.3943 68.0206 65.8114 66.5953 68.105 65.657C68.8784 65.3406 69.8781 65.1727 70.7054 65.1091C71.2349 65.0684 71.8003 64.8236 72.3104 64.8236C73.1079 64.8771 74.973 71.1052 75.458 71.3207C77.6145 72.0256 82.2005 68.8994 83.7761 67.3237C84.7511 66.3487 86.4081 65.0072 86.4081 63.6816M86.4081 63.6816C86.4081 62.2747 85.9007 60.4961 84.4327 59.9315C84.243 59.8585 83.1905 59.3833 83.0824 59.7617C82.904 60.3858 82.8872 60.6082 83.3601 61.0812C84.1724 61.8935 85.2032 63.0512 86.3386 63.3035L86.9637 58.9901M86.4081 63.6816C86.73 64.4995 88.0062 68.9823 88.152 69.1988C88.8065 70.9874 89.9462 71.5986 91.1999 72.1773C91.7111 72.4132 92.3102 72.3239 92.8589 72.3239C93.5522 72.3239 94.34 71.8753 95.0195 71.7394C95.3735 71.6686 98.057 70.9439 97.4347 71.6699C96.3208 72.9695 94.4298 74.0495 94.325 75.9351C94.295 76.4755 94.1861 76.9963 94.1861 77.571C94.1861 78.131 94.1702 78.9856 94.0164 79.5155C93.9763 79.6534 93.598 80.4385 93.8543 80.4954C94.1195 80.5544 94.7708 80.1342 95.0195 80.0325C96.0158 79.6249 96.8696 78.9552 97.7819 78.4043C99.7487 77.2168 101.598 75.9146 103.492 74.6233C104.817 73.72 106.38 73.0467 107.528 71.8995C108.326 71.1012 110.165 69.576 109.711 68.2651C109.546 67.788 108.825 67.3112 108.43 67.015C107.575 66.3733 106.481 65.6269 105.853 64.7619C104.875 63.4129 103.807 62.2005 103.014 60.7262C102.62 59.9956 102.536 59.2188 101.964 58.5657C101.034 57.5027 100.127 56.5235 99.0397 55.5795C97.4692 54.2156 95.5022 52.7967 94.6105 50.8648C93.7985 49.1054 92.213 47.495 90.8527 46.1347C88.614 43.896 87.1288 46.7345 86.1612 48.573C85.3536 50.1074 84.3889 52.0643 84.9574 53.851C85.2205 54.6777 85.5579 55.4639 85.8525 56.2739C86.1819 57.1796 86.1295 55.364 86.138 55.2014C86.195 54.1194 86.364 53.0793 86.1612 52.0145C86.0552 51.4583 85.9094 50.7513 85.8525 50.2398C85.7099 48.9563 85.158 47.6506 85.158 46.3353C85.158 45.1426 85.5312 44.296 86.192 43.3414C86.798 42.4661 94.0067 39.333 94.9269 38.8505C96.6716 38.1823 104.651 34.6505 112.019 44.7457C119.519 55.0227 117.897 61.3431 117.034 63.3575C116.741 64.0421 116.269 64.6072 115.792 65.1708C115.158 65.3659 112.487 67.901 111.857 68.1262C111.433 68.2774 110.69 68.8461 110.468 69.2682C110.188 69.7997 111.124 70.3191 111.579 70.4874C113.074 71.0413 114.626 71.4554 116.131 71.9766C117.179 72.3393 118.06 72.7247 119.048 73.219C122.829 75.9696 122.657 79.1522 122.829 80.071C123.252 82.3281 123.184 84.508 123.076 86.7688C122.829 98.8217 117.479 118.056 116.98 119.386C116.738 120.032 116.625 120.697 116.409 121.346C116.21 121.942 116.203 122.656 115.854 123.19C115.347 123.964 114.841 124.308 114.079 124.826C113.263 125.379 112.051 125.784 111.1 126.076C109.502 126.566 107.901 126.811 106.239 126.909C105.173 126.972 104.151 127.615 103.075 127.735C101.766 127.88 100.502 128.239 99.1709 128.306C95.636 128.483 92.1612 128.715 88.6227 128.715C87.1489 128.715 85.675 128.715 84.2012 128.715C81.8361 128.715 79.4506 128.973 77.1022 128.684C75.4134 128.476 73.1421 128.632 71.9631 127.125C71.1868 126.133 71.385 120.118 71.7548 118.861C71.9883 117.927 72.9165 117.36 73.8305 117.194C76.6592 116.68 79.5211 116.378 82.3493 115.967C82.9468 115.881 83.8138 116.001 83.7691 115.242C83.7454 114.839 82.8072 114.597 82.5191 114.517C80.08 113.839 77.8925 112.269 75.5821 111.291C74.6398 111.047 68.9553 108.585 68.0433 108.251C67.3874 108.011 66.2685 107.648 66.2685 108.567C66.2685 108.986 73.8305 112.742 75.4355 112.742C76.3237 112.742 78.7481 112.349 79.6332 110.458C80.2757 109.627 81.5682 101.821 80.2968 100.164C78.6541 99.4705 79.1144 107.009 79.4017 108.158C79.6763 109.257 80.0671 110.299 80.5977 111.307C80.9982 112.068 81.7406 112.437 82.4496 112.819C83.5009 113.385 84.5651 113.913 85.7136 114.27C86.9414 114.651 88.0089 114.212 89.1242 113.73C91.6903 112.621 97.4286 111.019 100.174 110.52C101.164 110.378 105.958 109.117 106.262 110.944C106.399 111.763 105.931 111.832 105.174 111.901C103.921 112.015 111.179 88.7541 114.465 84.4848C115.122 83.3115 115.949 81.9912 117.173 81.3597C119.981 79.9105 120.715 85.5192 120.715 87.255C120.715 91.2264 117.736 110.484 117.351 114.47C116.715 117.142 116.667 119.929 116.363 122.65C116.241 123.737 116.198 124.855 116.378 125.937C116.413 126.145 116.427 126.71 116.579 126.878C116.786 127.109 117.253 127.298 117.52 127.434C118.246 127.804 118.871 128.303 119.573 128.715C120.362 129.178 121.162 129.564 121.965 129.965M87.6581 59.7694C87.4466 59.4257 87.0686 58.9095 86.7939 58.6043C86.4078 58.1753 86.8077 58.8146 86.9637 58.9901M86.9637 58.9901C87.3364 59.4094 89.2868 62.0176 89.5718 60.6877C89.8076 59.587 88.7023 58.644 87.7739 58.2262C86.8995 57.8327 84.8844 57.8099 84.3247 58.7895M84.3247 58.7895C83.9952 59.366 83.1104 59.677 82.5808 60.0704C81.6215 60.783 80.7181 61.5925 79.7721 62.3235C78.7506 63.1128 77.7145 63.767 76.7936 64.6538C76.1676 65.2566 75.519 65.8747 74.9648 66.5521C74.503 67.1165 75.2517 67.4835 75.7596 67.2465C76.2421 66.4423 80.5394 61.7499 80.5746 60.7648C80.6005 60.0389 80.5984 59.5189 79.8801 59.129C79.6699 59.0149 78.0508 57.3923 78.4115 56.9916C78.9533 56.3895 80.2992 56.2098 81.0042 56.2739C81.5201 56.3208 83.927 58.5622 84.3247 58.7895ZM85.2566 58.1259C80.5746 56.2739 74.0466 61.0812 71.5156 63.5736C70.3402 64.0079 69.4231 63.4347 68.2439 63.4347C67.7217 63.4347 67.1996 63.4347 66.6775 63.4347C65.6649 63.4347 64.8216 64.1072 63.9459 64.5612C62.2546 65.4382 57.9778 67.1983 52.2094 71.3516C51.5596 71.8195 50.3446 72.2758 50.859 73.219C51.1 73.6608 52.3055 73.6464 52.7264 73.7745C53.2729 73.9409 53.8318 74.0365 54.3854 74.1372C55.7541 74.3861 57.0399 74.9628 58.4596 74.9628C60.1574 74.9628 63.9073 75.073 68.2747 73.0878C69.4761 72.5417 70.9365 72.7405 72.2255 72.7405C73.3811 72.7405 73.9779 72.6563 74.0466 71.3516C74.0958 70.4157 73.813 70.7502 73.491 71.3207C73.2016 71.8334 73.1436 72.1682 73.0434 72.4936C72.5154 74.2098 72.2332 75.7832 71.1298 77.2932C69.7235 79.2176 60.0014 82.3221 58.6988 82.9492C58.3725 83.1063 57.8064 83.2872 58.2242 83.7514C58.5346 84.0963 60.3025 84.2761 60.7822 84.2761M68.3519 86.2562C68.3519 87.1789 68.3938 89.7055 68.3519 90.627C68.3286 91.1387 67.6656 91.6728 67.179 91.7613C66.9344 91.8058 66.2881 92.0183 66.0679 91.8925C65.7185 91.6928 65.5931 90.4762 65.5046 90.0868C65.2995 89.1845 65.1574 87.9863 65.1574 87.0543C65.1574 86.7019 65.1636 86.0743 64.7407 86.0743C64.2667 86.0743 63.8874 86.017 63.5215 86.383C63.1256 86.7789 62.9523 87.5636 62.827 88.096C62.6903 88.6772 62.4556 89.2209 62.2715 89.7936C62.0014 90.6339 61.9591 90.7967 60.9983 90.7967C60.2043 90.7967 59.5477 90.8376 58.9843 90.1717C58.1792 89.2202 58.7959 87.1048 59.1155 86.0821C59.4148 85.1243 60.431 83.8485 61.5461 84.3767C62.5201 84.63 65.9837 85.7145 66.963 85.9663C67.7028 86.1566 69.2188 86.5293 69.9492 86.1361C70.7659 85.6963 71.8468 83.5311 70.5125 83.1499C68.9083 82.6915 67.0833 82.4142 65.3734 82.3242C64.001 82.252 62.7669 81.6002 61.4844 81.2131C60.2934 80.8535 48.2814 77.716 47.0472 77.6173C41.5763 76.8156 45.2735 74.254 45.7431 73.9289C46.4576 73.4342 47.1127 73.1373 47.9345 72.8177C48.2707 72.687 49.2808 72.5327 48.9685 73.1572C48.7348 73.6246 44.3157 75.4776 43.8725 75.6875C42.4029 76.009 42.8414 76.0941 41.5763 76.9074C40.1714 77.8105 39.0395 78.6914 38.9064 80.4877C38.9064 81.7978 39.0671 82.5147 39.6009 82.4554C40.8099 82.3211 43.4605 81.2427 44.6245 80.9517M43.3084 81.3612C43.1507 81.3899 39.9693 82.995 40.5114 83.1499C40.8707 83.2525 41.3263 83.4052 41.6843 83.5743C42.1338 83.7865 44.4274 84.39 44.4622 84.6854C44.6053 85.9017 41.8671 84.6326 41.5454 84.4848C40.8374 84.1595 40.0118 83.8447 39.246 83.7054C38.8697 83.637 37.9367 83.2065 37.5947 83.3042C37.5149 83.327 37.3786 84.3678 37.3786 84.4771C36.4064 87.8491 33.7674 96.9139 33.7674 98.8526C33.7674 99.4157 34.0401 99.2744 34.4618 99.4853C35.1219 99.8153 35.7171 100.313 36.4064 100.581C38.4205 101.364 44.1162 103.198 45.5425 104.131C48.8549 107.085 51.957 112.742 51.957 112.742C52.4476 112.045 54.0329 111.075 54.8792 111.075C56.6511 111.075 58.2015 112.091 58.7991 113.884C58.9063 114.206 58.921 114.878 59.1155 115.111C59.1845 115.194 59.346 116.171 59.3161 116.276C50.923 115.489 51.4206 116.218 51.4069 116.492C51.345 117.73 58.1533 119.606 59.1772 119.895C59.3183 119.93 60.6698 120.013 60.0877 119.548C58.9071 118.603 51.5458 118.244 51.5458 119.201C51.5458 120.477 54.3965 121.332 55.4271 121.693C56.6296 122.114 58.0247 122.45 59.1849 122.773C59.702 122.991 59.9056 122.824 59.8794 122.326C59.8531 121.827 58.5676 121.631 58.5676 121.631C57.3804 121.631 52.8971 120.997 52.518 121.937C52.139 122.877 56.1872 124.329 56.1872 124.329L60.4273 126.006C62.7249 125.928 59.0807 124.644 58.4056 124.54C57.3624 124.38 56.0996 123.912 55.3268 124.857C54.4367 125.944 57.5683 127.203 58.0738 127.326C59.8324 127.753 61.7464 127.604 63.5524 127.604C64.3523 127.604 65.1522 127.604 65.9521 127.604C66.8766 127.604 68.2773 127.65 69.1081 127.256C69.6811 126.985 70.1586 126.657 70.744 126.462C71.5186 126.203 72.2499 125.984 72.349 125.073C72.4519 124.125 72.3139 123.29 71.8551 122.465C71.129 120.983 70.3244 117.988 69.3859 116.623C68.3673 115.142 66.6406 114.019 65.0956 113.166C64.3582 112.759 63.6035 112.557 62.827 112.264C61.9407 111.929 61.0797 111.482 60.1572 111.245C59.3939 111.049 58.7589 110.936 57.9657 110.936C57.494 110.936 57.5673 111.78 57.688 112.156C57.9304 112.91 58.8388 113.646 59.3933 114.2C60.1328 114.94 60.9423 115.972 61.8934 116.423C62.1194 116.53 64.6009 117.418 64.733 116.824C65.0374 115.454 63.065 115.52 62.2406 115.52C61.7324 115.52 59.5265 115.834 59.2158 115.489C59.0376 115.291 59.2232 114.604 59.1155 114.324C58.7292 113.319 58.9071 111.932 58.9071 110.859C58.9071 109.106 58.7458 107.398 58.6371 105.658C58.475 103.066 58.4368 100.18 58.7374 97.5871C58.9168 96.0394 58.0607 95.5066 56.8237 94.8555C56.4563 94.6622 55.9049 94.1302 55.4425 93.5669C55.3402 93.2258 52.9908 90.9974 60.7822 90.6501C62.3829 90.2944 64.1329 89.9634 65.7901 89.9634C67.0816 89.9634 68.2299 89.13 69.4939 89.13C70.8063 89.13 71.5867 89.5267 72.6422 90.1717C74.1321 91.0822 79.7838 93.9831 80.4048 95.3802C80.6983 96.0405 80.8019 97.2805 80.0961 97.6334C78.212 98.5755 75.9685 98.536 73.9771 99.1998C72.397 99.7265 70.763 100.043 69.1853 100.589C68.7718 100.732 67.4649 101.473 67.0324 101.137C65.0994 99.6332 62.5097 98.1783 60.1109 97.7723C59.6584 97.6957 58.2708 97.7398 58.5213 97.0161C58.6209 96.7283 59.0753 95.9118 59.3238 95.7198C59.8202 95.3362 61.275 95.7847 61.793 95.9049C62.4259 96.124 67.622 98.1042 67.7655 98.8217C67.8506 99.2472 67.7013 100.366 67.1327 99.6551C66.1539 98.4315 69.9637 97.179 70.4353 97.047C72.6175 96.4359 74.8919 96.7642 77.0945 96.2136C77.6727 96.069 78.6867 95.9333 79.1239 95.5191C79.3478 95.307 78.5134 94.708 78.3523 94.5469C76.7912 92.9858 74.5977 91.9889 72.6422 90.9974C71.906 90.6241 70.8941 90.0113 70.0881 89.8322C69.217 89.6386 68.0457 90.3151 67.2562 90.5884C66.6745 90.7898 66.0399 90.9401 65.4351 91.0745C64.6897 91.2402 64.4944 91.1702 65.3271 91.3832C65.7875 91.501 66.2557 91.8629 66.6852 92.0776C67.4684 92.4692 68.2337 92.9026 69.0464 93.2351C69.6791 93.494 70.8152 93.6585 71.3458 94.1302C71.8317 94.5621 67.8225 95.8851 67.4645 96.0593C67.1527 96.1552 66.6076 95.5238 66.3302 95.3725C64.2713 93.8303 58.6839 92.7674 57.9349 92.3554C57.2135 92.0517 57.5182 93.7764 57.5182 94.1302C57.5182 97.1985 57.4486 100.279 57.3793 103.328C57.3633 104.032 57.3793 104.738 57.3793 105.442C57.3793 106.519 58.5172 106.353 59.455 106.353C60.1997 106.353 63.0501 104.334 63.4983 103.637C64.6932 102.382 66.2049 102.139 67.8581 102.016C69.0603 101.927 69.969 101.854 71.0989 102.217C71.9544 102.492 72.8887 103.222 71.3767 103.575C70.024 103.891 68.6439 104.008 67.2639 104.123C66.7603 104.165 66.216 104.044 66.7546 103.506C67.6612 102.599 69.4073 102.936 70.3659 101.978C70.7438 101.6 70.4906 100.239 70.798 100.103C71.4618 99.8076 72.1439 99.5469 72.7965 99.2384C73.6203 98.849 74.4643 98.5011 75.2812 98.0964C76.0896 97.6958 77.466 97.2992 78.0127 96.5222C78.2476 96.1885 78.0745 95.3741 78.0745 94.9944C78.0745 94.3004 78.0733 93.6264 78.2134 92.9419C78.6001 91.0511 79.8566 86.014 80.3816 84.1607C80.8536 82.6399 81.3708 81.089 81.9095 79.5926C83.0673 76.3765 84.7406 72.9803 88.3063 71.9998C89.9339 71.5522 91.7483 71.704 93.4145 71.5214C94.7837 71.3713 96.2826 71.3516 97.6585 71.3516M97.6585 71.3516C98.168 71.3516 98.5943 71.3611 99.0783 71.1818C100.38 70.6996 101.675 69.5005 102.296 68.3037C102.642 67.6126 104.693 64.1251 102.651 64.3529C101.342 64.7457 98.2068 67.0392 97.6585 71.3516Z" stroke="#CB6700" stroke-width="0.580703" stroke-linecap="round"/>
<path d="M34.1908 99.2825C33.8418 99.0033 32.0356 102.27 31.9421 102.654C30.7268 107.65 27.7379 115.369 29.0205 120.339C29.9614 120.9 36.661 124.807 37.5287 125.464C38.6443 126.308 41.0474 127.686 41.0474 127.686C41.3194 127.931 41.6331 128.143 41.9425 128.349C42.146 128.485 42.355 128.66 42.5752 128.766C43.0169 128.979 43.3153 127.149 43.3623 126.945C44.5256 121.881 43.9672 116.579 43.6401 111.381C43.5779 111.065 43.059 108.154 42.5984 108.873C41.7167 110.251 42.1894 112.161 42.1894 114.229C42.1894 116.861 42.9263 120.914 43.0999 122.254C43.3615 124.272 43.3733 128.905 46.3562 128.905C47.3644 128.905 47.7276 128.506 48.4319 127.802C49.3117 126.922 47.8214 107.809 47.8214 106.615" stroke="#CB6700" stroke-width="0.580703" stroke-linecap="round"/>
</svg>
