<svg width="381" height="512" viewBox="0 0 381 512" fill="none" xmlns="http://www.w3.org/2000/svg">
<path d="M377.5 494C328.325 510.5 310.673 492.763 310.673 486.697C310.673 480.631 318.112 473.432 321.615 468.581C327.092 460.998 328.325 453.9 328.325 444.89C328.325 440.281 326.021 437.384 323.886 433.484C319.721 425.87 317.186 417.084 315.112 408.709C312.67 398.849 309.979 389.09 309.744 378.876C309.554 370.622 310.673 362.666 310.673 354.308C310.673 332.854 303.019 312.061 301.434 290.668C301.202 287.53 301.895 284.644 300.247 281.842C297.606 277.352 295.118 288.345 294.879 289.275C293.274 295.519 293.432 302.572 291.163 308.578C289.12 313.987 286.717 319.496 285.589 325.198C282.733 339.625 280.944 353.081 280.944 367.728C280.944 378.754 281.745 390.019 283.008 400.967C284.075 410.216 288.167 419.039 289.253 428.271C289.925 433.981 290.234 440.533 290.234 446.284C290.234 448.862 290.491 451.992 288.789 454.181C284.116 460.189 273.925 460.367 267.627 463.936C264.845 465.512 253.023 473.366 259.782 477.871C262.882 479.938 267.539 480.201 271.034 480.659C279.224 481.73 287.589 482.517 295.86 482.517C300.185 482.517 305.528 483.354 309.692 482.052C321.615 464.865 344.631 474.854 353 472.762C358.14 471.619 367.944 468.284 371.835 463.42C374.487 460.105 374.777 456.18 374.777 452.168C374.777 442.086 374.777 432.004 374.777 421.922C374.777 408.277 372.067 393.962 370.855 380.321C369.131 360.924 368.078 341.877 364.145 322.772C361.898 311.857 364.046 299.606 358.88 289.275C353.129 277.773 346.751 268.907 336.17 261.92C327.467 256.172 321.55 251.184 310.88 251.184C303.396 251.184 295.923 249.12 288.376 250.771C278.447 252.943 272.637 252.109 264.427 246.539C256.525 241.177 251.228 233.162 242.801 228.422C235.917 224.55 234.591 224.492 228.917 230.796C224.625 235.565 219.572 239.165 215.91 244.474C214.027 247.205 211.355 248.775 208.478 250.255C200.261 254.481 192.32 258.569 183.187 260.268C173.752 262.023 164.619 265.463 155.471 268.423C144.044 272.12 134.24 278.784 123.005 282.359C112.539 285.689 83.0565 296.648 83.0565 276.733C83.0565 270.33 93.0961 266.009 98.3342 265.326C111.002 263.674 124.099 263.262 136.941 263.262C144.468 263.262 153.039 267.281 158.309 272.552C167.108 281.351 165.524 291.106 168.064 302.281C173.116 324.507 175.42 347.559 177.613 370.308C180.026 395.348 175.961 420.585 175.961 445.561C175.961 454.707 175.386 463.648 174.981 472.762C174.658 480.023 173.174 501.759 173.174 494.491C173.174 483.623 171.316 472.805 171.316 461.871C171.316 452.275 171.471 442.665 171.316 433.071C171.147 422.574 169.426 410.958 165.277 401.277C162.678 395.213 152.7 389.43 147.625 385.483C142.782 381.716 135.539 380.321 129.509 380.321C123.444 380.321 118.428 379.153 112.683 378.515C108.269 378.025 104.191 376.549 99.7794 375.883C94.5973 375.1 89.0156 375.676 83.7791 375.676C74.2955 375.676 64.6569 375.164 55.1851 375.676C49.6519 375.975 42.7835 381.574 38.9267 385.431C35.0721 389.286 36.3809 393.6 35.6235 398.902C32.9681 417.49 32.8879 436.681 32.8879 455.574C32.8879 461.839 31.6602 466.424 36.1912 470.955C41.4509 476.215 45.8946 480.138 45.8946 488.091C45.8946 497.57 34.5749 505.14 26.3846 508.065C19.9424 510.366 10.465 508.95 6.15204 503.678C2.92601 499.735 1.94602 486.855 4.29395 482.723C8.23492 475.787 15.7471 472.204 19.4167 464.865C21.3556 460.987 21.5243 456.124 21.791 451.858C22.2162 445.054 23.7965 438.255 24.4749 431.471C25.0199 426.021 24.5265 420.269 24.5265 414.799C24.5265 404.769 26.3846 395.015 26.3846 384.967C26.3846 376.271 28.4425 367.503 29.8943 358.953C31.1903 351.321 31.9589 344.713 31.9589 336.863C31.9589 325.861 33.8174 314.585 34.6944 303.623C35.4963 293.6 37.4189 284.93 42.1268 275.907C44.5739 271.217 50.4019 267.505 55.3915 265.842C57.9958 264.974 70.2039 261.916 70.9789 266.049C71.9449 271.201 111.747 249.781 116.502 247.468C122.121 244.734 127.431 241.618 133.173 239.106C137.759 237.1 144.488 232.624 149.432 231.726C155.457 230.63 169.026 225.723 171.729 219.545C175.329 211.316 175.786 200.375 175.961 191.518C176.136 182.675 179.452 168.928 176.684 159.931C173.292 148.907 167.846 169.633 167.084 172.266C165.303 178.418 162.798 184.365 160.632 190.383C158.146 197.288 153.68 202.842 150.412 209.377C146.57 217.061 138 219.387 131.161 223.519C119.228 230.728 106.267 237.925 95.5986 246.952C93.2711 248.921 90.7302 250.819 88.6307 253.042C85.9234 255.909 94.274 254.9 95.8567 254.9C107.322 254.9 116.587 249.15 127.444 246.539C136.711 244.31 146.035 240.602 154.645 236.835C164.248 232.634 171.686 229.925 177.974 220.887C183.61 212.786 190.085 205.658 195.265 197.299C202.672 185.346 208.903 173.561 214.981 161.066C219.966 150.82 230.191 140.349 241.459 137.427C252.85 134.474 260.834 141.265 269.795 147.131C282.691 155.572 293.936 166.215 306.492 174.95C314.539 180.548 321.058 187.532 328.789 193.583C336.625 199.715 341.863 208.399 350.003 214.332C353.199 216.661 355.841 217.46 352.687 213.093C348.422 207.189 344.552 201.106 340.196 195.235C329.573 180.916 316.302 166.817 302.312 155.905C293.754 149.23 286.743 140.773 277.382 135.156C271.597 131.685 267.623 125.508 261.64 121.737C253.882 116.846 245.314 114.911 237.278 111.104C227.092 106.279 213.888 108.111 202.749 108.111C189.928 108.111 178.651 108.53 168.735 98.6137C166.746 96.6247 164.663 92.8331 165.948 89.9426C167.731 85.9303 177.535 90.2917 179.574 91.1813C186.223 94.0813 193.06 98.5873 200.168 100.11C202.95 100.707 213.175 103.379 215.859 101.143C225.776 92.8779 197.633 83.1899 193.562 80.136C187.876 75.8718 184.749 69.8811 180.4 64.4454C176.251 59.259 175.203 53.1021 171.522 47.7225C168.751 43.6717 166.145 39.6235 163.161 35.6449C159.904 31.3028 155.254 28.0363 152.219 23.5673C147.99 17.3418 144.441 14.4718 137.922 10.5606C134.309 8.39318 130.081 3.65635 125.793 3.17988C116.697 2.16928 106.204 5.51446 98.8503 10.7671C92.7961 15.0915 84.7822 19.6234 77.7403 22.1221C72.8052 23.8733 66.8241 24.3879 61.6368 25.4254C57.7803 26.1967 52.2984 26.0615 49.1462 28.7287C42.7545 34.1371 46.1411 48.5168 44.7591 56.2904C44.3814 58.4152 42.5897 64.9726 44.9656 66.5099C50.9624 70.3902 59.0829 69.919 66.1272 70.0197C70.504 70.0822 75.3619 69.4036 79.7015 70.0713C82.6924 70.5314 85.5571 73.4191 88.6824 74.2004C92.8755 75.2487 106.001 76.8667 108.089 72.3423C109.751 68.7406 110.07 65.0892 111.444 61.555C112.78 58.12 113.891 52.8223 117.844 51.4387C123.967 49.2959 130.87 56.8171 133.225 61.6582C134.755 64.8031 137.81 75.7648 130.902 73.2197C127.006 71.7843 124.603 67.3279 121.147 65.168C120.293 64.6339 118.449 61.3957 119.496 64.6518C120.802 68.7151 122.426 72.7353 123.935 76.7295C127.472 86.0945 134.154 93.8563 134.154 103.93C134.154 110.438 124.162 113.141 119.238 113.633C109.108 114.646 100.895 106.854 94.7212 99.5427C87.2834 90.7348 79.7428 82.0145 72.837 72.8068" stroke="#7B6251" stroke-width="5.54025" stroke-linecap="round"/>
</svg>
