<svg width="500" height="421" viewBox="0 0 500 421" fill="none" xmlns="http://www.w3.org/2000/svg">
<path d="M405.836 405.595C365.021 419.124 350.37 404.581 350.37 399.607C350.37 394.633 356.544 388.73 359.452 384.752C363.997 378.535 365.021 372.715 365.021 365.327C365.021 361.548 363.108 359.173 361.337 355.974C357.879 349.732 355.775 342.528 354.054 335.66C352.027 327.576 349.793 319.574 349.598 311.199C349.441 304.431 350.37 297.907 350.37 291.055C350.37 273.463 344.017 256.414 342.701 238.873C342.508 236.3 343.084 233.934 341.716 231.636C339.524 227.955 337.459 236.968 337.261 237.731C335.928 242.85 336.059 248.634 334.176 253.558C332.481 257.993 330.486 262.51 329.55 267.186C327.18 279.015 325.694 290.048 325.694 302.058C325.694 311.099 326.359 320.335 327.408 329.312C328.293 336.896 331.69 344.131 332.591 351.7C333.149 356.382 333.405 361.755 333.405 366.47C333.405 368.584 333.619 371.15 332.206 372.945C328.327 377.871 319.869 378.017 314.642 380.943C312.332 382.236 302.52 388.675 308.13 392.37C310.703 394.065 314.568 394.28 317.469 394.655C324.267 395.534 331.21 396.179 338.075 396.179C341.664 396.179 346.099 396.865 349.556 395.798C359.452 381.705 378.554 389.896 385.501 388.18C389.767 387.244 397.904 384.509 401.134 380.52C403.335 377.802 403.576 374.584 403.576 371.294C403.576 363.028 403.576 354.761 403.576 346.494C403.576 335.306 401.327 323.569 400.32 312.384C398.889 296.479 398.016 280.862 394.751 265.197C392.886 256.247 394.669 246.202 390.382 237.731C385.608 228.3 380.314 221.03 371.532 215.301C364.309 210.588 359.398 206.498 350.541 206.498C344.33 206.498 338.127 204.806 331.863 206.159C323.622 207.94 318.799 207.257 311.985 202.689C305.427 198.292 301.03 191.721 294.036 187.835C288.322 184.66 287.221 184.612 282.512 189.781C278.95 193.691 274.755 196.643 271.716 200.996C270.153 203.235 267.936 204.523 265.548 205.736C258.727 209.201 252.137 212.553 244.556 213.946C236.725 215.386 229.145 218.206 221.552 220.633C212.068 223.664 203.93 229.129 194.606 232.06C185.918 234.79 161.448 243.776 161.448 227.447C161.448 222.196 169.781 218.654 174.128 218.094C184.643 216.739 195.513 216.401 206.172 216.401C212.42 216.401 219.533 219.697 223.908 224.019C231.211 231.233 229.896 239.232 232.004 248.395C236.197 266.619 238.11 285.52 239.93 304.174C241.933 324.705 238.559 345.398 238.559 365.877C238.559 373.376 238.081 380.708 237.745 388.18C237.477 394.134 236.245 411.957 236.245 405.997C236.245 397.086 234.703 388.215 234.703 379.251C234.703 371.382 234.832 363.503 234.703 355.636C234.563 347.029 233.135 337.505 229.691 329.566C227.534 324.594 219.252 319.853 215.04 316.616C211.02 313.527 205.008 312.384 200.003 312.384C194.97 312.384 190.806 311.426 186.038 310.903C182.375 310.501 178.989 309.291 175.328 308.745C171.027 308.103 166.394 308.575 162.048 308.575C154.176 308.575 146.176 308.155 138.315 308.575C133.722 308.82 128.021 313.411 124.82 316.574C121.621 319.734 122.707 323.272 122.078 327.62C119.874 342.86 119.808 358.596 119.808 374.088C119.808 379.224 118.789 382.984 122.55 386.699C126.915 391.012 130.603 394.228 130.603 400.75C130.603 408.522 121.208 414.729 114.41 417.128C109.063 419.014 101.197 417.853 97.6171 413.53C94.9395 410.297 94.1261 399.736 96.0749 396.348C99.3459 390.661 105.581 387.723 108.627 381.705C110.236 378.526 110.376 374.538 110.597 371.04C110.95 365.461 112.262 359.886 112.825 354.324C113.277 349.855 112.868 345.139 112.868 340.654C112.868 332.43 114.41 324.432 114.41 316.193C114.41 309.063 116.118 301.874 117.323 294.863C118.399 288.606 119.037 283.187 119.037 276.75C119.037 267.729 120.579 258.484 121.307 249.496C121.973 241.277 123.569 234.168 127.476 226.77C129.507 222.924 134.345 219.881 138.486 218.517C140.647 217.805 150.78 215.297 151.423 218.686C152.225 222.911 185.261 205.348 189.208 203.451C193.871 201.21 198.279 198.655 203.045 196.595C206.851 194.95 212.436 191.28 216.539 190.543C221.54 189.645 232.802 185.621 235.046 180.555C238.034 173.808 238.413 164.837 238.559 157.575C238.704 150.324 241.456 139.053 239.158 131.675C236.343 122.636 231.823 139.63 231.19 141.79C229.712 146.833 227.634 151.71 225.835 156.644C223.772 162.306 220.065 166.86 217.353 172.218C214.164 178.519 207.051 180.426 201.374 183.814C191.47 189.725 180.712 195.626 171.858 203.028C169.926 204.643 167.817 206.199 166.074 208.021C163.827 210.372 170.758 209.545 172.072 209.545C181.588 209.545 189.278 204.83 198.29 202.689C205.981 200.862 213.72 197.821 220.866 194.733C228.836 191.288 235.011 189.067 240.23 181.656C244.907 175.013 250.281 169.169 254.581 162.315C260.729 152.514 265.9 142.851 270.945 132.606C275.083 124.204 283.569 115.619 292.922 113.223C302.376 110.802 309.003 116.37 316.441 121.18C327.145 128.101 336.478 136.828 346.9 143.99C353.578 148.58 358.989 154.307 365.406 159.268C371.91 164.296 376.257 171.417 383.013 176.281C385.666 178.191 387.859 178.846 385.241 175.265C381.702 170.424 378.489 165.436 374.874 160.622C366.057 148.882 355.042 137.322 343.43 128.374C336.326 122.901 330.508 115.967 322.738 111.361C317.936 108.515 314.638 103.451 309.672 100.358C303.233 96.3476 296.122 94.7611 289.452 91.6399C280.997 87.6835 270.038 89.1853 260.792 89.1853C250.151 89.1853 240.792 89.529 232.561 81.3983C230.91 79.7674 229.182 76.6585 230.248 74.2884C231.728 70.9986 239.865 74.5747 241.557 75.3041C247.076 77.6819 252.751 81.3766 258.65 82.6256C260.96 83.1144 269.446 85.3054 271.674 83.472C279.905 76.6952 256.547 68.7516 253.167 66.2475C248.448 62.7511 245.852 57.839 242.243 53.382C238.799 49.1294 237.93 44.0811 234.875 39.6702C232.574 36.3487 230.411 33.0293 227.935 29.7671C225.232 26.2068 221.372 23.5285 218.853 19.8641C215.343 14.7596 212.397 12.4063 206.986 9.19934C203.988 7.42213 200.478 3.53817 196.919 3.14749C189.37 2.31885 180.66 5.06173 174.557 9.36862C169.532 12.9144 162.88 16.6303 157.035 18.6791C152.939 20.115 147.975 20.537 143.669 21.3877C140.469 22.0201 135.919 21.9092 133.302 24.0962C127.997 28.5308 130.808 40.3214 129.661 46.6954C129.347 48.4376 127.86 53.8143 129.832 55.0749C134.81 58.2565 141.55 57.8702 147.397 57.9527C151.029 58.0039 155.061 57.4476 158.663 57.995C161.146 58.3723 163.523 60.74 166.117 61.3806C169.598 62.2402 180.492 63.5669 182.225 59.8571C183.605 56.9039 183.869 53.91 185.009 51.0121C186.118 48.1955 187.041 43.8517 190.322 42.7173C195.403 40.9602 201.133 47.1273 203.088 51.0967C204.358 53.6753 206.894 62.6634 201.16 60.5765C197.926 59.3996 195.932 55.7456 193.063 53.9745C192.354 53.5366 190.824 50.8815 191.692 53.5513C192.776 56.883 194.124 60.1794 195.377 63.4543C198.313 71.1332 203.859 77.4975 203.859 85.7573C203.859 91.0933 195.565 93.3098 191.478 93.7136C183.071 94.5441 176.254 88.1552 171.13 82.16C164.956 74.938 158.697 67.7878 152.966 60.238" stroke="#7B6251" stroke-width="4.59841" stroke-linecap="round"/>
</svg>
