<svg width="455" height="273" viewBox="0 0 455 273" fill="none" xmlns="http://www.w3.org/2000/svg">
<path d="M0.354896 239.985V238.713H2.73073V245.9H1.31114V239.985H0.354896Z" fill="black"/>
<path d="M9.80216 256.415V255.143H12.178V262.33H10.7584V256.415H9.80216Z" fill="black"/>
<path d="M157.044 260.772C157.675 260.247 158.178 259.81 158.552 259.461C158.927 259.106 159.239 258.738 159.489 258.357C159.739 257.976 159.864 257.601 159.864 257.233C159.864 256.898 159.785 256.635 159.627 256.445C159.469 256.254 159.226 256.159 158.897 256.159C158.569 256.159 158.316 256.271 158.138 256.494C157.961 256.711 157.869 257.01 157.862 257.391H156.522C156.548 256.602 156.781 256.004 157.222 255.597C157.668 255.189 158.234 254.986 158.917 254.986C159.666 254.986 160.241 255.186 160.642 255.587C161.043 255.981 161.244 256.504 161.244 257.155C161.244 257.667 161.106 258.157 160.83 258.623C160.554 259.09 160.238 259.497 159.883 259.846C159.528 260.188 159.065 260.602 158.493 261.088H161.401V262.231H156.532V261.206L157.044 260.772Z" fill="black"/>
<path d="M0.956247 181.907C1.58717 181.381 2.08994 180.944 2.46455 180.596C2.83917 180.241 3.15134 179.873 3.40108 179.491C3.65083 179.11 3.7757 178.736 3.7757 178.368C3.7757 178.032 3.69683 177.77 3.5391 177.579C3.38137 177.388 3.1382 177.293 2.80959 177.293C2.48098 177.293 2.22796 177.405 2.05051 177.628C1.87306 177.845 1.78105 178.144 1.77448 178.525H0.433761C0.46005 177.737 0.693361 177.139 1.13369 176.731C1.5806 176.324 2.1458 176.12 2.82931 176.12C3.57853 176.12 4.15359 176.32 4.55449 176.721C4.9554 177.116 5.15585 177.638 5.15585 178.289C5.15585 178.801 5.01783 179.291 4.7418 179.758C4.46577 180.224 4.15031 180.632 3.79541 180.98C3.44052 181.322 2.97718 181.736 2.4054 182.222H5.31358V183.366H0.44362V182.341L0.956247 181.907Z" fill="black"/>
<path d="M302.855 257.036C302.888 256.379 303.118 255.873 303.545 255.518C303.979 255.157 304.547 254.976 305.25 254.976C305.73 254.976 306.141 255.061 306.483 255.232C306.824 255.396 307.081 255.623 307.251 255.912C307.429 256.195 307.518 256.517 307.518 256.878C307.518 257.293 307.409 257.644 307.192 257.933C306.982 258.216 306.729 258.407 306.433 258.505V258.545C306.814 258.663 307.11 258.873 307.32 259.175C307.537 259.478 307.646 259.866 307.646 260.339C307.646 260.733 307.554 261.085 307.37 261.394C307.192 261.702 306.926 261.946 306.571 262.123C306.223 262.294 305.802 262.379 305.309 262.379C304.567 262.379 303.962 262.192 303.495 261.817C303.029 261.443 302.782 260.891 302.756 260.161H304.097C304.11 260.483 304.218 260.743 304.422 260.94C304.632 261.131 304.918 261.226 305.28 261.226C305.615 261.226 305.871 261.134 306.049 260.95C306.233 260.759 306.325 260.516 306.325 260.22C306.325 259.826 306.2 259.543 305.95 259.373C305.7 259.202 305.313 259.116 304.787 259.116H304.501V257.983H304.787C305.72 257.983 306.187 257.67 306.187 257.046C306.187 256.763 306.101 256.543 305.93 256.386C305.766 256.228 305.526 256.149 305.211 256.149C304.902 256.149 304.662 256.234 304.491 256.405C304.327 256.57 304.232 256.78 304.205 257.036H302.855Z" fill="black"/>
<path d="M0.542202 112.039C0.575062 111.381 0.805087 110.875 1.23228 110.52C1.66604 110.159 2.23453 109.978 2.93775 109.978C3.41751 109.978 3.82827 110.064 4.17002 110.235C4.51178 110.399 4.76809 110.626 4.93897 110.915C5.11641 111.197 5.20514 111.519 5.20514 111.881C5.20514 112.295 5.0967 112.647 4.87982 112.936C4.66951 113.218 4.41648 113.409 4.12073 113.508V113.547C4.50192 113.665 4.79766 113.876 5.00797 114.178C5.22485 114.48 5.33329 114.868 5.33329 115.341C5.33329 115.735 5.24128 116.087 5.05726 116.396C4.87982 116.705 4.61364 116.948 4.25875 117.125C3.91042 117.296 3.48981 117.382 2.9969 117.382C2.25424 117.382 1.64961 117.195 1.18299 116.82C0.716364 116.445 0.469908 115.893 0.44362 115.164H1.78434C1.79748 115.486 1.90592 115.745 2.10966 115.943C2.31997 116.133 2.60585 116.228 2.96732 116.228C3.3025 116.228 3.55882 116.136 3.73626 115.952C3.92028 115.762 4.01229 115.519 4.01229 115.223C4.01229 114.829 3.88742 114.546 3.63768 114.375C3.38794 114.204 3.00018 114.119 2.47441 114.119H2.18852V112.985H2.47441C3.40766 112.985 3.87428 112.673 3.87428 112.049C3.87428 111.766 3.78884 111.546 3.61796 111.388C3.45366 111.23 3.21378 111.151 2.89831 111.151C2.58942 111.151 2.34954 111.237 2.17867 111.408C2.01436 111.572 1.91907 111.782 1.89278 112.039H0.542202Z" fill="black"/>
<path d="M448.596 260.93V259.846L451.82 255.232H453.427V259.728H454.294V260.93H453.427V262.33H452.047V260.93H448.596ZM452.135 256.711L450.114 259.728H452.135V256.711Z" fill="black"/>
<path d="M0.463336 48.5679V47.4835L3.68697 42.8699H5.29386V47.3652H6.16138V48.5679H5.29386V49.9678H3.91371V48.5679H0.463336ZM4.00243 44.3486L1.9815 47.3652H4.00243V44.3486Z" fill="black"/>
<line x1="343.799" y1="13.2514" x2="370.498" y2="13.2514" stroke="#CC894B" stroke-width="7.39366"/>
<line x1="219.32" y1="13.144" x2="246.02" y2="13.144" stroke="#FAD1AB" stroke-width="7.39366"/>
<path d="M264.522 10.119L262.6 17H260.974L259.682 12.1005L258.332 17L256.715 17.0099L254.861 10.119H256.34L257.553 15.4621L258.953 10.119H260.49L261.811 15.4325L263.034 10.119H264.522ZM266.124 10.8879C265.88 10.8879 265.677 10.8123 265.512 10.6612C265.355 10.5034 265.276 10.3096 265.276 10.0795C265.276 9.84951 265.355 9.65892 265.512 9.50776C265.677 9.35003 265.88 9.27116 266.124 9.27116C266.367 9.27116 266.567 9.35003 266.725 9.50776C266.889 9.65892 266.971 9.84951 266.971 10.0795C266.971 10.3096 266.889 10.5034 266.725 10.6612C266.567 10.8123 266.367 10.8879 266.124 10.8879ZM266.804 11.5385V17H265.424V11.5385H266.804ZM269.548 9.70492V17H268.167V9.70492H269.548ZM272.291 9.70492V17H270.911V9.70492H272.291ZM274.355 10.8879C274.112 10.8879 273.908 10.8123 273.744 10.6612C273.586 10.5034 273.507 10.3096 273.507 10.0795C273.507 9.84951 273.586 9.65892 273.744 9.50776C273.908 9.35003 274.112 9.27116 274.355 9.27116C274.598 9.27116 274.798 9.35003 274.956 9.50776C275.12 9.65892 275.203 9.84951 275.203 10.0795C275.203 10.3096 275.12 10.5034 274.956 10.6612C274.798 10.8123 274.598 10.8879 274.355 10.8879ZM275.035 11.5385V17H273.655V11.5385H275.035ZM279.425 11.4597C280.076 11.4597 280.601 11.6667 281.002 12.0808C281.403 12.4882 281.604 13.06 281.604 13.7961V17H280.224V13.9834C280.224 13.5496 280.115 13.2177 279.898 12.9877C279.681 12.7511 279.386 12.6328 279.011 12.6328C278.63 12.6328 278.328 12.7511 278.104 12.9877C277.887 13.2177 277.779 13.5496 277.779 13.9834V17H276.399V11.5385H277.779V12.2188C277.963 11.9822 278.196 11.7981 278.479 11.6667C278.768 11.5287 279.083 11.4597 279.425 11.4597ZM285.055 11.4498C285.463 11.4498 285.821 11.532 286.13 11.6963C286.439 11.854 286.682 12.061 286.859 12.3173V11.5385H288.249V17.0394C288.249 17.5455 288.148 17.9957 287.944 18.39C287.74 18.7909 287.435 19.1064 287.027 19.3364C286.62 19.573 286.127 19.6913 285.548 19.6913C284.773 19.6913 284.135 19.5106 283.636 19.1491C283.143 18.7876 282.864 18.2947 282.798 17.6704H284.168C284.24 17.9201 284.395 18.1173 284.632 18.2619C284.875 18.413 285.167 18.4886 285.509 18.4886C285.91 18.4886 286.235 18.367 286.485 18.1238C286.735 17.8872 286.859 17.5258 286.859 17.0394V16.1916C286.682 16.4479 286.436 16.6615 286.12 16.8324C285.811 17.0033 285.456 17.0887 285.055 17.0887C284.595 17.0887 284.175 16.9704 283.794 16.7338C283.412 16.4972 283.11 16.1653 282.887 15.7381C282.67 15.3044 282.561 14.8082 282.561 14.2496C282.561 13.6975 282.67 13.2079 282.887 12.7807C283.11 12.3535 283.409 12.0249 283.784 11.7949C284.165 11.5648 284.589 11.4498 285.055 11.4498ZM286.859 14.2693C286.859 13.9341 286.794 13.6482 286.662 13.4116C286.531 13.1684 286.353 12.9844 286.13 12.8596C285.907 12.7281 285.667 12.6624 285.41 12.6624C285.154 12.6624 284.917 12.7248 284.701 12.8497C284.484 12.9746 284.306 13.1586 284.168 13.4018C284.037 13.6383 283.971 13.921 283.971 14.2496C283.971 14.5782 284.037 14.8673 284.168 15.1171C284.306 15.3603 284.484 15.5476 284.701 15.679C284.924 15.8104 285.161 15.8762 285.41 15.8762C285.667 15.8762 285.907 15.8137 286.13 15.6889C286.353 15.5574 286.531 15.3734 286.662 15.1368C286.794 14.8936 286.859 14.6045 286.859 14.2693ZM296.629 10.119V11.2329H294.795V17H293.415V11.2329H291.582V10.119H296.629ZM300.061 17.0887C299.535 17.0887 299.062 16.9737 298.642 16.7437C298.221 16.5071 297.889 16.1752 297.646 15.748C297.409 15.3208 297.291 14.8279 297.291 14.2693C297.291 13.7106 297.413 13.2177 297.656 12.7905C297.906 12.3634 298.244 12.0347 298.671 11.8047C299.098 11.5681 299.575 11.4498 300.101 11.4498C300.626 11.4498 301.103 11.5681 301.53 11.8047C301.957 12.0347 302.292 12.3634 302.536 12.7905C302.785 13.2177 302.91 13.7106 302.91 14.2693C302.91 14.8279 302.782 15.3208 302.526 15.748C302.276 16.1752 301.934 16.5071 301.501 16.7437C301.073 16.9737 300.594 17.0887 300.061 17.0887ZM300.061 15.886C300.311 15.886 300.544 15.8269 300.761 15.7086C300.985 15.5837 301.162 15.3997 301.294 15.1565C301.425 14.9133 301.491 14.6176 301.491 14.2693C301.491 13.7501 301.353 13.3525 301.077 13.0764C300.807 12.7938 300.475 12.6525 300.081 12.6525C299.687 12.6525 299.355 12.7938 299.085 13.0764C298.822 13.3525 298.691 13.7501 298.691 14.2693C298.691 14.7885 298.819 15.1894 299.075 15.472C299.338 15.748 299.667 15.886 300.061 15.886ZM311.98 10.119V17H310.599V14.0721H307.652V17H306.272V10.119H307.652V12.9483H310.599V10.119H311.98ZM318.415 14.151C318.415 14.3481 318.402 14.5256 318.376 14.6833H314.383C314.416 15.0776 314.554 15.3865 314.797 15.61C315.04 15.8334 315.339 15.9452 315.694 15.9452C316.207 15.9452 316.572 15.725 316.788 15.2847H318.277C318.119 15.8104 317.817 16.2442 317.37 16.586C316.923 16.9211 316.374 17.0887 315.724 17.0887C315.198 17.0887 314.725 16.9737 314.304 16.7437C313.89 16.5071 313.565 16.1752 313.328 15.748C313.098 15.3208 312.983 14.8279 312.983 14.2693C312.983 13.7041 313.098 13.2079 313.328 12.7807C313.558 12.3535 313.88 12.0249 314.294 11.7949C314.708 11.5648 315.185 11.4498 315.724 11.4498C316.243 11.4498 316.706 11.5616 317.114 11.785C317.528 12.0085 317.847 12.3272 318.07 12.7413C318.3 13.1487 318.415 13.6186 318.415 14.151ZM316.986 13.7566C316.979 13.4018 316.851 13.1191 316.601 12.9088C316.351 12.692 316.046 12.5835 315.684 12.5835C315.343 12.5835 315.053 12.6887 314.817 12.899C314.587 13.1027 314.445 13.3886 314.393 13.7566H316.986ZM320.803 9.70492V17H319.422V9.70492H320.803ZM323.546 12.3272C323.724 12.0775 323.967 11.8704 324.276 11.7061C324.591 11.5353 324.949 11.4498 325.35 11.4498C325.817 11.4498 326.238 11.5648 326.612 11.7949C326.993 12.0249 327.292 12.3535 327.509 12.7807C327.733 13.2013 327.844 13.6909 327.844 14.2496C327.844 14.8082 327.733 15.3044 327.509 15.7381C327.292 16.1653 326.993 16.4972 326.612 16.7338C326.238 16.9704 325.817 17.0887 325.35 17.0887C324.949 17.0887 324.595 17.0066 324.286 16.8423C323.983 16.678 323.737 16.4709 323.546 16.2212V19.6026H322.166V11.5385H323.546V12.3272ZM326.435 14.2496C326.435 13.921 326.366 13.6383 326.228 13.4018C326.096 13.1586 325.919 12.9746 325.695 12.8497C325.478 12.7248 325.242 12.6624 324.986 12.6624C324.736 12.6624 324.499 12.7281 324.276 12.8596C324.059 12.9844 323.881 13.1684 323.743 13.4116C323.612 13.6548 323.546 13.9407 323.546 14.2693C323.546 14.5979 323.612 14.8838 323.743 15.1269C323.881 15.3701 324.059 15.5574 324.276 15.6889C324.499 15.8137 324.736 15.8762 324.986 15.8762C325.242 15.8762 325.478 15.8104 325.695 15.679C325.919 15.5476 326.096 15.3603 326.228 15.1171C326.366 14.8739 326.435 14.5847 326.435 14.2496Z" fill="#AAAAAA"/>
<path d="M383.202 15.7963H380.462L380.008 17.1074H378.559L381.033 10.2165H382.64L385.115 17.1074H383.656L383.202 15.7963ZM382.828 14.6922L381.832 11.8136L380.836 14.6922H382.828ZM393.611 11.646L392.014 17.1074H390.525L389.529 13.2923L388.534 17.1074H387.035L385.428 11.646H386.828L387.794 15.8061L388.839 11.646H390.298L391.324 15.7963L392.29 11.646H393.611ZM394.003 14.357C394.003 13.8049 394.111 13.3153 394.328 12.8881C394.551 12.4609 394.85 12.1323 395.225 11.9023C395.606 11.6723 396.03 11.5572 396.497 11.5572C396.904 11.5572 397.259 11.6394 397.561 11.8037C397.87 11.968 398.117 12.175 398.301 12.4248V11.646H399.691V17.1074H398.301V16.3089C398.123 16.5652 397.877 16.7788 397.561 16.9497C397.253 17.114 396.894 17.1961 396.487 17.1961C396.027 17.1961 395.606 17.0778 395.225 16.8413C394.85 16.6047 394.551 16.2728 394.328 15.8456C394.111 15.4118 394.003 14.9156 394.003 14.357ZM398.301 14.3767C398.301 14.0415 398.235 13.7556 398.104 13.519C397.972 13.2759 397.795 13.0918 397.571 12.967C397.348 12.8355 397.108 12.7698 396.852 12.7698C396.595 12.7698 396.359 12.8322 396.142 12.9571C395.925 13.082 395.748 13.266 395.61 13.5092C395.478 13.7458 395.412 14.0284 395.412 14.357C395.412 14.6856 395.478 14.9748 395.61 15.2245C395.748 15.4677 395.925 15.655 396.142 15.7864C396.365 15.9179 396.602 15.9836 396.852 15.9836C397.108 15.9836 397.348 15.9212 397.571 15.7963C397.795 15.6648 397.972 15.4808 398.104 15.2442C398.235 15.0011 398.301 14.7119 398.301 14.3767ZM402.419 12.4938C402.596 12.2046 402.826 11.9779 403.109 11.8136C403.398 11.6493 403.727 11.5671 404.095 11.5671V13.0163H403.73C403.296 13.0163 402.968 13.1181 402.744 13.3219C402.527 13.5256 402.419 13.8805 402.419 14.3866V17.1074H401.039V11.646H402.419V12.4938ZM410.101 14.2584C410.101 14.4556 410.088 14.633 410.062 14.7907H406.069C406.102 15.1851 406.24 15.494 406.483 15.7174C406.727 15.9409 407.026 16.0526 407.381 16.0526C407.893 16.0526 408.258 15.8324 408.475 15.3921H409.963C409.806 15.9179 409.503 16.3516 409.056 16.6934C408.61 17.0286 408.061 17.1961 407.41 17.1961C406.884 17.1961 406.411 17.0811 405.991 16.8511C405.576 16.6145 405.251 16.2826 405.015 15.8554C404.785 15.4282 404.67 14.9353 404.67 14.3767C404.67 13.8115 404.785 13.3153 405.015 12.8881C405.245 12.4609 405.567 12.1323 405.981 11.9023C406.395 11.6723 406.871 11.5572 407.41 11.5572C407.929 11.5572 408.393 11.669 408.8 11.8924C409.214 12.1159 409.533 12.4346 409.756 12.8487C409.986 13.2561 410.101 13.7261 410.101 14.2584ZM408.672 13.8641C408.665 13.5092 408.537 13.2266 408.287 13.0163C408.038 12.7994 407.732 12.6909 407.371 12.6909C407.029 12.6909 406.74 12.7961 406.503 13.0064C406.273 13.2101 406.132 13.496 406.079 13.8641H408.672ZM414.135 11.5671C414.786 11.5671 415.312 11.7741 415.713 12.1882C416.113 12.5956 416.314 13.1674 416.314 13.9035V17.1074H414.934V14.0908C414.934 13.657 414.825 13.3252 414.608 13.0951C414.392 12.8585 414.096 12.7402 413.721 12.7402C413.34 12.7402 413.038 12.8585 412.814 13.0951C412.597 13.3252 412.489 13.657 412.489 14.0908V17.1074H411.109V11.646H412.489V12.3262C412.673 12.0896 412.906 11.9056 413.189 11.7741C413.478 11.6361 413.794 11.5671 414.135 11.5671ZM422.703 14.2584C422.703 14.4556 422.69 14.633 422.664 14.7907H418.671C418.704 15.1851 418.842 15.494 419.085 15.7174C419.329 15.9409 419.628 16.0526 419.982 16.0526C420.495 16.0526 420.86 15.8324 421.077 15.3921H422.565C422.408 15.9179 422.105 16.3516 421.658 16.6934C421.211 17.0286 420.663 17.1961 420.012 17.1961C419.486 17.1961 419.013 17.0811 418.592 16.8511C418.178 16.6145 417.853 16.2826 417.617 15.8554C417.386 15.4282 417.271 14.9353 417.271 14.3767C417.271 13.8115 417.386 13.3153 417.617 12.8881C417.847 12.4609 418.169 12.1323 418.583 11.9023C418.997 11.6723 419.473 11.5572 420.012 11.5572C420.531 11.5572 420.995 11.669 421.402 11.8924C421.816 12.1159 422.135 12.4346 422.358 12.8487C422.588 13.2561 422.703 13.7261 422.703 14.2584ZM421.274 13.8641C421.267 13.5092 421.139 13.2266 420.889 13.0163C420.64 12.7994 420.334 12.6909 419.973 12.6909C419.631 12.6909 419.342 12.7961 419.105 13.0064C418.875 13.2101 418.734 13.496 418.681 13.8641H421.274ZM425.801 17.1961C425.354 17.1961 424.953 17.1173 424.598 16.9595C424.243 16.7952 423.96 16.5751 423.75 16.299C423.546 16.023 423.435 15.7174 423.415 15.3822H424.805C424.831 15.5925 424.933 15.7667 425.111 15.9047C425.295 16.0427 425.521 16.1117 425.791 16.1117C426.054 16.1117 426.257 16.0592 426.402 15.954C426.553 15.8489 426.629 15.7141 426.629 15.5498C426.629 15.3724 426.537 15.2409 426.353 15.1555C426.175 15.0635 425.889 14.9649 425.495 14.8597C425.088 14.7612 424.752 14.6593 424.49 14.5541C424.233 14.449 424.01 14.288 423.819 14.0711C423.635 13.8542 423.543 13.5618 423.543 13.1937C423.543 12.8914 423.629 12.6154 423.799 12.3656C423.977 12.1159 424.227 11.9187 424.549 11.7741C424.877 11.6295 425.262 11.5572 425.702 11.5572C426.353 11.5572 426.872 11.7216 427.26 12.0502C427.647 12.3722 427.861 12.8092 427.9 13.3613H426.579C426.56 13.1444 426.468 12.9735 426.303 12.8487C426.146 12.7172 425.932 12.6515 425.663 12.6515C425.413 12.6515 425.219 12.6975 425.081 12.7895C424.95 12.8815 424.884 13.0097 424.884 13.174C424.884 13.358 424.976 13.4993 425.16 13.5979C425.344 13.6899 425.63 13.7852 426.018 13.8838C426.412 13.9824 426.737 14.0842 426.994 14.1894C427.25 14.2945 427.47 14.4588 427.654 14.6823C427.845 14.8992 427.943 15.1884 427.95 15.5498C427.95 15.8653 427.861 16.1479 427.684 16.3976C427.513 16.6474 427.263 16.8445 426.934 16.9891C426.612 17.1271 426.234 17.1961 425.801 17.1961ZM431.173 17.1961C430.726 17.1961 430.325 17.1173 429.97 16.9595C429.615 16.7952 429.332 16.5751 429.122 16.299C428.918 16.023 428.807 15.7174 428.787 15.3822H430.177C430.203 15.5925 430.305 15.7667 430.483 15.9047C430.667 16.0427 430.893 16.1117 431.163 16.1117C431.426 16.1117 431.629 16.0592 431.774 15.954C431.925 15.8489 432.001 15.7141 432.001 15.5498C432.001 15.3724 431.909 15.2409 431.725 15.1555C431.547 15.0635 431.261 14.9649 430.867 14.8597C430.46 14.7612 430.124 14.6593 429.861 14.5541C429.605 14.449 429.382 14.288 429.191 14.0711C429.007 13.8542 428.915 13.5618 428.915 13.1937C428.915 12.8914 429.001 12.6154 429.171 12.3656C429.349 12.1159 429.599 11.9187 429.921 11.7741C430.249 11.6295 430.634 11.5572 431.074 11.5572C431.725 11.5572 432.244 11.7216 432.632 12.0502C433.019 12.3722 433.233 12.8092 433.272 13.3613H431.951C431.932 13.1444 431.84 12.9735 431.675 12.8487C431.518 12.7172 431.304 12.6515 431.035 12.6515C430.785 12.6515 430.591 12.6975 430.453 12.7895C430.322 12.8815 430.256 13.0097 430.256 13.174C430.256 13.358 430.348 13.4993 430.532 13.5979C430.716 13.6899 431.002 13.7852 431.39 13.8838C431.784 13.9824 432.109 14.0842 432.365 14.1894C432.622 14.2945 432.842 14.4588 433.026 14.6823C433.217 14.8992 433.315 15.1884 433.322 15.5498C433.322 15.8653 433.233 16.1479 433.056 16.3976C432.885 16.6474 432.635 16.8445 432.306 16.9891C431.984 17.1271 431.606 17.1961 431.173 17.1961Z" fill="#AAAAAA"/>
<line x1="12.3223" y1="77.33" x2="451.013" y2="77.33" stroke="#F28E33" stroke-opacity="0.41" stroke-width="4.10759"/>
<line x1="259.189" y1="46.1118" x2="259.189" y2="245.741" stroke="#CC894B" stroke-width="4.10759"/>
<line x1="304.988" y1="245.741" x2="304.988" y2="46.1119" stroke="#D9D9D9" stroke-width="0.410759"/>
<line y1="-0.205379" x2="197.986" y2="-0.205379" transform="matrix(-4.37114e-08 -1 -1 4.37114e-08 158.963 245.33)" stroke="#D9D9D9" stroke-width="0.410759"/>
<line x1="12.3223" y1="179.403" x2="451.013" y2="179.403" stroke="#D9D9D9" stroke-width="0.410759"/>
<line x1="12.3223" y1="113.271" x2="451.013" y2="113.271" stroke="#D9D9D9" stroke-width="0.410759"/>
<path d="M271.328 163.439V170.32H269.947V167.392H267V170.32H265.62V163.439H267V166.268H269.947V163.439H271.328ZM273.386 164.208C273.143 164.208 272.939 164.132 272.775 163.981C272.617 163.823 272.538 163.629 272.538 163.399C272.538 163.169 272.617 162.979 272.775 162.828C272.939 162.67 273.143 162.591 273.386 162.591C273.629 162.591 273.83 162.67 273.987 162.828C274.152 162.979 274.234 163.169 274.234 163.399C274.234 163.629 274.152 163.823 273.987 163.981C273.83 164.132 273.629 164.208 273.386 164.208ZM274.066 164.858V170.32H272.686V164.858H274.066ZM277.569 164.77C277.976 164.77 278.335 164.852 278.644 165.016C278.952 165.174 279.196 165.381 279.373 165.637V164.858H280.763V170.359C280.763 170.865 280.661 171.316 280.457 171.71C280.254 172.111 279.948 172.426 279.541 172.656C279.133 172.893 278.64 173.011 278.062 173.011C277.286 173.011 276.649 172.83 276.149 172.469C275.656 172.107 275.377 171.615 275.311 170.99H276.682C276.754 171.24 276.908 171.437 277.145 171.582C277.388 171.733 277.681 171.808 278.022 171.808C278.423 171.808 278.749 171.687 278.998 171.444C279.248 171.207 279.373 170.846 279.373 170.359V169.511C279.196 169.768 278.949 169.981 278.634 170.152C278.325 170.323 277.97 170.409 277.569 170.409C277.109 170.409 276.688 170.29 276.307 170.054C275.926 169.817 275.624 169.485 275.4 169.058C275.183 168.624 275.075 168.128 275.075 167.569C275.075 167.017 275.183 166.528 275.4 166.101C275.624 165.673 275.923 165.345 276.297 165.115C276.678 164.885 277.102 164.77 277.569 164.77ZM279.373 167.589C279.373 167.254 279.307 166.968 279.176 166.731C279.044 166.488 278.867 166.304 278.644 166.179C278.42 166.048 278.18 165.982 277.924 165.982C277.668 165.982 277.431 166.045 277.214 166.17C276.997 166.294 276.82 166.478 276.682 166.722C276.55 166.958 276.485 167.241 276.485 167.569C276.485 167.898 276.55 168.187 276.682 168.437C276.82 168.68 276.997 168.867 277.214 168.999C277.438 169.13 277.674 169.196 277.924 169.196C278.18 169.196 278.42 169.134 278.644 169.009C278.867 168.877 279.044 168.693 279.176 168.457C279.307 168.213 279.373 167.924 279.373 167.589ZM285.187 164.78C285.601 164.78 285.969 164.872 286.291 165.056C286.613 165.233 286.863 165.499 287.04 165.854C287.224 166.202 287.316 166.623 287.316 167.116V170.32H285.936V167.303C285.936 166.869 285.828 166.538 285.611 166.308C285.394 166.071 285.098 165.953 284.723 165.953C284.342 165.953 284.04 166.071 283.816 166.308C283.6 166.538 283.491 166.869 283.491 167.303V170.32H282.111V163.025H283.491V165.539C283.669 165.302 283.905 165.118 284.201 164.987C284.497 164.849 284.825 164.78 285.187 164.78ZM295.197 169.009H292.456L292.003 170.32H290.554L293.028 163.429H294.635L297.109 170.32H295.65L295.197 169.009ZM294.822 167.905L293.827 165.026L292.831 167.905H294.822ZM305.605 164.858L304.008 170.32H302.52L301.524 166.505L300.528 170.32H299.03L297.423 164.858H298.823L299.789 169.019L300.834 164.858H302.293L303.318 169.009L304.284 164.858H305.605ZM305.997 167.569C305.997 167.017 306.106 166.528 306.323 166.101C306.546 165.673 306.845 165.345 307.22 165.115C307.601 164.885 308.025 164.77 308.491 164.77C308.899 164.77 309.254 164.852 309.556 165.016C309.865 165.18 310.111 165.387 310.295 165.637V164.858H311.685V170.32H310.295V169.521C310.118 169.778 309.872 169.991 309.556 170.162C309.247 170.326 308.889 170.409 308.482 170.409C308.022 170.409 307.601 170.29 307.22 170.054C306.845 169.817 306.546 169.485 306.323 169.058C306.106 168.624 305.997 168.128 305.997 167.569ZM310.295 167.589C310.295 167.254 310.23 166.968 310.098 166.731C309.967 166.488 309.789 166.304 309.566 166.179C309.343 166.048 309.103 165.982 308.846 165.982C308.59 165.982 308.353 166.045 308.137 166.17C307.92 166.294 307.742 166.478 307.604 166.722C307.473 166.958 307.407 167.241 307.407 167.569C307.407 167.898 307.473 168.187 307.604 168.437C307.742 168.68 307.92 168.867 308.137 168.999C308.36 169.13 308.597 169.196 308.846 169.196C309.103 169.196 309.343 169.134 309.566 169.009C309.789 168.877 309.967 168.693 310.098 168.457C310.23 168.213 310.295 167.924 310.295 167.589ZM314.414 165.706C314.591 165.417 314.821 165.19 315.104 165.026C315.393 164.862 315.721 164.78 316.089 164.78V166.229H315.725C315.291 166.229 314.962 166.331 314.739 166.534C314.522 166.738 314.414 167.093 314.414 167.599V170.32H313.033V164.858H314.414V165.706ZM322.096 167.471C322.096 167.668 322.083 167.845 322.057 168.003H318.064C318.097 168.397 318.235 168.706 318.478 168.93C318.721 169.153 319.02 169.265 319.375 169.265C319.888 169.265 320.253 169.045 320.469 168.604H321.958C321.8 169.13 321.498 169.564 321.051 169.906C320.604 170.241 320.055 170.409 319.405 170.409C318.879 170.409 318.406 170.294 317.985 170.064C317.571 169.827 317.246 169.495 317.009 169.068C316.779 168.641 316.664 168.148 316.664 167.589C316.664 167.024 316.779 166.528 317.009 166.101C317.239 165.673 317.561 165.345 317.975 165.115C318.389 164.885 318.866 164.77 319.405 164.77C319.924 164.77 320.387 164.881 320.795 165.105C321.209 165.328 321.528 165.647 321.751 166.061C321.981 166.469 322.096 166.938 322.096 167.471ZM320.667 167.076C320.66 166.722 320.532 166.439 320.282 166.229C320.032 166.012 319.727 165.903 319.365 165.903C319.024 165.903 318.734 166.008 318.498 166.219C318.268 166.423 318.126 166.708 318.074 167.076H320.667ZM326.13 164.78C326.781 164.78 327.306 164.987 327.707 165.401C328.108 165.808 328.309 166.38 328.309 167.116V170.32H326.928V167.303C326.928 166.869 326.82 166.538 326.603 166.308C326.386 166.071 326.09 165.953 325.716 165.953C325.335 165.953 325.032 166.071 324.809 166.308C324.592 166.538 324.484 166.869 324.484 167.303V170.32H323.103V164.858H324.484V165.539C324.668 165.302 324.901 165.118 325.184 164.987C325.473 164.849 325.788 164.78 326.13 164.78ZM334.698 167.471C334.698 167.668 334.685 167.845 334.659 168.003H330.666C330.699 168.397 330.837 168.706 331.08 168.93C331.323 169.153 331.622 169.265 331.977 169.265C332.49 169.265 332.855 169.045 333.071 168.604H334.56C334.402 169.13 334.1 169.564 333.653 169.906C333.206 170.241 332.657 170.409 332.007 170.409C331.481 170.409 331.008 170.294 330.587 170.064C330.173 169.827 329.848 169.495 329.611 169.068C329.381 168.641 329.266 168.148 329.266 167.589C329.266 167.024 329.381 166.528 329.611 166.101C329.841 165.673 330.163 165.345 330.577 165.115C330.991 164.885 331.468 164.77 332.007 164.77C332.526 164.77 332.989 164.881 333.397 165.105C333.811 165.328 334.13 165.647 334.353 166.061C334.583 166.469 334.698 166.938 334.698 167.471ZM333.269 167.076C333.262 166.722 333.134 166.439 332.884 166.229C332.634 166.012 332.329 165.903 331.967 165.903C331.626 165.903 331.336 166.008 331.1 166.219C330.87 166.423 330.728 166.708 330.676 167.076H333.269ZM337.795 170.409C337.348 170.409 336.948 170.33 336.593 170.172C336.238 170.008 335.955 169.787 335.745 169.511C335.541 169.235 335.429 168.93 335.41 168.595H336.8C336.826 168.805 336.928 168.979 337.105 169.117C337.289 169.255 337.516 169.324 337.785 169.324C338.048 169.324 338.252 169.272 338.397 169.166C338.548 169.061 338.623 168.927 338.623 168.762C338.623 168.585 338.531 168.453 338.347 168.368C338.17 168.276 337.884 168.177 337.49 168.072C337.082 167.974 336.747 167.872 336.484 167.767C336.228 167.661 336.004 167.5 335.814 167.283C335.63 167.067 335.538 166.774 335.538 166.406C335.538 166.104 335.623 165.828 335.794 165.578C335.972 165.328 336.221 165.131 336.543 164.987C336.872 164.842 337.256 164.77 337.697 164.77C338.347 164.77 338.867 164.934 339.254 165.263C339.642 165.585 339.856 166.022 339.895 166.574H338.574C338.554 166.357 338.462 166.186 338.298 166.061C338.14 165.93 337.927 165.864 337.657 165.864C337.408 165.864 337.214 165.91 337.076 166.002C336.944 166.094 336.879 166.222 336.879 166.386C336.879 166.57 336.971 166.712 337.155 166.81C337.339 166.902 337.624 166.998 338.012 167.096C338.407 167.195 338.732 167.297 338.988 167.402C339.245 167.507 339.465 167.671 339.649 167.895C339.839 168.112 339.938 168.401 339.944 168.762C339.944 169.078 339.856 169.36 339.678 169.61C339.507 169.86 339.258 170.057 338.929 170.202C338.607 170.34 338.229 170.409 337.795 170.409ZM343.167 170.409C342.72 170.409 342.319 170.33 341.965 170.172C341.61 170.008 341.327 169.787 341.117 169.511C340.913 169.235 340.801 168.93 340.782 168.595H342.172C342.198 168.805 342.3 168.979 342.477 169.117C342.661 169.255 342.888 169.324 343.157 169.324C343.42 169.324 343.624 169.272 343.769 169.166C343.92 169.061 343.995 168.927 343.995 168.762C343.995 168.585 343.903 168.453 343.719 168.368C343.542 168.276 343.256 168.177 342.862 168.072C342.454 167.974 342.119 167.872 341.856 167.767C341.6 167.661 341.376 167.5 341.186 167.283C341.002 167.067 340.91 166.774 340.91 166.406C340.91 166.104 340.995 165.828 341.166 165.578C341.344 165.328 341.593 165.131 341.915 164.987C342.244 164.842 342.628 164.77 343.069 164.77C343.719 164.77 344.239 164.934 344.626 165.263C345.014 165.585 345.228 166.022 345.267 166.574H343.946C343.926 166.357 343.834 166.186 343.67 166.061C343.512 165.93 343.299 165.864 343.029 165.864C342.78 165.864 342.586 165.91 342.448 166.002C342.316 166.094 342.25 166.222 342.25 166.386C342.25 166.57 342.343 166.712 342.527 166.81C342.711 166.902 342.996 166.998 343.384 167.096C343.779 167.195 344.104 167.297 344.36 167.402C344.616 167.507 344.837 167.671 345.021 167.895C345.211 168.112 345.31 168.401 345.316 168.762C345.316 169.078 345.228 169.36 345.05 169.61C344.879 169.86 344.63 170.057 344.301 170.202C343.979 170.34 343.601 170.409 343.167 170.409ZM347.958 168.871L346.804 171.641H345.917L346.558 168.871H347.958ZM352.682 169.226H354.949V170.32H351.301V163.439H352.682V169.226ZM358.251 170.409C357.726 170.409 357.252 170.294 356.832 170.064C356.411 169.827 356.079 169.495 355.836 169.068C355.599 168.641 355.481 168.148 355.481 167.589C355.481 167.03 355.603 166.538 355.846 166.11C356.096 165.683 356.434 165.355 356.861 165.125C357.288 164.888 357.765 164.77 358.291 164.77C358.816 164.77 359.293 164.888 359.72 165.125C360.147 165.355 360.483 165.683 360.726 166.11C360.975 166.538 361.1 167.03 361.1 167.589C361.1 168.148 360.972 168.641 360.716 169.068C360.466 169.495 360.124 169.827 359.691 170.064C359.263 170.294 358.784 170.409 358.251 170.409ZM358.251 169.206C358.501 169.206 358.734 169.147 358.951 169.028C359.175 168.904 359.352 168.72 359.484 168.476C359.615 168.233 359.681 167.937 359.681 167.589C359.681 167.07 359.543 166.672 359.267 166.396C358.997 166.114 358.665 165.972 358.271 165.972C357.877 165.972 357.545 166.114 357.275 166.396C357.012 166.672 356.881 167.07 356.881 167.589C356.881 168.108 357.009 168.509 357.265 168.792C357.528 169.068 357.857 169.206 358.251 169.206ZM369.684 164.858L368.087 170.32H366.598L365.603 166.505L364.607 170.32H363.108L361.502 164.858H362.901L363.867 169.019L364.912 164.858H366.371L367.397 169.009L368.363 164.858H369.684ZM381.977 163.439L380.055 170.32H378.428L377.137 165.42L375.786 170.32L374.17 170.33L372.316 163.439H373.795L375.008 168.782L376.407 163.439H377.945L379.266 168.752L380.489 163.439H381.977ZM383.578 164.208C383.335 164.208 383.132 164.132 382.967 163.981C382.809 163.823 382.731 163.629 382.731 163.399C382.731 163.169 382.809 162.979 382.967 162.828C383.132 162.67 383.335 162.591 383.578 162.591C383.822 162.591 384.022 162.67 384.18 162.828C384.344 162.979 384.426 163.169 384.426 163.399C384.426 163.629 384.344 163.823 384.18 163.981C384.022 164.132 383.822 164.208 383.578 164.208ZM384.259 164.858V170.32H382.878V164.858H384.259ZM387.002 163.025V170.32H385.622V163.025H387.002ZM389.746 163.025V170.32H388.366V163.025H389.746ZM391.81 164.208C391.566 164.208 391.363 164.132 391.198 163.981C391.041 163.823 390.962 163.629 390.962 163.399C390.962 163.169 391.041 162.979 391.198 162.828C391.363 162.67 391.566 162.591 391.81 162.591C392.053 162.591 392.253 162.67 392.411 162.828C392.575 162.979 392.657 163.169 392.657 163.399C392.657 163.629 392.575 163.823 392.411 163.981C392.253 164.132 392.053 164.208 391.81 164.208ZM392.49 164.858V170.32H391.11V164.858H392.49ZM396.88 164.78C397.531 164.78 398.056 164.987 398.457 165.401C398.858 165.808 399.059 166.38 399.059 167.116V170.32H397.678V167.303C397.678 166.869 397.57 166.538 397.353 166.308C397.136 166.071 396.841 165.953 396.466 165.953C396.085 165.953 395.782 166.071 395.559 166.308C395.342 166.538 395.234 166.869 395.234 167.303V170.32H393.853V164.858H395.234V165.539C395.418 165.302 395.651 165.118 395.934 164.987C396.223 164.849 396.538 164.78 396.88 164.78ZM402.51 164.77C402.918 164.77 403.276 164.852 403.585 165.016C403.894 165.174 404.137 165.381 404.314 165.637V164.858H405.704V170.359C405.704 170.865 405.602 171.316 405.399 171.71C405.195 172.111 404.889 172.426 404.482 172.656C404.074 172.893 403.582 173.011 403.003 173.011C402.228 173.011 401.59 172.83 401.091 172.469C400.598 172.107 400.318 171.615 400.253 170.99H401.623C401.695 171.24 401.85 171.437 402.086 171.582C402.33 171.733 402.622 171.808 402.964 171.808C403.365 171.808 403.69 171.687 403.94 171.444C404.189 171.207 404.314 170.846 404.314 170.359V169.511C404.137 169.768 403.89 169.981 403.575 170.152C403.266 170.323 402.911 170.409 402.51 170.409C402.05 170.409 401.63 170.29 401.248 170.054C400.867 169.817 400.565 169.485 400.341 169.058C400.125 168.624 400.016 168.128 400.016 167.569C400.016 167.017 400.125 166.528 400.341 166.101C400.565 165.673 400.864 165.345 401.239 165.115C401.62 164.885 402.044 164.77 402.51 164.77ZM404.314 167.589C404.314 167.254 404.249 166.968 404.117 166.731C403.986 166.488 403.808 166.304 403.585 166.179C403.361 166.048 403.121 165.982 402.865 165.982C402.609 165.982 402.372 166.045 402.155 166.17C401.938 166.294 401.761 166.478 401.623 166.722C401.492 166.958 401.426 167.241 401.426 167.569C401.426 167.898 401.492 168.187 401.623 168.437C401.761 168.68 401.938 168.867 402.155 168.999C402.379 169.13 402.615 169.196 402.865 169.196C403.121 169.196 403.361 169.134 403.585 169.009C403.808 168.877 403.986 168.693 404.117 168.457C404.249 168.213 404.314 167.924 404.314 167.589ZM410.079 164.78C410.729 164.78 411.255 164.987 411.656 165.401C412.057 165.808 412.257 166.38 412.257 167.116V170.32H410.877V167.303C410.877 166.869 410.769 166.538 410.552 166.308C410.335 166.071 410.039 165.953 409.665 165.953C409.284 165.953 408.981 166.071 408.758 166.308C408.541 166.538 408.432 166.869 408.432 167.303V170.32H407.052V164.858H408.432V165.539C408.616 165.302 408.85 165.118 409.132 164.987C409.422 164.849 409.737 164.78 410.079 164.78ZM418.647 167.471C418.647 167.668 418.634 167.845 418.607 168.003H414.615C414.648 168.397 414.786 168.706 415.029 168.93C415.272 169.153 415.571 169.265 415.926 169.265C416.439 169.265 416.803 169.045 417.02 168.604H418.509C418.351 169.13 418.049 169.564 417.602 169.906C417.155 170.241 416.606 170.409 415.956 170.409C415.43 170.409 414.957 170.294 414.536 170.064C414.122 169.827 413.797 169.495 413.56 169.068C413.33 168.641 413.215 168.148 413.215 167.589C413.215 167.024 413.33 166.528 413.56 166.101C413.79 165.673 414.112 165.345 414.526 165.115C414.94 164.885 415.417 164.77 415.956 164.77C416.475 164.77 416.938 164.881 417.346 165.105C417.76 165.328 418.078 165.647 418.302 166.061C418.532 166.469 418.647 166.938 418.647 167.471ZM417.217 167.076C417.211 166.722 417.083 166.439 416.833 166.229C416.583 166.012 416.278 165.903 415.916 165.903C415.574 165.903 415.285 166.008 415.049 166.219C414.819 166.423 414.677 166.708 414.625 167.076H417.217ZM421.744 170.409C421.297 170.409 420.896 170.33 420.541 170.172C420.187 170.008 419.904 169.787 419.694 169.511C419.49 169.235 419.378 168.93 419.358 168.595H420.749C420.775 168.805 420.877 168.979 421.054 169.117C421.238 169.255 421.465 169.324 421.734 169.324C421.997 169.324 422.201 169.272 422.346 169.166C422.497 169.061 422.572 168.927 422.572 168.762C422.572 168.585 422.48 168.453 422.296 168.368C422.119 168.276 421.833 168.177 421.439 168.072C421.031 167.974 420.696 167.872 420.433 167.767C420.177 167.661 419.953 167.5 419.763 167.283C419.579 167.067 419.487 166.774 419.487 166.406C419.487 166.104 419.572 165.828 419.743 165.578C419.92 165.328 420.17 165.131 420.492 164.987C420.821 164.842 421.205 164.77 421.646 164.77C422.296 164.77 422.815 164.934 423.203 165.263C423.591 165.585 423.805 166.022 423.844 166.574H422.523C422.503 166.357 422.411 166.186 422.247 166.061C422.089 165.93 421.876 165.864 421.606 165.864C421.356 165.864 421.163 165.91 421.025 166.002C420.893 166.094 420.827 166.222 420.827 166.386C420.827 166.57 420.919 166.712 421.103 166.81C421.287 166.902 421.573 166.998 421.961 167.096C422.355 167.195 422.681 167.297 422.937 167.402C423.193 167.507 423.414 167.671 423.598 167.895C423.788 168.112 423.887 168.401 423.893 168.762C423.893 169.078 423.805 169.36 423.627 169.61C423.456 169.86 423.206 170.057 422.878 170.202C422.556 170.34 422.178 170.409 421.744 170.409ZM427.116 170.409C426.669 170.409 426.268 170.33 425.913 170.172C425.559 170.008 425.276 169.787 425.066 169.511C424.862 169.235 424.75 168.93 424.73 168.595H426.12C426.147 168.805 426.249 168.979 426.426 169.117C426.61 169.255 426.837 169.324 427.106 169.324C427.369 169.324 427.573 169.272 427.718 169.166C427.869 169.061 427.944 168.927 427.944 168.762C427.944 168.585 427.852 168.453 427.668 168.368C427.491 168.276 427.205 168.177 426.811 168.072C426.403 167.974 426.068 167.872 425.805 167.767C425.549 167.661 425.325 167.5 425.135 167.283C424.951 167.067 424.859 166.774 424.859 166.406C424.859 166.104 424.944 165.828 425.115 165.578C425.292 165.328 425.542 165.131 425.864 164.987C426.193 164.842 426.577 164.77 427.018 164.77C427.668 164.77 428.187 164.934 428.575 165.263C428.963 165.585 429.177 166.022 429.216 166.574H427.895C427.875 166.357 427.783 166.186 427.619 166.061C427.461 165.93 427.248 165.864 426.978 165.864C426.728 165.864 426.535 165.91 426.397 166.002C426.265 166.094 426.199 166.222 426.199 166.386C426.199 166.57 426.291 166.712 426.475 166.81C426.659 166.902 426.945 166.998 427.333 167.096C427.727 167.195 428.053 167.297 428.309 167.402C428.565 167.507 428.785 167.671 428.969 167.895C429.16 168.112 429.259 168.401 429.265 168.762C429.265 169.078 429.177 169.36 428.999 169.61C428.828 169.86 428.578 170.057 428.25 170.202C427.928 170.34 427.55 170.409 427.116 170.409Z" fill="black"/>
<path d="M43.5467 169.226H45.8141V170.32H42.1665V163.439H43.5467V169.226ZM49.1164 170.409C48.5907 170.409 48.1175 170.294 47.6968 170.064C47.2762 169.827 46.9443 169.495 46.7012 169.068C46.4646 168.641 46.3463 168.148 46.3463 167.589C46.3463 167.03 46.4679 166.538 46.711 166.11C46.9608 165.683 47.2992 165.355 47.7264 165.125C48.1536 164.888 48.6301 164.77 49.1559 164.77C49.6816 164.77 50.1581 164.888 50.5853 165.125C51.0125 165.355 51.3477 165.683 51.5908 166.11C51.8406 166.538 51.9655 167.03 51.9655 167.589C51.9655 168.148 51.8373 168.641 51.581 169.068C51.3312 169.495 50.9895 169.827 50.5557 170.064C50.1285 170.294 49.6488 170.409 49.1164 170.409ZM49.1164 169.206C49.3662 169.206 49.5995 169.147 49.8164 169.028C50.0398 168.904 50.2173 168.72 50.3487 168.476C50.4802 168.233 50.5459 167.937 50.5459 167.589C50.5459 167.07 50.4079 166.672 50.1318 166.396C49.8624 166.114 49.5305 165.972 49.1361 165.972C48.7418 165.972 48.4099 166.114 48.1405 166.396C47.8776 166.672 47.7461 167.07 47.7461 167.589C47.7461 168.108 47.8743 168.509 48.1306 168.792C48.3935 169.068 48.7221 169.206 49.1164 169.206ZM60.549 164.858L58.9519 170.32H57.4633L56.4677 166.505L55.472 170.32H53.9735L52.3666 164.858H53.7665L54.7326 169.019L55.7776 164.858H57.2366L58.2618 169.009L59.228 164.858H60.549ZM67.8641 169.009H65.1235L64.67 170.32H63.2208L65.6953 163.429H67.3021L69.7766 170.32H68.3175L67.8641 169.009ZM67.4894 167.905L66.4938 165.026L65.4981 167.905H67.4894ZM78.2726 164.858L76.6755 170.32H75.1869L74.1913 166.505L73.1956 170.32H71.6971L70.0902 164.858H71.4901L72.4562 169.019L73.5012 164.858H74.9602L75.9855 169.009L76.9516 164.858H78.2726ZM78.6644 167.569C78.6644 167.017 78.7729 166.528 78.9897 166.101C79.2132 165.673 79.5122 165.345 79.8868 165.115C80.268 164.885 80.6919 164.77 81.1586 164.77C81.566 164.77 81.9209 164.852 82.2232 165.016C82.5321 165.18 82.7786 165.387 82.9626 165.637V164.858H84.3526V170.32H82.9626V169.521C82.7852 169.778 82.5387 169.991 82.2232 170.162C81.9143 170.326 81.5562 170.409 81.1487 170.409C80.6886 170.409 80.268 170.29 79.8868 170.054C79.5122 169.817 79.2132 169.485 78.9897 169.058C78.7729 168.624 78.6644 168.128 78.6644 167.569ZM82.9626 167.589C82.9626 167.254 82.8969 166.968 82.7654 166.731C82.634 166.488 82.4566 166.304 82.2331 166.179C82.0096 166.048 81.7698 165.982 81.5134 165.982C81.2571 165.982 81.0205 166.045 80.8037 166.17C80.5868 166.294 80.4093 166.478 80.2713 166.722C80.1399 166.958 80.0741 167.241 80.0741 167.569C80.0741 167.898 80.1399 168.187 80.2713 168.437C80.4093 168.68 80.5868 168.867 80.8037 168.999C81.0271 169.13 81.2637 169.196 81.5134 169.196C81.7698 169.196 82.0096 169.134 82.2331 169.009C82.4566 168.877 82.634 168.693 82.7654 168.457C82.8969 168.213 82.9626 167.924 82.9626 167.589ZM87.0807 165.706C87.2582 165.417 87.4882 165.19 87.7708 165.026C88.06 164.862 88.3886 164.78 88.7566 164.78V166.229H88.3919C87.9581 166.229 87.6295 166.331 87.406 166.534C87.1892 166.738 87.0807 167.093 87.0807 167.599V170.32H85.7006V164.858H87.0807V165.706ZM94.7632 167.471C94.7632 167.668 94.75 167.845 94.7238 168.003H90.7312C90.764 168.397 90.9021 168.706 91.1452 168.93C91.3884 169.153 91.6874 169.265 92.0423 169.265C92.555 169.265 92.9197 169.045 93.1366 168.604H94.6252C94.4674 169.13 94.1651 169.564 93.7182 169.906C93.2713 170.241 92.7225 170.409 92.0719 170.409C91.5461 170.409 91.0729 170.294 90.6523 170.064C90.2383 169.827 89.913 169.495 89.6764 169.068C89.4463 168.641 89.3313 168.148 89.3313 167.589C89.3313 167.024 89.4463 166.528 89.6764 166.101C89.9064 165.673 90.2284 165.345 90.6425 165.115C91.0565 164.885 91.533 164.77 92.0719 164.77C92.5911 164.77 93.0544 164.881 93.4619 165.105C93.876 165.328 94.1947 165.647 94.4182 166.061C94.6482 166.469 94.7632 166.938 94.7632 167.471ZM93.3338 167.076C93.3272 166.722 93.199 166.439 92.9493 166.229C92.6995 166.012 92.3939 165.903 92.0325 165.903C91.6907 165.903 91.4015 166.008 91.1649 166.219C90.9349 166.423 90.7936 166.708 90.741 167.076H93.3338ZM98.7971 164.78C99.4477 164.78 99.9735 164.987 100.374 165.401C100.775 165.808 100.976 166.38 100.976 167.116V170.32H99.5956V167.303C99.5956 166.869 99.4871 166.538 99.2702 166.308C99.0534 166.071 98.7576 165.953 98.383 165.953C98.0018 165.953 97.6995 166.071 97.4761 166.308C97.2592 166.538 97.1507 166.869 97.1507 167.303V170.32H95.7706V164.858H97.1507V165.539C97.3347 165.302 97.5681 165.118 97.8507 164.987C98.1398 164.849 98.4553 164.78 98.7971 164.78ZM107.365 167.471C107.365 167.668 107.352 167.845 107.326 168.003H103.333C103.366 168.397 103.504 168.706 103.747 168.93C103.99 169.153 104.289 169.265 104.644 169.265C105.157 169.265 105.522 169.045 105.739 168.604H107.227C107.069 169.13 106.767 169.564 106.32 169.906C105.873 170.241 105.324 170.409 104.674 170.409C104.148 170.409 103.675 170.294 103.254 170.064C102.84 169.827 102.515 169.495 102.278 169.068C102.048 168.641 101.933 168.148 101.933 167.589C101.933 167.024 102.048 166.528 102.278 166.101C102.508 165.673 102.83 165.345 103.244 165.115C103.658 164.885 104.135 164.77 104.674 164.77C105.193 164.77 105.656 164.881 106.064 165.105C106.478 165.328 106.797 165.647 107.02 166.061C107.25 166.469 107.365 166.938 107.365 167.471ZM105.936 167.076C105.929 166.722 105.801 166.439 105.551 166.229C105.301 166.012 104.996 165.903 104.634 165.903C104.293 165.903 104.003 166.008 103.767 166.219C103.537 166.423 103.396 166.708 103.343 167.076H105.936ZM110.462 170.409C110.016 170.409 109.615 170.33 109.26 170.172C108.905 170.008 108.622 169.787 108.412 169.511C108.208 169.235 108.097 168.93 108.077 168.595H109.467C109.493 168.805 109.595 168.979 109.772 169.117C109.956 169.255 110.183 169.324 110.453 169.324C110.715 169.324 110.919 169.272 111.064 169.166C111.215 169.061 111.291 168.927 111.291 168.762C111.291 168.585 111.199 168.453 111.015 168.368C110.837 168.276 110.551 168.177 110.157 168.072C109.749 167.974 109.414 167.872 109.151 167.767C108.895 167.661 108.672 167.5 108.481 167.283C108.297 167.067 108.205 166.774 108.205 166.406C108.205 166.104 108.29 165.828 108.461 165.578C108.639 165.328 108.888 165.131 109.21 164.987C109.539 164.842 109.924 164.77 110.364 164.77C111.015 164.77 111.534 164.934 111.921 165.263C112.309 165.585 112.523 166.022 112.562 166.574H111.241C111.222 166.357 111.13 166.186 110.965 166.061C110.808 165.93 110.594 165.864 110.324 165.864C110.075 165.864 109.881 165.91 109.743 166.002C109.611 166.094 109.546 166.222 109.546 166.386C109.546 166.57 109.638 166.712 109.822 166.81C110.006 166.902 110.292 166.998 110.679 167.096C111.074 167.195 111.399 167.297 111.655 167.402C111.912 167.507 112.132 167.671 112.316 167.895C112.506 168.112 112.605 168.401 112.612 168.762C112.612 169.078 112.523 169.36 112.345 169.61C112.175 169.86 111.925 170.057 111.596 170.202C111.274 170.34 110.896 170.409 110.462 170.409ZM115.834 170.409C115.388 170.409 114.987 170.33 114.632 170.172C114.277 170.008 113.994 169.787 113.784 169.511C113.58 169.235 113.468 168.93 113.449 168.595H114.839C114.865 168.805 114.967 168.979 115.144 169.117C115.328 169.255 115.555 169.324 115.825 169.324C116.087 169.324 116.291 169.272 116.436 169.166C116.587 169.061 116.663 168.927 116.663 168.762C116.663 168.585 116.571 168.453 116.386 168.368C116.209 168.276 115.923 168.177 115.529 168.072C115.121 167.974 114.786 167.872 114.523 167.767C114.267 167.661 114.044 167.5 113.853 167.283C113.669 167.067 113.577 166.774 113.577 166.406C113.577 166.104 113.662 165.828 113.833 165.578C114.011 165.328 114.26 165.131 114.582 164.987C114.911 164.842 115.296 164.77 115.736 164.77C116.386 164.77 116.906 164.934 117.293 165.263C117.681 165.585 117.895 166.022 117.934 166.574H116.613C116.594 166.357 116.502 166.186 116.337 166.061C116.179 165.93 115.966 165.864 115.696 165.864C115.447 165.864 115.253 165.91 115.115 166.002C114.983 166.094 114.918 166.222 114.918 166.386C114.918 166.57 115.01 166.712 115.194 166.81C115.378 166.902 115.664 166.998 116.051 167.096C116.446 167.195 116.771 167.297 117.027 167.402C117.284 167.507 117.504 167.671 117.688 167.895C117.878 168.112 117.977 168.401 117.984 168.762C117.984 169.078 117.895 169.36 117.717 169.61C117.546 169.86 117.297 170.057 116.968 170.202C116.646 170.34 116.268 170.409 115.834 170.409ZM120.625 168.871L119.471 171.641H118.584L119.225 168.871H120.625ZM125.349 169.226H127.616V170.32H123.969V163.439H125.349V169.226ZM130.918 170.409C130.393 170.409 129.919 170.294 129.499 170.064C129.078 169.827 128.746 169.495 128.503 169.068C128.267 168.641 128.148 168.148 128.148 167.589C128.148 167.03 128.27 166.538 128.513 166.11C128.763 165.683 129.101 165.355 129.528 165.125C129.956 164.888 130.432 164.77 130.958 164.77C131.484 164.77 131.96 164.888 132.387 165.125C132.814 165.355 133.15 165.683 133.393 166.11C133.643 166.538 133.767 167.03 133.767 167.589C133.767 168.148 133.639 168.641 133.383 169.068C133.133 169.495 132.791 169.827 132.358 170.064C131.931 170.294 131.451 170.409 130.918 170.409ZM130.918 169.206C131.168 169.206 131.401 169.147 131.618 169.028C131.842 168.904 132.019 168.72 132.151 168.476C132.282 168.233 132.348 167.937 132.348 167.589C132.348 167.07 132.21 166.672 131.934 166.396C131.664 166.114 131.332 165.972 130.938 165.972C130.544 165.972 130.212 166.114 129.942 166.396C129.68 166.672 129.548 167.07 129.548 167.589C129.548 168.108 129.676 168.509 129.933 168.792C130.195 169.068 130.524 169.206 130.918 169.206ZM142.351 164.858L140.754 170.32H139.265L138.27 166.505L137.274 170.32H135.776L134.169 164.858H135.568L136.535 169.019L137.58 164.858H139.039L140.064 169.009L141.03 164.858H142.351ZM154.644 163.439L152.722 170.32H151.095L149.804 165.42L148.453 170.32L146.837 170.33L144.983 163.439H146.462L147.675 168.782L149.075 163.439H150.612L151.933 168.752L153.156 163.439H154.644ZM156.246 164.208C156.002 164.208 155.799 164.132 155.634 163.981C155.477 163.823 155.398 163.629 155.398 163.399C155.398 163.169 155.477 162.979 155.634 162.828C155.799 162.67 156.002 162.591 156.246 162.591C156.489 162.591 156.689 162.67 156.847 162.828C157.011 162.979 157.093 163.169 157.093 163.399C157.093 163.629 157.011 163.823 156.847 163.981C156.689 164.132 156.489 164.208 156.246 164.208ZM156.926 164.858V170.32H155.546V164.858H156.926ZM159.67 163.025V170.32H158.289V163.025H159.67ZM162.413 163.025V170.32H161.033V163.025H162.413ZM164.477 164.208C164.234 164.208 164.03 164.132 163.866 163.981C163.708 163.823 163.629 163.629 163.629 163.399C163.629 163.169 163.708 162.979 163.866 162.828C164.03 162.67 164.234 162.591 164.477 162.591C164.72 162.591 164.92 162.67 165.078 162.828C165.242 162.979 165.325 163.169 165.325 163.399C165.325 163.629 165.242 163.823 165.078 163.981C164.92 164.132 164.72 164.208 164.477 164.208ZM165.157 164.858V170.32H163.777V164.858H165.157ZM169.547 164.78C170.198 164.78 170.723 164.987 171.124 165.401C171.525 165.808 171.726 166.38 171.726 167.116V170.32H170.346V167.303C170.346 166.869 170.237 166.538 170.02 166.308C169.803 166.071 169.508 165.953 169.133 165.953C168.752 165.953 168.45 166.071 168.226 166.308C168.009 166.538 167.901 166.869 167.901 167.303V170.32H166.521V164.858H167.901V165.539C168.085 165.302 168.318 165.118 168.601 164.987C168.89 164.849 169.205 164.78 169.547 164.78ZM175.177 164.77C175.585 164.77 175.943 164.852 176.252 165.016C176.561 165.174 176.804 165.381 176.981 165.637V164.858H178.371V170.359C178.371 170.865 178.27 171.316 178.066 171.71C177.862 172.111 177.557 172.426 177.149 172.656C176.742 172.893 176.249 173.011 175.67 173.011C174.895 173.011 174.257 172.83 173.758 172.469C173.265 172.107 172.986 171.615 172.92 170.99H174.29C174.362 171.24 174.517 171.437 174.754 171.582C174.997 171.733 175.289 171.808 175.631 171.808C176.032 171.808 176.357 171.687 176.607 171.444C176.857 171.207 176.981 170.846 176.981 170.359V169.511C176.804 169.768 176.558 169.981 176.242 170.152C175.933 170.323 175.578 170.409 175.177 170.409C174.717 170.409 174.297 170.29 173.916 170.054C173.534 169.817 173.232 169.485 173.009 169.058C172.792 168.624 172.683 168.128 172.683 167.569C172.683 167.017 172.792 166.528 173.009 166.101C173.232 165.673 173.531 165.345 173.906 165.115C174.287 164.885 174.711 164.77 175.177 164.77ZM176.981 167.589C176.981 167.254 176.916 166.968 176.784 166.731C176.653 166.488 176.475 166.304 176.252 166.179C176.028 166.048 175.789 165.982 175.532 165.982C175.276 165.982 175.039 166.045 174.823 166.17C174.606 166.294 174.428 166.478 174.29 166.722C174.159 166.958 174.093 167.241 174.093 167.569C174.093 167.898 174.159 168.187 174.29 168.437C174.428 168.68 174.606 168.867 174.823 168.999C175.046 169.13 175.283 169.196 175.532 169.196C175.789 169.196 176.028 169.134 176.252 169.009C176.475 168.877 176.653 168.693 176.784 168.457C176.916 168.213 176.981 167.924 176.981 167.589ZM182.746 164.78C183.397 164.78 183.922 164.987 184.323 165.401C184.724 165.808 184.925 166.38 184.925 167.116V170.32H183.544V167.303C183.544 166.869 183.436 166.538 183.219 166.308C183.002 166.071 182.706 165.953 182.332 165.953C181.951 165.953 181.648 166.071 181.425 166.308C181.208 166.538 181.1 166.869 181.1 167.303V170.32H179.719V164.858H181.1V165.539C181.284 165.302 181.517 165.118 181.8 164.987C182.089 164.849 182.404 164.78 182.746 164.78ZM191.314 167.471C191.314 167.668 191.301 167.845 191.275 168.003H187.282C187.315 168.397 187.453 168.706 187.696 168.93C187.939 169.153 188.238 169.265 188.593 169.265C189.106 169.265 189.471 169.045 189.687 168.604H191.176C191.018 169.13 190.716 169.564 190.269 169.906C189.822 170.241 189.273 170.409 188.623 170.409C188.097 170.409 187.624 170.294 187.203 170.064C186.789 169.827 186.464 169.495 186.227 169.068C185.997 168.641 185.882 168.148 185.882 167.589C185.882 167.024 185.997 166.528 186.227 166.101C186.457 165.673 186.779 165.345 187.193 165.115C187.607 164.885 188.084 164.77 188.623 164.77C189.142 164.77 189.605 164.881 190.013 165.105C190.427 165.328 190.745 165.647 190.969 166.061C191.199 166.469 191.314 166.938 191.314 167.471ZM189.885 167.076C189.878 166.722 189.75 166.439 189.5 166.229C189.25 166.012 188.945 165.903 188.583 165.903C188.242 165.903 187.952 166.008 187.716 166.219C187.486 166.423 187.344 166.708 187.292 167.076H189.885ZM194.411 170.409C193.964 170.409 193.564 170.33 193.209 170.172C192.854 170.008 192.571 169.787 192.361 169.511C192.157 169.235 192.045 168.93 192.026 168.595H193.416C193.442 168.805 193.544 168.979 193.721 169.117C193.905 169.255 194.132 169.324 194.401 169.324C194.664 169.324 194.868 169.272 195.013 169.166C195.164 169.061 195.239 168.927 195.239 168.762C195.239 168.585 195.147 168.453 194.963 168.368C194.786 168.276 194.5 168.177 194.106 168.072C193.698 167.974 193.363 167.872 193.1 167.767C192.844 167.661 192.62 167.5 192.43 167.283C192.246 167.067 192.154 166.774 192.154 166.406C192.154 166.104 192.239 165.828 192.41 165.578C192.588 165.328 192.837 165.131 193.159 164.987C193.488 164.842 193.872 164.77 194.313 164.77C194.963 164.77 195.483 164.934 195.87 165.263C196.258 165.585 196.472 166.022 196.511 166.574H195.19C195.17 166.357 195.078 166.186 194.914 166.061C194.756 165.93 194.543 165.864 194.273 165.864C194.024 165.864 193.83 165.91 193.692 166.002C193.56 166.094 193.495 166.222 193.495 166.386C193.495 166.57 193.587 166.712 193.771 166.81C193.955 166.902 194.24 166.998 194.628 167.096C195.023 167.195 195.348 167.297 195.604 167.402C195.86 167.507 196.081 167.671 196.265 167.895C196.455 168.112 196.554 168.401 196.56 168.762C196.56 169.078 196.472 169.36 196.294 169.61C196.123 169.86 195.874 170.057 195.545 170.202C195.223 170.34 194.845 170.409 194.411 170.409ZM199.783 170.409C199.336 170.409 198.935 170.33 198.581 170.172C198.226 170.008 197.943 169.787 197.733 169.511C197.529 169.235 197.417 168.93 197.398 168.595H198.788C198.814 168.805 198.916 168.979 199.093 169.117C199.277 169.255 199.504 169.324 199.773 169.324C200.036 169.324 200.24 169.272 200.385 169.166C200.536 169.061 200.611 168.927 200.611 168.762C200.611 168.585 200.519 168.453 200.335 168.368C200.158 168.276 199.872 168.177 199.478 168.072C199.07 167.974 198.735 167.872 198.472 167.767C198.216 167.661 197.992 167.5 197.802 167.283C197.618 167.067 197.526 166.774 197.526 166.406C197.526 166.104 197.611 165.828 197.782 165.578C197.96 165.328 198.209 165.131 198.531 164.987C198.86 164.842 199.244 164.77 199.685 164.77C200.335 164.77 200.855 164.934 201.242 165.263C201.63 165.585 201.844 166.022 201.883 166.574H200.562C200.542 166.357 200.45 166.186 200.286 166.061C200.128 165.93 199.915 165.864 199.645 165.864C199.396 165.864 199.202 165.91 199.064 166.002C198.932 166.094 198.866 166.222 198.866 166.386C198.866 166.57 198.958 166.712 199.142 166.81C199.327 166.902 199.612 166.998 200 167.096C200.394 167.195 200.72 167.297 200.976 167.402C201.232 167.507 201.453 167.671 201.637 167.895C201.827 168.112 201.926 168.401 201.932 168.762C201.932 169.078 201.844 169.36 201.666 169.61C201.495 169.86 201.246 170.057 200.917 170.202C200.595 170.34 200.217 170.409 199.783 170.409Z" fill="black"/>
<path d="M43.5467 66.1255H45.8141V67.2197H42.1665V60.3387H43.5467V66.1255ZM49.1164 67.3085C48.5907 67.3085 48.1175 67.1934 47.6968 66.9634C47.2762 66.7268 46.9443 66.3949 46.7012 65.9677C46.4646 65.5405 46.3463 65.0476 46.3463 64.489C46.3463 63.9304 46.4679 63.4375 46.711 63.0103C46.9608 62.5831 47.2992 62.2545 47.7264 62.0244C48.1536 61.7879 48.6301 61.6696 49.1559 61.6696C49.6816 61.6696 50.1581 61.7879 50.5853 62.0244C51.0125 62.2545 51.3477 62.5831 51.5908 63.0103C51.8406 63.4375 51.9655 63.9304 51.9655 64.489C51.9655 65.0476 51.8373 65.5405 51.581 65.9677C51.3312 66.3949 50.9895 66.7268 50.5557 66.9634C50.1285 67.1934 49.6488 67.3085 49.1164 67.3085ZM49.1164 66.1057C49.3662 66.1057 49.5995 66.0466 49.8164 65.9283C50.0398 65.8034 50.2173 65.6194 50.3487 65.3762C50.4802 65.1331 50.5459 64.8373 50.5459 64.489C50.5459 63.9698 50.4079 63.5722 50.1318 63.2962C49.8624 63.0136 49.5305 62.8723 49.1361 62.8723C48.7418 62.8723 48.4099 63.0136 48.1405 63.2962C47.8776 63.5722 47.7461 63.9698 47.7461 64.489C47.7461 65.0082 47.8743 65.4091 48.1306 65.6917C48.3935 65.9677 48.7221 66.1057 49.1164 66.1057ZM60.549 61.7583L58.9519 67.2197H57.4633L56.4677 63.4046L55.472 67.2197H53.9735L52.3666 61.7583H53.7665L54.7326 65.9184L55.7776 61.7583H57.2366L58.2618 65.9086L59.228 61.7583H60.549ZM67.8641 65.9086H65.1235L64.67 67.2197H63.2208L65.6953 60.3288H67.3021L69.7766 67.2197H68.3175L67.8641 65.9086ZM67.4894 64.8045L66.4938 61.9259L65.4981 64.8045H67.4894ZM78.2726 61.7583L76.6755 67.2197H75.1869L74.1913 63.4046L73.1956 67.2197H71.6971L70.0902 61.7583H71.4901L72.4562 65.9184L73.5012 61.7583H74.9602L75.9855 65.9086L76.9516 61.7583H78.2726ZM78.6644 64.4693C78.6644 63.9172 78.7729 63.4276 78.9897 63.0004C79.2132 62.5732 79.5122 62.2446 79.8868 62.0146C80.268 61.7846 80.6919 61.6696 81.1586 61.6696C81.566 61.6696 81.9209 61.7517 82.2232 61.916C82.5321 62.0803 82.7786 62.2873 82.9626 62.5371V61.7583H84.3526V67.2197H82.9626V66.4212C82.7852 66.6775 82.5387 66.8911 82.2232 67.062C81.9143 67.2263 81.5562 67.3085 81.1487 67.3085C80.6886 67.3085 80.268 67.1902 79.8868 66.9536C79.5122 66.717 79.2132 66.3851 78.9897 65.9579C78.7729 65.5241 78.6644 65.0279 78.6644 64.4693ZM82.9626 64.489C82.9626 64.1538 82.8969 63.8679 82.7654 63.6313C82.634 63.3882 82.4566 63.2041 82.2331 63.0793C82.0096 62.9478 81.7698 62.8821 81.5134 62.8821C81.2571 62.8821 81.0205 62.9445 80.8037 63.0694C80.5868 63.1943 80.4093 63.3783 80.2713 63.6215C80.1399 63.8581 80.0741 64.1407 80.0741 64.4693C80.0741 64.7979 80.1399 65.0871 80.2713 65.3368C80.4093 65.58 80.5868 65.7673 80.8037 65.8987C81.0271 66.0302 81.2637 66.0959 81.5134 66.0959C81.7698 66.0959 82.0096 66.0335 82.2331 65.9086C82.4566 65.7771 82.634 65.5931 82.7654 65.3565C82.8969 65.1134 82.9626 64.8242 82.9626 64.489ZM87.0807 62.6061C87.2582 62.3169 87.4882 62.0902 87.7708 61.9259C88.06 61.7616 88.3886 61.6794 88.7566 61.6794V63.1286H88.3919C87.9581 63.1286 87.6295 63.2304 87.406 63.4342C87.1892 63.6379 87.0807 63.9928 87.0807 64.4989V67.2197H85.7006V61.7583H87.0807V62.6061ZM94.7632 64.3707C94.7632 64.5679 94.75 64.7453 94.7238 64.903H90.7312C90.764 65.2974 90.9021 65.6063 91.1452 65.8297C91.3884 66.0532 91.6874 66.1649 92.0423 66.1649C92.555 66.1649 92.9197 65.9447 93.1366 65.5044H94.6252C94.4674 66.0302 94.1651 66.4639 93.7182 66.8057C93.2713 67.1409 92.7225 67.3085 92.0719 67.3085C91.5461 67.3085 91.0729 67.1934 90.6523 66.9634C90.2383 66.7268 89.913 66.3949 89.6764 65.9677C89.4463 65.5405 89.3313 65.0476 89.3313 64.489C89.3313 63.9238 89.4463 63.4276 89.6764 63.0004C89.9064 62.5732 90.2284 62.2446 90.6425 62.0146C91.0565 61.7846 91.533 61.6696 92.0719 61.6696C92.5911 61.6696 93.0544 61.7813 93.4619 62.0047C93.876 62.2282 94.1947 62.5469 94.4182 62.961C94.6482 63.3685 94.7632 63.8384 94.7632 64.3707ZM93.3338 63.9764C93.3272 63.6215 93.199 63.3389 92.9493 63.1286C92.6995 62.9117 92.3939 62.8032 92.0325 62.8032C91.6907 62.8032 91.4015 62.9084 91.1649 63.1187C90.9349 63.3224 90.7936 63.6083 90.741 63.9764H93.3338ZM98.7971 61.6794C99.4477 61.6794 99.9735 61.8864 100.374 62.3005C100.775 62.708 100.976 63.2797 100.976 64.0158V67.2197H99.5956V64.2031C99.5956 63.7694 99.4871 63.4375 99.2702 63.2074C99.0534 62.9708 98.7576 62.8525 98.383 62.8525C98.0018 62.8525 97.6995 62.9708 97.4761 63.2074C97.2592 63.4375 97.1507 63.7694 97.1507 64.2031V67.2197H95.7706V61.7583H97.1507V62.4385C97.3347 62.2019 97.5681 62.0179 97.8507 61.8864C98.1398 61.7484 98.4553 61.6794 98.7971 61.6794ZM107.365 64.3707C107.365 64.5679 107.352 64.7453 107.326 64.903H103.333C103.366 65.2974 103.504 65.6063 103.747 65.8297C103.99 66.0532 104.289 66.1649 104.644 66.1649C105.157 66.1649 105.522 65.9447 105.739 65.5044H107.227C107.069 66.0302 106.767 66.4639 106.32 66.8057C105.873 67.1409 105.324 67.3085 104.674 67.3085C104.148 67.3085 103.675 67.1934 103.254 66.9634C102.84 66.7268 102.515 66.3949 102.278 65.9677C102.048 65.5405 101.933 65.0476 101.933 64.489C101.933 63.9238 102.048 63.4276 102.278 63.0004C102.508 62.5732 102.83 62.2446 103.244 62.0146C103.658 61.7846 104.135 61.6696 104.674 61.6696C105.193 61.6696 105.656 61.7813 106.064 62.0047C106.478 62.2282 106.797 62.5469 107.02 62.961C107.25 63.3685 107.365 63.8384 107.365 64.3707ZM105.936 63.9764C105.929 63.6215 105.801 63.3389 105.551 63.1286C105.301 62.9117 104.996 62.8032 104.634 62.8032C104.293 62.8032 104.003 62.9084 103.767 63.1187C103.537 63.3224 103.396 63.6083 103.343 63.9764H105.936ZM110.462 67.3085C110.016 67.3085 109.615 67.2296 109.26 67.0719C108.905 66.9075 108.622 66.6874 108.412 66.4114C108.208 66.1353 108.097 65.8297 108.077 65.4945H109.467C109.493 65.7048 109.595 65.879 109.772 66.017C109.956 66.155 110.183 66.224 110.453 66.224C110.715 66.224 110.919 66.1715 111.064 66.0663C111.215 65.9612 111.291 65.8264 111.291 65.6621C111.291 65.4847 111.199 65.3532 111.015 65.2678C110.837 65.1758 110.551 65.0772 110.157 64.9721C109.749 64.8735 109.414 64.7716 109.151 64.6664C108.895 64.5613 108.672 64.4003 108.481 64.1834C108.297 63.9665 108.205 63.6741 108.205 63.306C108.205 63.0037 108.29 62.7277 108.461 62.4779C108.639 62.2282 108.888 62.031 109.21 61.8864C109.539 61.7418 109.924 61.6696 110.364 61.6696C111.015 61.6696 111.534 61.8339 111.921 62.1625C112.309 62.4845 112.523 62.9215 112.562 63.4736H111.241C111.222 63.2567 111.13 63.0858 110.965 62.961C110.808 62.8295 110.594 62.7638 110.324 62.7638C110.075 62.7638 109.881 62.8098 109.743 62.9018C109.611 62.9938 109.546 63.122 109.546 63.2863C109.546 63.4703 109.638 63.6116 109.822 63.7102C110.006 63.8022 110.292 63.8975 110.679 63.9961C111.074 64.0947 111.399 64.1965 111.655 64.3017C111.912 64.4068 112.132 64.5712 112.316 64.7946C112.506 65.0115 112.605 65.3007 112.612 65.6621C112.612 65.9776 112.523 66.2602 112.345 66.5099C112.175 66.7597 111.925 66.9568 111.596 67.1014C111.274 67.2394 110.896 67.3085 110.462 67.3085ZM115.834 67.3085C115.388 67.3085 114.987 67.2296 114.632 67.0719C114.277 66.9075 113.994 66.6874 113.784 66.4114C113.58 66.1353 113.468 65.8297 113.449 65.4945H114.839C114.865 65.7048 114.967 65.879 115.144 66.017C115.328 66.155 115.555 66.224 115.825 66.224C116.087 66.224 116.291 66.1715 116.436 66.0663C116.587 65.9612 116.663 65.8264 116.663 65.6621C116.663 65.4847 116.571 65.3532 116.386 65.2678C116.209 65.1758 115.923 65.0772 115.529 64.9721C115.121 64.8735 114.786 64.7716 114.523 64.6664C114.267 64.5613 114.044 64.4003 113.853 64.1834C113.669 63.9665 113.577 63.6741 113.577 63.306C113.577 63.0037 113.662 62.7277 113.833 62.4779C114.011 62.2282 114.26 62.031 114.582 61.8864C114.911 61.7418 115.296 61.6696 115.736 61.6696C116.386 61.6696 116.906 61.8339 117.293 62.1625C117.681 62.4845 117.895 62.9215 117.934 63.4736H116.613C116.594 63.2567 116.502 63.0858 116.337 62.961C116.179 62.8295 115.966 62.7638 115.696 62.7638C115.447 62.7638 115.253 62.8098 115.115 62.9018C114.983 62.9938 114.918 63.122 114.918 63.2863C114.918 63.4703 115.01 63.6116 115.194 63.7102C115.378 63.8022 115.664 63.8975 116.051 63.9961C116.446 64.0947 116.771 64.1965 117.027 64.3017C117.284 64.4068 117.504 64.5712 117.688 64.7946C117.878 65.0115 117.977 65.3007 117.984 65.6621C117.984 65.9776 117.895 66.2602 117.717 66.5099C117.546 66.7597 117.297 66.9568 116.968 67.1014C116.646 67.2394 116.268 67.3085 115.834 67.3085ZM120.625 65.7706L119.471 68.5407H118.584L119.225 65.7706H120.625ZM129.676 60.3387V67.2197H128.296V64.2918H125.349V67.2197H123.969V60.3387H125.349V63.168H128.296V60.3387H129.676ZM131.735 61.1076C131.492 61.1076 131.288 61.0321 131.124 60.8809C130.966 60.7232 130.887 60.5293 130.887 60.2993C130.887 60.0692 130.966 59.8786 131.124 59.7275C131.288 59.5698 131.492 59.4909 131.735 59.4909C131.978 59.4909 132.178 59.5698 132.336 59.7275C132.5 59.8786 132.583 60.0692 132.583 60.2993C132.583 60.5293 132.5 60.7232 132.336 60.8809C132.178 61.0321 131.978 61.1076 131.735 61.1076ZM132.415 61.7583V67.2197H131.035V61.7583H132.415ZM135.918 61.6696C136.325 61.6696 136.684 61.7517 136.992 61.916C137.301 62.0737 137.544 62.2808 137.722 62.5371V61.7583H139.112V67.2592C139.112 67.7652 139.01 68.2154 138.806 68.6097C138.603 69.0106 138.297 69.3261 137.889 69.5561C137.482 69.7927 136.989 69.911 136.411 69.911C135.635 69.911 134.998 69.7303 134.498 69.3688C134.005 69.0073 133.726 68.5144 133.66 67.8901H135.031C135.103 68.1398 135.257 68.337 135.494 68.4816C135.737 68.6327 136.03 68.7083 136.371 68.7083C136.772 68.7083 137.098 68.5867 137.347 68.3436C137.597 68.107 137.722 67.7455 137.722 67.2592V66.4114C137.544 66.6677 137.298 66.8813 136.983 67.0521C136.674 67.223 136.319 67.3085 135.918 67.3085C135.458 67.3085 135.037 67.1902 134.656 66.9536C134.275 66.717 133.972 66.3851 133.749 65.9579C133.532 65.5241 133.424 65.0279 133.424 64.4693C133.424 63.9172 133.532 63.4276 133.749 63.0004C133.972 62.5732 134.272 62.2446 134.646 62.0146C135.027 61.7846 135.451 61.6696 135.918 61.6696ZM137.722 64.489C137.722 64.1538 137.656 63.8679 137.525 63.6313C137.393 63.3882 137.216 63.2041 136.992 63.0793C136.769 62.9478 136.529 62.8821 136.273 62.8821C136.016 62.8821 135.78 62.9445 135.563 63.0694C135.346 63.1943 135.169 63.3783 135.031 63.6215C134.899 63.8581 134.833 64.1407 134.833 64.4693C134.833 64.7979 134.899 65.0871 135.031 65.3368C135.169 65.58 135.346 65.7673 135.563 65.8987C135.786 66.0302 136.023 66.0959 136.273 66.0959C136.529 66.0959 136.769 66.0335 136.992 65.9086C137.216 65.7771 137.393 65.5931 137.525 65.3565C137.656 65.1134 137.722 64.8242 137.722 64.489ZM143.536 61.6794C143.95 61.6794 144.318 61.7714 144.64 61.9554C144.962 62.1329 145.212 62.3991 145.389 62.754C145.573 63.1023 145.665 63.5229 145.665 64.0158V67.2197H144.285V64.2031C144.285 63.7694 144.176 63.4375 143.96 63.2074C143.743 62.9708 143.447 62.8525 143.072 62.8525C142.691 62.8525 142.389 62.9708 142.165 63.2074C141.948 63.4375 141.84 63.7694 141.84 64.2031V67.2197H140.46V59.9246H141.84V62.4385C142.017 62.2019 142.254 62.0179 142.55 61.8864C142.846 61.7484 143.174 61.6794 143.536 61.6794ZM158.524 60.3387L156.602 67.2197H154.975L153.684 62.3202L152.333 67.2197L150.716 67.2296L148.863 60.3387H150.342L151.554 65.6818L152.954 60.3387H154.492L155.813 65.6523L157.036 60.3387H158.524ZM160.125 61.1076C159.882 61.1076 159.678 61.0321 159.514 60.8809C159.356 60.7232 159.277 60.5293 159.277 60.2993C159.277 60.0692 159.356 59.8786 159.514 59.7275C159.678 59.5698 159.882 59.4909 160.125 59.4909C160.368 59.4909 160.569 59.5698 160.727 59.7275C160.891 59.8786 160.973 60.0692 160.973 60.2993C160.973 60.5293 160.891 60.7232 160.727 60.8809C160.569 61.0321 160.368 61.1076 160.125 61.1076ZM160.806 61.7583V67.2197H159.425V61.7583H160.806ZM163.549 59.9246V67.2197H162.169V59.9246H163.549ZM166.293 59.9246V67.2197H164.913V59.9246H166.293ZM168.357 61.1076C168.113 61.1076 167.91 61.0321 167.745 60.8809C167.588 60.7232 167.509 60.5293 167.509 60.2993C167.509 60.0692 167.588 59.8786 167.745 59.7275C167.91 59.5698 168.113 59.4909 168.357 59.4909C168.6 59.4909 168.8 59.5698 168.958 59.7275C169.122 59.8786 169.204 60.0692 169.204 60.2993C169.204 60.5293 169.122 60.7232 168.958 60.8809C168.8 61.0321 168.6 61.1076 168.357 61.1076ZM169.037 61.7583V67.2197H167.657V61.7583H169.037ZM173.427 61.6794C174.077 61.6794 174.603 61.8864 175.004 62.3005C175.405 62.708 175.605 63.2797 175.605 64.0158V67.2197H174.225V64.2031C174.225 63.7694 174.117 63.4375 173.9 63.2074C173.683 62.9708 173.387 62.8525 173.013 62.8525C172.632 62.8525 172.329 62.9708 172.106 63.2074C171.889 63.4375 171.78 63.7694 171.78 64.2031V67.2197H170.4V61.7583H171.78V62.4385C171.965 62.2019 172.198 62.0179 172.48 61.8864C172.77 61.7484 173.085 61.6794 173.427 61.6794ZM179.057 61.6696C179.465 61.6696 179.823 61.7517 180.132 61.916C180.441 62.0737 180.684 62.2808 180.861 62.5371V61.7583H182.251V67.2592C182.251 67.7652 182.149 68.2154 181.946 68.6097C181.742 69.0106 181.436 69.3261 181.029 69.5561C180.621 69.7927 180.128 69.911 179.55 69.911C178.775 69.911 178.137 69.7303 177.638 69.3688C177.145 69.0073 176.865 68.5144 176.8 67.8901H178.17C178.242 68.1398 178.397 68.337 178.633 68.4816C178.876 68.6327 179.169 68.7083 179.511 68.7083C179.912 68.7083 180.237 68.5867 180.487 68.3436C180.736 68.107 180.861 67.7455 180.861 67.2592V66.4114C180.684 66.6677 180.437 66.8813 180.122 67.0521C179.813 67.223 179.458 67.3085 179.057 67.3085C178.597 67.3085 178.176 67.1902 177.795 66.9536C177.414 66.717 177.112 66.3851 176.888 65.9579C176.671 65.5241 176.563 65.0279 176.563 64.4693C176.563 63.9172 176.671 63.4276 176.888 63.0004C177.112 62.5732 177.411 62.2446 177.785 62.0146C178.167 61.7846 178.591 61.6696 179.057 61.6696ZM180.861 64.489C180.861 64.1538 180.795 63.8679 180.664 63.6313C180.533 63.3882 180.355 63.2041 180.132 63.0793C179.908 62.9478 179.668 62.8821 179.412 62.8821C179.156 62.8821 178.919 62.9445 178.702 63.0694C178.485 63.1943 178.308 63.3783 178.17 63.6215C178.038 63.8581 177.973 64.1407 177.973 64.4693C177.973 64.7979 178.038 65.0871 178.17 65.3368C178.308 65.58 178.485 65.7673 178.702 65.8987C178.926 66.0302 179.162 66.0959 179.412 66.0959C179.668 66.0959 179.908 66.0335 180.132 65.9086C180.355 65.7771 180.533 65.5931 180.664 65.3565C180.795 65.1134 180.861 64.8242 180.861 64.489ZM186.626 61.6794C187.276 61.6794 187.802 61.8864 188.203 62.3005C188.604 62.708 188.804 63.2797 188.804 64.0158V67.2197H187.424V64.2031C187.424 63.7694 187.316 63.4375 187.099 63.2074C186.882 62.9708 186.586 62.8525 186.212 62.8525C185.83 62.8525 185.528 62.9708 185.305 63.2074C185.088 63.4375 184.979 63.7694 184.979 64.2031V67.2197H183.599V61.7583H184.979V62.4385C185.163 62.2019 185.397 62.0179 185.679 61.8864C185.968 61.7484 186.284 61.6794 186.626 61.6794ZM195.194 64.3707C195.194 64.5679 195.181 64.7453 195.154 64.903H191.162C191.195 65.2974 191.333 65.6063 191.576 65.8297C191.819 66.0532 192.118 66.1649 192.473 66.1649C192.985 66.1649 193.35 65.9447 193.567 65.5044H195.056C194.898 66.0302 194.596 66.4639 194.149 66.8057C193.702 67.1409 193.153 67.3085 192.502 67.3085C191.977 67.3085 191.503 67.1934 191.083 66.9634C190.669 66.7268 190.343 66.3949 190.107 65.9677C189.877 65.5405 189.762 65.0476 189.762 64.489C189.762 63.9238 189.877 63.4276 190.107 63.0004C190.337 62.5732 190.659 62.2446 191.073 62.0146C191.487 61.7846 191.964 61.6696 192.502 61.6696C193.022 61.6696 193.485 61.7813 193.892 62.0047C194.306 62.2282 194.625 62.5469 194.849 62.961C195.079 63.3685 195.194 63.8384 195.194 64.3707ZM193.764 63.9764C193.758 63.6215 193.63 63.3389 193.38 63.1286C193.13 62.9117 192.824 62.8032 192.463 62.8032C192.121 62.8032 191.832 62.9084 191.595 63.1187C191.365 63.3224 191.224 63.6083 191.172 63.9764H193.764ZM198.291 67.3085C197.844 67.3085 197.443 67.2296 197.088 67.0719C196.733 66.9075 196.451 66.6874 196.241 66.4114C196.037 66.1353 195.925 65.8297 195.905 65.4945H197.295C197.322 65.7048 197.424 65.879 197.601 66.017C197.785 66.155 198.012 66.224 198.281 66.224C198.544 66.224 198.748 66.1715 198.892 66.0663C199.044 65.9612 199.119 65.8264 199.119 65.6621C199.119 65.4847 199.027 65.3532 198.843 65.2678C198.666 65.1758 198.38 65.0772 197.985 64.9721C197.578 64.8735 197.243 64.7716 196.98 64.6664C196.724 64.5613 196.5 64.4003 196.31 64.1834C196.126 63.9665 196.034 63.6741 196.034 63.306C196.034 63.0037 196.119 62.7277 196.29 62.4779C196.467 62.2282 196.717 62.031 197.039 61.8864C197.368 61.7418 197.752 61.6696 198.192 61.6696C198.843 61.6696 199.362 61.8339 199.75 62.1625C200.138 62.4845 200.351 62.9215 200.391 63.4736H199.07C199.05 63.2567 198.958 63.0858 198.794 62.961C198.636 62.8295 198.423 62.7638 198.153 62.7638C197.903 62.7638 197.709 62.8098 197.571 62.9018C197.44 62.9938 197.374 63.122 197.374 63.2863C197.374 63.4703 197.466 63.6116 197.65 63.7102C197.834 63.8022 198.12 63.8975 198.508 63.9961C198.902 64.0947 199.228 64.1965 199.484 64.3017C199.74 64.4068 199.96 64.5712 200.144 64.7946C200.335 65.0115 200.434 65.3007 200.44 65.6621C200.44 65.9776 200.351 66.2602 200.174 66.5099C200.003 66.7597 199.753 66.9568 199.425 67.1014C199.103 67.2394 198.725 67.3085 198.291 67.3085ZM203.663 67.3085C203.216 67.3085 202.815 67.2296 202.46 67.0719C202.105 66.9075 201.823 66.6874 201.613 66.4114C201.409 66.1353 201.297 65.8297 201.277 65.4945H202.667C202.694 65.7048 202.796 65.879 202.973 66.017C203.157 66.155 203.384 66.224 203.653 66.224C203.916 66.224 204.12 66.1715 204.264 66.0663C204.416 65.9612 204.491 65.8264 204.491 65.6621C204.491 65.4847 204.399 65.3532 204.215 65.2678C204.038 65.1758 203.752 65.0772 203.357 64.9721C202.95 64.8735 202.615 64.7716 202.352 64.6664C202.096 64.5613 201.872 64.4003 201.682 64.1834C201.498 63.9665 201.405 63.6741 201.405 63.306C201.405 63.0037 201.491 62.7277 201.662 62.4779C201.839 62.2282 202.089 62.031 202.411 61.8864C202.74 61.7418 203.124 61.6696 203.564 61.6696C204.215 61.6696 204.734 61.8339 205.122 62.1625C205.51 62.4845 205.723 62.9215 205.763 63.4736H204.442C204.422 63.2567 204.33 63.0858 204.166 62.961C204.008 62.8295 203.794 62.7638 203.525 62.7638C203.275 62.7638 203.081 62.8098 202.943 62.9018C202.812 62.9938 202.746 63.122 202.746 63.2863C202.746 63.4703 202.838 63.6116 203.022 63.7102C203.206 63.8022 203.492 63.8975 203.88 63.9961C204.274 64.0947 204.6 64.1965 204.856 64.3017C205.112 64.4068 205.332 64.5712 205.516 64.7946C205.707 65.0115 205.806 65.3007 205.812 65.6621C205.812 65.9776 205.723 66.2602 205.546 66.5099C205.375 66.7597 205.125 66.9568 204.797 67.1014C204.475 67.2394 204.097 67.3085 203.663 67.3085Z" fill="black"/>
<path d="M271.328 60.3387V67.2197H269.947V64.2918H267V67.2197H265.62V60.3387H267V63.168H269.947V60.3387H271.328ZM273.386 61.1076C273.143 61.1076 272.939 61.0321 272.775 60.8809C272.617 60.7232 272.538 60.5293 272.538 60.2993C272.538 60.0692 272.617 59.8786 272.775 59.7275C272.939 59.5698 273.143 59.4909 273.386 59.4909C273.629 59.4909 273.83 59.5698 273.987 59.7275C274.152 59.8786 274.234 60.0692 274.234 60.2993C274.234 60.5293 274.152 60.7232 273.987 60.8809C273.83 61.0321 273.629 61.1076 273.386 61.1076ZM274.066 61.7583V67.2197H272.686V61.7583H274.066ZM277.569 61.6696C277.976 61.6696 278.335 61.7517 278.644 61.916C278.952 62.0737 279.196 62.2808 279.373 62.5371V61.7583H280.763V67.2592C280.763 67.7652 280.661 68.2154 280.457 68.6097C280.254 69.0106 279.948 69.3261 279.541 69.5561C279.133 69.7927 278.64 69.911 278.062 69.911C277.286 69.911 276.649 69.7303 276.149 69.3688C275.656 69.0073 275.377 68.5144 275.311 67.8901H276.682C276.754 68.1398 276.908 68.337 277.145 68.4816C277.388 68.6327 277.681 68.7083 278.022 68.7083C278.423 68.7083 278.749 68.5867 278.998 68.3436C279.248 68.107 279.373 67.7455 279.373 67.2592V66.4114C279.196 66.6677 278.949 66.8813 278.634 67.0521C278.325 67.223 277.97 67.3085 277.569 67.3085C277.109 67.3085 276.688 67.1902 276.307 66.9536C275.926 66.717 275.624 66.3851 275.4 65.9579C275.183 65.5241 275.075 65.0279 275.075 64.4693C275.075 63.9172 275.183 63.4276 275.4 63.0004C275.624 62.5732 275.923 62.2446 276.297 62.0146C276.678 61.7846 277.102 61.6696 277.569 61.6696ZM279.373 64.489C279.373 64.1538 279.307 63.8679 279.176 63.6313C279.044 63.3882 278.867 63.2041 278.644 63.0793C278.42 62.9478 278.18 62.8821 277.924 62.8821C277.668 62.8821 277.431 62.9445 277.214 63.0694C276.997 63.1943 276.82 63.3783 276.682 63.6215C276.55 63.8581 276.485 64.1407 276.485 64.4693C276.485 64.7979 276.55 65.0871 276.682 65.3368C276.82 65.58 276.997 65.7673 277.214 65.8987C277.438 66.0302 277.674 66.0959 277.924 66.0959C278.18 66.0959 278.42 66.0335 278.644 65.9086C278.867 65.7771 279.044 65.5931 279.176 65.3565C279.307 65.1134 279.373 64.8242 279.373 64.489ZM285.187 61.6794C285.601 61.6794 285.969 61.7714 286.291 61.9554C286.613 62.1329 286.863 62.3991 287.04 62.754C287.224 63.1023 287.316 63.5229 287.316 64.0158V67.2197H285.936V64.2031C285.936 63.7694 285.828 63.4375 285.611 63.2074C285.394 62.9708 285.098 62.8525 284.723 62.8525C284.342 62.8525 284.04 62.9708 283.816 63.2074C283.6 63.4375 283.491 63.7694 283.491 64.2031V67.2197H282.111V59.9246H283.491V62.4385C283.669 62.2019 283.905 62.0179 284.201 61.8864C284.497 61.7484 284.825 61.6794 285.187 61.6794ZM295.197 65.9086H292.456L292.003 67.2197H290.554L293.028 60.3288H294.635L297.109 67.2197H295.65L295.197 65.9086ZM294.822 64.8045L293.827 61.9259L292.831 64.8045H294.822ZM305.605 61.7583L304.008 67.2197H302.52L301.524 63.4046L300.528 67.2197H299.03L297.423 61.7583H298.823L299.789 65.9184L300.834 61.7583H302.293L303.318 65.9086L304.284 61.7583H305.605ZM305.997 64.4693C305.997 63.9172 306.106 63.4276 306.323 63.0004C306.546 62.5732 306.845 62.2446 307.22 62.0146C307.601 61.7846 308.025 61.6696 308.491 61.6696C308.899 61.6696 309.254 61.7517 309.556 61.916C309.865 62.0803 310.111 62.2873 310.295 62.5371V61.7583H311.685V67.2197H310.295V66.4212C310.118 66.6775 309.872 66.8911 309.556 67.062C309.247 67.2263 308.889 67.3085 308.482 67.3085C308.022 67.3085 307.601 67.1902 307.22 66.9536C306.845 66.717 306.546 66.3851 306.323 65.9579C306.106 65.5241 305.997 65.0279 305.997 64.4693ZM310.295 64.489C310.295 64.1538 310.23 63.8679 310.098 63.6313C309.967 63.3882 309.789 63.2041 309.566 63.0793C309.343 62.9478 309.103 62.8821 308.846 62.8821C308.59 62.8821 308.353 62.9445 308.137 63.0694C307.92 63.1943 307.742 63.3783 307.604 63.6215C307.473 63.8581 307.407 64.1407 307.407 64.4693C307.407 64.7979 307.473 65.0871 307.604 65.3368C307.742 65.58 307.92 65.7673 308.137 65.8987C308.36 66.0302 308.597 66.0959 308.846 66.0959C309.103 66.0959 309.343 66.0335 309.566 65.9086C309.789 65.7771 309.967 65.5931 310.098 65.3565C310.23 65.1134 310.295 64.8242 310.295 64.489ZM314.414 62.6061C314.591 62.3169 314.821 62.0902 315.104 61.9259C315.393 61.7616 315.721 61.6794 316.089 61.6794V63.1286H315.725C315.291 63.1286 314.962 63.2304 314.739 63.4342C314.522 63.6379 314.414 63.9928 314.414 64.4989V67.2197H313.033V61.7583H314.414V62.6061ZM322.096 64.3707C322.096 64.5679 322.083 64.7453 322.057 64.903H318.064C318.097 65.2974 318.235 65.6063 318.478 65.8297C318.721 66.0532 319.02 66.1649 319.375 66.1649C319.888 66.1649 320.253 65.9447 320.469 65.5044H321.958C321.8 66.0302 321.498 66.4639 321.051 66.8057C320.604 67.1409 320.055 67.3085 319.405 67.3085C318.879 67.3085 318.406 67.1934 317.985 66.9634C317.571 66.7268 317.246 66.3949 317.009 65.9677C316.779 65.5405 316.664 65.0476 316.664 64.489C316.664 63.9238 316.779 63.4276 317.009 63.0004C317.239 62.5732 317.561 62.2446 317.975 62.0146C318.389 61.7846 318.866 61.6696 319.405 61.6696C319.924 61.6696 320.387 61.7813 320.795 62.0047C321.209 62.2282 321.528 62.5469 321.751 62.961C321.981 63.3685 322.096 63.8384 322.096 64.3707ZM320.667 63.9764C320.66 63.6215 320.532 63.3389 320.282 63.1286C320.032 62.9117 319.727 62.8032 319.365 62.8032C319.024 62.8032 318.734 62.9084 318.498 63.1187C318.268 63.3224 318.126 63.6083 318.074 63.9764H320.667ZM326.13 61.6794C326.781 61.6794 327.306 61.8864 327.707 62.3005C328.108 62.708 328.309 63.2797 328.309 64.0158V67.2197H326.928V64.2031C326.928 63.7694 326.82 63.4375 326.603 63.2074C326.386 62.9708 326.09 62.8525 325.716 62.8525C325.335 62.8525 325.032 62.9708 324.809 63.2074C324.592 63.4375 324.484 63.7694 324.484 64.2031V67.2197H323.103V61.7583H324.484V62.4385C324.668 62.2019 324.901 62.0179 325.184 61.8864C325.473 61.7484 325.788 61.6794 326.13 61.6794ZM334.698 64.3707C334.698 64.5679 334.685 64.7453 334.659 64.903H330.666C330.699 65.2974 330.837 65.6063 331.08 65.8297C331.323 66.0532 331.622 66.1649 331.977 66.1649C332.49 66.1649 332.855 65.9447 333.071 65.5044H334.56C334.402 66.0302 334.1 66.4639 333.653 66.8057C333.206 67.1409 332.657 67.3085 332.007 67.3085C331.481 67.3085 331.008 67.1934 330.587 66.9634C330.173 66.7268 329.848 66.3949 329.611 65.9677C329.381 65.5405 329.266 65.0476 329.266 64.489C329.266 63.9238 329.381 63.4276 329.611 63.0004C329.841 62.5732 330.163 62.2446 330.577 62.0146C330.991 61.7846 331.468 61.6696 332.007 61.6696C332.526 61.6696 332.989 61.7813 333.397 62.0047C333.811 62.2282 334.13 62.5469 334.353 62.961C334.583 63.3685 334.698 63.8384 334.698 64.3707ZM333.269 63.9764C333.262 63.6215 333.134 63.3389 332.884 63.1286C332.634 62.9117 332.329 62.8032 331.967 62.8032C331.626 62.8032 331.336 62.9084 331.1 63.1187C330.87 63.3224 330.728 63.6083 330.676 63.9764H333.269ZM337.795 67.3085C337.348 67.3085 336.948 67.2296 336.593 67.0719C336.238 66.9075 335.955 66.6874 335.745 66.4114C335.541 66.1353 335.429 65.8297 335.41 65.4945H336.8C336.826 65.7048 336.928 65.879 337.105 66.017C337.289 66.155 337.516 66.224 337.785 66.224C338.048 66.224 338.252 66.1715 338.397 66.0663C338.548 65.9612 338.623 65.8264 338.623 65.6621C338.623 65.4847 338.531 65.3532 338.347 65.2678C338.17 65.1758 337.884 65.0772 337.49 64.9721C337.082 64.8735 336.747 64.7716 336.484 64.6664C336.228 64.5613 336.004 64.4003 335.814 64.1834C335.63 63.9665 335.538 63.6741 335.538 63.306C335.538 63.0037 335.623 62.7277 335.794 62.4779C335.972 62.2282 336.221 62.031 336.543 61.8864C336.872 61.7418 337.256 61.6696 337.697 61.6696C338.347 61.6696 338.867 61.8339 339.254 62.1625C339.642 62.4845 339.856 62.9215 339.895 63.4736H338.574C338.554 63.2567 338.462 63.0858 338.298 62.961C338.14 62.8295 337.927 62.7638 337.657 62.7638C337.408 62.7638 337.214 62.8098 337.076 62.9018C336.944 62.9938 336.879 63.122 336.879 63.2863C336.879 63.4703 336.971 63.6116 337.155 63.7102C337.339 63.8022 337.624 63.8975 338.012 63.9961C338.407 64.0947 338.732 64.1965 338.988 64.3017C339.245 64.4068 339.465 64.5712 339.649 64.7946C339.839 65.0115 339.938 65.3007 339.944 65.6621C339.944 65.9776 339.856 66.2602 339.678 66.5099C339.507 66.7597 339.258 66.9568 338.929 67.1014C338.607 67.2394 338.229 67.3085 337.795 67.3085ZM343.167 67.3085C342.72 67.3085 342.319 67.2296 341.965 67.0719C341.61 66.9075 341.327 66.6874 341.117 66.4114C340.913 66.1353 340.801 65.8297 340.782 65.4945H342.172C342.198 65.7048 342.3 65.879 342.477 66.017C342.661 66.155 342.888 66.224 343.157 66.224C343.42 66.224 343.624 66.1715 343.769 66.0663C343.92 65.9612 343.995 65.8264 343.995 65.6621C343.995 65.4847 343.903 65.3532 343.719 65.2678C343.542 65.1758 343.256 65.0772 342.862 64.9721C342.454 64.8735 342.119 64.7716 341.856 64.6664C341.6 64.5613 341.376 64.4003 341.186 64.1834C341.002 63.9665 340.91 63.6741 340.91 63.306C340.91 63.0037 340.995 62.7277 341.166 62.4779C341.344 62.2282 341.593 62.031 341.915 61.8864C342.244 61.7418 342.628 61.6696 343.069 61.6696C343.719 61.6696 344.239 61.8339 344.626 62.1625C345.014 62.4845 345.228 62.9215 345.267 63.4736H343.946C343.926 63.2567 343.834 63.0858 343.67 62.961C343.512 62.8295 343.299 62.7638 343.029 62.7638C342.78 62.7638 342.586 62.8098 342.448 62.9018C342.316 62.9938 342.25 63.122 342.25 63.2863C342.25 63.4703 342.343 63.6116 342.527 63.7102C342.711 63.8022 342.996 63.8975 343.384 63.9961C343.779 64.0947 344.104 64.1965 344.36 64.3017C344.616 64.4068 344.837 64.5712 345.021 64.7946C345.211 65.0115 345.31 65.3007 345.316 65.6621C345.316 65.9776 345.228 66.2602 345.05 66.5099C344.879 66.7597 344.63 66.9568 344.301 67.1014C343.979 67.2394 343.601 67.3085 343.167 67.3085ZM347.958 65.7706L346.804 68.5407H345.917L346.558 65.7706H347.958ZM357.009 60.3387V67.2197H355.629V64.2918H352.682V67.2197H351.301V60.3387H352.682V63.168H355.629V60.3387H357.009ZM359.068 61.1076C358.825 61.1076 358.621 61.0321 358.456 60.8809C358.299 60.7232 358.22 60.5293 358.22 60.2993C358.22 60.0692 358.299 59.8786 358.456 59.7275C358.621 59.5698 358.825 59.4909 359.068 59.4909C359.311 59.4909 359.511 59.5698 359.669 59.7275C359.833 59.8786 359.915 60.0692 359.915 60.2993C359.915 60.5293 359.833 60.7232 359.669 60.8809C359.511 61.0321 359.311 61.1076 359.068 61.1076ZM359.748 61.7583V67.2197H358.368V61.7583H359.748ZM363.251 61.6696C363.658 61.6696 364.016 61.7517 364.325 61.916C364.634 62.0737 364.877 62.2808 365.055 62.5371V61.7583H366.445V67.2592C366.445 67.7652 366.343 68.2154 366.139 68.6097C365.935 69.0106 365.63 69.3261 365.222 69.5561C364.815 69.7927 364.322 69.911 363.744 69.911C362.968 69.911 362.331 69.7303 361.831 69.3688C361.338 69.0073 361.059 68.5144 360.993 67.8901H362.363C362.436 68.1398 362.59 68.337 362.827 68.4816C363.07 68.6327 363.362 68.7083 363.704 68.7083C364.105 68.7083 364.43 68.5867 364.68 68.3436C364.93 68.107 365.055 67.7455 365.055 67.2592V66.4114C364.877 66.6677 364.631 66.8813 364.315 67.0521C364.007 67.223 363.652 67.3085 363.251 67.3085C362.791 67.3085 362.37 67.1902 361.989 66.9536C361.608 66.717 361.305 66.3851 361.082 65.9579C360.865 65.5241 360.757 65.0279 360.757 64.4693C360.757 63.9172 360.865 63.4276 361.082 63.0004C361.305 62.5732 361.604 62.2446 361.979 62.0146C362.36 61.7846 362.784 61.6696 363.251 61.6696ZM365.055 64.489C365.055 64.1538 364.989 63.8679 364.858 63.6313C364.726 63.3882 364.549 63.2041 364.325 63.0793C364.102 62.9478 363.862 62.8821 363.606 62.8821C363.349 62.8821 363.113 62.9445 362.896 63.0694C362.679 63.1943 362.501 63.3783 362.363 63.6215C362.232 63.8581 362.166 64.1407 362.166 64.4693C362.166 64.7979 362.232 65.0871 362.363 65.3368C362.501 65.58 362.679 65.7673 362.896 65.8987C363.119 66.0302 363.356 66.0959 363.606 66.0959C363.862 66.0959 364.102 66.0335 364.325 65.9086C364.549 65.7771 364.726 65.5931 364.858 65.3565C364.989 65.1134 365.055 64.8242 365.055 64.489ZM370.868 61.6794C371.283 61.6794 371.651 61.7714 371.973 61.9554C372.295 62.1329 372.544 62.3991 372.722 62.754C372.906 63.1023 372.998 63.5229 372.998 64.0158V67.2197H371.618V64.2031C371.618 63.7694 371.509 63.4375 371.292 63.2074C371.076 62.9708 370.78 62.8525 370.405 62.8525C370.024 62.8525 369.722 62.9708 369.498 63.2074C369.281 63.4375 369.173 63.7694 369.173 64.2031V67.2197H367.793V59.9246H369.173V62.4385C369.35 62.2019 369.587 62.0179 369.883 61.8864C370.178 61.7484 370.507 61.6794 370.868 61.6794ZM385.857 60.3387L383.935 67.2197H382.308L381.017 62.3202L379.666 67.2197L378.049 67.2296L376.196 60.3387H377.675L378.887 65.6818L380.287 60.3387H381.825L383.146 65.6523L384.368 60.3387H385.857ZM387.458 61.1076C387.215 61.1076 387.011 61.0321 386.847 60.8809C386.689 60.7232 386.61 60.5293 386.61 60.2993C386.61 60.0692 386.689 59.8786 386.847 59.7275C387.011 59.5698 387.215 59.4909 387.458 59.4909C387.701 59.4909 387.902 59.5698 388.06 59.7275C388.224 59.8786 388.306 60.0692 388.306 60.2993C388.306 60.5293 388.224 60.7232 388.06 60.8809C387.902 61.0321 387.701 61.1076 387.458 61.1076ZM388.138 61.7583V67.2197H386.758V61.7583H388.138ZM390.882 59.9246V67.2197H389.502V59.9246H390.882ZM393.626 59.9246V67.2197H392.246V59.9246H393.626ZM395.689 61.1076C395.446 61.1076 395.242 61.0321 395.078 60.8809C394.92 60.7232 394.842 60.5293 394.842 60.2993C394.842 60.0692 394.92 59.8786 395.078 59.7275C395.242 59.5698 395.446 59.4909 395.689 59.4909C395.933 59.4909 396.133 59.5698 396.291 59.7275C396.455 59.8786 396.537 60.0692 396.537 60.2993C396.537 60.5293 396.455 60.7232 396.291 60.8809C396.133 61.0321 395.933 61.1076 395.689 61.1076ZM396.37 61.7583V67.2197H394.989V61.7583H396.37ZM400.76 61.6794C401.41 61.6794 401.936 61.8864 402.337 62.3005C402.738 62.708 402.938 63.2797 402.938 64.0158V67.2197H401.558V64.2031C401.558 63.7694 401.45 63.4375 401.233 63.2074C401.016 62.9708 400.72 62.8525 400.346 62.8525C399.964 62.8525 399.662 62.9708 399.439 63.2074C399.222 63.4375 399.113 63.7694 399.113 64.2031V67.2197H397.733V61.7583H399.113V62.4385C399.297 62.2019 399.531 62.0179 399.813 61.8864C400.102 61.7484 400.418 61.6794 400.76 61.6794ZM406.39 61.6696C406.797 61.6696 407.156 61.7517 407.465 61.916C407.773 62.0737 408.017 62.2808 408.194 62.5371V61.7583H409.584V67.2592C409.584 67.7652 409.482 68.2154 409.278 68.6097C409.075 69.0106 408.769 69.3261 408.362 69.5561C407.954 69.7927 407.461 69.911 406.883 69.911C406.107 69.911 405.47 69.7303 404.97 69.3688C404.478 69.0073 404.198 68.5144 404.132 67.8901H405.503C405.575 68.1398 405.73 68.337 405.966 68.4816C406.209 68.6327 406.502 68.7083 406.843 68.7083C407.244 68.7083 407.57 68.5867 407.819 68.3436C408.069 68.107 408.194 67.7455 408.194 67.2592V66.4114C408.017 66.6677 407.77 66.8813 407.455 67.0521C407.146 67.223 406.791 67.3085 406.39 67.3085C405.93 67.3085 405.509 67.1902 405.128 66.9536C404.747 66.717 404.445 66.3851 404.221 65.9579C404.004 65.5241 403.896 65.0279 403.896 64.4693C403.896 63.9172 404.004 63.4276 404.221 63.0004C404.445 62.5732 404.744 62.2446 405.118 62.0146C405.499 61.7846 405.923 61.6696 406.39 61.6696ZM408.194 64.489C408.194 64.1538 408.128 63.8679 407.997 63.6313C407.865 63.3882 407.688 63.2041 407.465 63.0793C407.241 62.9478 407.001 62.8821 406.745 62.8821C406.489 62.8821 406.252 62.9445 406.035 63.0694C405.818 63.1943 405.641 63.3783 405.503 63.6215C405.371 63.8581 405.306 64.1407 405.306 64.4693C405.306 64.7979 405.371 65.0871 405.503 65.3368C405.641 65.58 405.818 65.7673 406.035 65.8987C406.259 66.0302 406.495 66.0959 406.745 66.0959C407.001 66.0959 407.241 66.0335 407.465 65.9086C407.688 65.7771 407.865 65.5931 407.997 65.3565C408.128 65.1134 408.194 64.8242 408.194 64.489ZM413.959 61.6794C414.609 61.6794 415.135 61.8864 415.536 62.3005C415.937 62.708 416.137 63.2797 416.137 64.0158V67.2197H414.757V64.2031C414.757 63.7694 414.649 63.4375 414.432 63.2074C414.215 62.9708 413.919 62.8525 413.544 62.8525C413.163 62.8525 412.861 62.9708 412.638 63.2074C412.421 63.4375 412.312 63.7694 412.312 64.2031V67.2197H410.932V61.7583H412.312V62.4385C412.496 62.2019 412.73 62.0179 413.012 61.8864C413.301 61.7484 413.617 61.6794 413.959 61.6794ZM422.527 64.3707C422.527 64.5679 422.513 64.7453 422.487 64.903H418.495C418.527 65.2974 418.665 65.6063 418.909 65.8297C419.152 66.0532 419.451 66.1649 419.806 66.1649C420.318 66.1649 420.683 65.9447 420.9 65.5044H422.389C422.231 66.0302 421.929 66.4639 421.482 66.8057C421.035 67.1409 420.486 67.3085 419.835 67.3085C419.31 67.3085 418.836 67.1934 418.416 66.9634C418.002 66.7268 417.676 66.3949 417.44 65.9677C417.21 65.5405 417.095 65.0476 417.095 64.489C417.095 63.9238 417.21 63.4276 417.44 63.0004C417.67 62.5732 417.992 62.2446 418.406 62.0146C418.82 61.7846 419.296 61.6696 419.835 61.6696C420.355 61.6696 420.818 61.7813 421.225 62.0047C421.639 62.2282 421.958 62.5469 422.182 62.961C422.412 63.3685 422.527 63.8384 422.527 64.3707ZM421.097 63.9764C421.091 63.6215 420.962 63.3389 420.713 63.1286C420.463 62.9117 420.157 62.8032 419.796 62.8032C419.454 62.8032 419.165 62.9084 418.928 63.1187C418.698 63.3224 418.557 63.6083 418.504 63.9764H421.097ZM425.624 67.3085C425.177 67.3085 424.776 67.2296 424.421 67.0719C424.066 66.9075 423.784 66.6874 423.573 66.4114C423.37 66.1353 423.258 65.8297 423.238 65.4945H424.628C424.655 65.7048 424.756 65.879 424.934 66.017C425.118 66.155 425.345 66.224 425.614 66.224C425.877 66.224 426.081 66.1715 426.225 66.0663C426.376 65.9612 426.452 65.8264 426.452 65.6621C426.452 65.4847 426.36 65.3532 426.176 65.2678C425.999 65.1758 425.713 65.0772 425.318 64.9721C424.911 64.8735 424.576 64.7716 424.313 64.6664C424.056 64.5613 423.833 64.4003 423.642 64.1834C423.458 63.9665 423.366 63.6741 423.366 63.306C423.366 63.0037 423.452 62.7277 423.623 62.4779C423.8 62.2282 424.05 62.031 424.372 61.8864C424.701 61.7418 425.085 61.6696 425.525 61.6696C426.176 61.6696 426.695 61.8339 427.083 62.1625C427.471 62.4845 427.684 62.9215 427.724 63.4736H426.403C426.383 63.2567 426.291 63.0858 426.127 62.961C425.969 62.8295 425.755 62.7638 425.486 62.7638C425.236 62.7638 425.042 62.8098 424.904 62.9018C424.773 62.9938 424.707 63.122 424.707 63.2863C424.707 63.4703 424.799 63.6116 424.983 63.7102C425.167 63.8022 425.453 63.8975 425.841 63.9961C426.235 64.0947 426.56 64.1965 426.817 64.3017C427.073 64.4068 427.293 64.5712 427.477 64.7946C427.668 65.0115 427.766 65.3007 427.773 65.6621C427.773 65.9776 427.684 66.2602 427.507 66.5099C427.336 66.7597 427.086 66.9568 426.758 67.1014C426.436 67.2394 426.058 67.3085 425.624 67.3085ZM430.996 67.3085C430.549 67.3085 430.148 67.2296 429.793 67.0719C429.438 66.9075 429.156 66.6874 428.945 66.4114C428.742 66.1353 428.63 65.8297 428.61 65.4945H430C430.027 65.7048 430.128 65.879 430.306 66.017C430.49 66.155 430.717 66.224 430.986 66.224C431.249 66.224 431.453 66.1715 431.597 66.0663C431.748 65.9612 431.824 65.8264 431.824 65.6621C431.824 65.4847 431.732 65.3532 431.548 65.2678C431.371 65.1758 431.085 65.0772 430.69 64.9721C430.283 64.8735 429.948 64.7716 429.685 64.6664C429.428 64.5613 429.205 64.4003 429.014 64.1834C428.83 63.9665 428.738 63.6741 428.738 63.306C428.738 63.0037 428.824 62.7277 428.995 62.4779C429.172 62.2282 429.422 62.031 429.744 61.8864C430.073 61.7418 430.457 61.6696 430.897 61.6696C431.548 61.6696 432.067 61.8339 432.455 62.1625C432.843 62.4845 433.056 62.9215 433.096 63.4736H431.775C431.755 63.2567 431.663 63.0858 431.499 62.961C431.341 62.8295 431.127 62.7638 430.858 62.7638C430.608 62.7638 430.414 62.8098 430.276 62.9018C430.145 62.9938 430.079 63.122 430.079 63.2863C430.079 63.4703 430.171 63.6116 430.355 63.7102C430.539 63.8022 430.825 63.8975 431.213 63.9961C431.607 64.0947 431.932 64.1965 432.189 64.3017C432.445 64.4068 432.665 64.5712 432.849 64.7946C433.04 65.0115 433.138 65.3007 433.145 65.6621C433.145 65.9776 433.056 66.2602 432.879 66.5099C432.708 66.7597 432.458 66.9568 432.13 67.1014C431.808 67.2394 431.43 67.3085 430.996 67.3085Z" fill="black"/>
<line x1="11" y1="245.8" x2="451" y2="245.8" stroke="black" stroke-width="0.4"/>
</svg>
