<svg width="446" height="284" viewBox="0 0 446 284" fill="none" xmlns="http://www.w3.org/2000/svg">
<line x1="29.5703" y1="196.659" x2="445.067" y2="196.659" stroke="#ADADAD" stroke-width="0.389041"/>
<line x1="29.5703" y1="244.122" x2="445.067" y2="244.122" stroke="black" stroke-width="0.389041"/>
<path d="M29.5703 151.726H445.067" stroke="#ADADAD" stroke-width="0.389041"/>
<path d="M29.5703 106.596H445.067" stroke="#ADADAD" stroke-width="0.389041"/>
<path d="M29.959 61.4678H445.455" stroke="#ADADAD" stroke-width="0.389041"/>
<text fill="black" xml:space="preserve" style="white-space: pre" font-family="Poppins" font-size="9.33699" font-weight="600" letter-spacing="0em"><tspan x="46.4475" y="261.202">To a great </tspan><tspan x="55.4243" y="270.539">extent</tspan></text>
<text fill="black" xml:space="preserve" style="white-space: pre" font-family="Poppins" font-size="9.33699" font-weight="600" letter-spacing="0em"><tspan x="129.242" y="261.202">Somewhat</tspan></text>
<text fill="black" xml:space="preserve" style="white-space: pre" font-family="Poppins" font-size="9.33699" font-weight="600" letter-spacing="0em"><tspan x="219.555" y="261.202">Very little</tspan></text>
<text fill="black" xml:space="preserve" style="white-space: pre" font-family="Poppins" font-size="9.33699" font-weight="600" letter-spacing="0em"><tspan x="302.305" y="261.202">Not at all</tspan></text>
<text fill="black" xml:space="preserve" style="white-space: pre" font-family="Poppins" font-size="9.33699" font-weight="600" letter-spacing="0em"><tspan x="375.115" y="261.202">Not Applicable</tspan></text>
<text fill="black" xml:space="preserve" style="white-space: pre" font-family="Poppins" font-size="9.33699" font-weight="600" letter-spacing="0em"><tspan x="0" y="64.7368">100%</tspan></text>
<text fill="black" xml:space="preserve" style="white-space: pre" font-family="Poppins" font-size="9.33699" font-weight="600" letter-spacing="0em"><tspan x="0.134531" y="109.967">75%</tspan></text>
<text fill="black" xml:space="preserve" style="white-space: pre" font-family="Poppins" font-size="9.33699" font-weight="600" letter-spacing="0em"><tspan x="0.213596" y="155.197">50%</tspan></text>
<text fill="black" xml:space="preserve" style="white-space: pre" font-family="Poppins" font-size="9.33699" font-weight="600" letter-spacing="0em"><tspan x="0.88834" y="200.427">25%</tspan></text>
<text fill="black" xml:space="preserve" style="white-space: pre" font-family="Poppins" font-size="9.33699" font-weight="600" letter-spacing="0em"><tspan x="0.222463" y="245.657">0%</tspan></text>
<rect x="52.1328" y="114.378" width="7.78083" height="129.551" fill="#D2B79E"/>
<rect x="62.6348" y="94.5371" width="7.78083" height="149.392" fill="#CC894B"/>
<rect x="73.1387" y="106.987" width="7.78083" height="136.943" fill="#AA621F"/>
<rect x="83.6445" y="84.811" width="7.78083" height="159.118" fill="#A17043"/>
<rect x="134.994" y="219.03" width="7.78083" height="24.8987" fill="#D2B79E"/>
<rect x="145.5" y="224.866" width="7.78083" height="19.063" fill="#CC894B"/>
<rect x="156.008" y="209.693" width="7.78083" height="34.2357" fill="#AA621F"/>
<rect x="166.506" y="229.924" width="7.78083" height="14.0055" fill="#A17043"/>
<rect x="218.252" y="229.924" width="7.78083" height="14.0055" fill="#D2B79E"/>
<rect x="228.758" y="238.872" width="7.78083" height="5.05754" fill="#CC894B"/>
<rect x="301.508" y="229.924" width="7.78083" height="14.0055" fill="#D2B79E"/>
<rect x="312.016" y="238.872" width="7.78083" height="5.05754" fill="#CC894B"/>
<rect x="322.514" y="232.647" width="7.78083" height="11.2822" fill="#AA621F"/>
<rect x="333.02" y="232.647" width="7.78083" height="11.2822" fill="#A17043"/>
<rect x="384.762" y="238.482" width="7.78083" height="5.83562" fill="#D2B79E"/>
<line x1="25.6758" y1="13.2276" x2="50.9635" y2="13.2276" stroke="#D2B79E" stroke-width="7.00275"/>
<text fill="#AAAAAA" xml:space="preserve" style="white-space: pre" font-family="Poppins" font-size="9.33699" font-weight="600" letter-spacing="0em"><tspan x="59.5215" y="15.7173">Financial</tspan></text>
<line x1="126.83" y1="13.2276" x2="152.118" y2="13.2276" stroke="#CC894B" stroke-width="7.00275"/>
<text fill="#AAAAAA" xml:space="preserve" style="white-space: pre" font-family="Poppins" font-size="9.33699" font-weight="600" letter-spacing="0em"><tspan x="160.676" y="15.7173">Medical</tspan></text>
<line x1="347.803" y1="13.2276" x2="373.09" y2="13.2276" stroke="#A17043" stroke-width="7.00275"/>
<text fill="#AAAAAA" xml:space="preserve" style="white-space: pre" font-family="Poppins" font-size="9.33699" font-weight="600" letter-spacing="0em"><tspan x="381.648" y="15.7173">Legal</tspan></text>
<line x1="222.92" y1="13.2276" x2="248.208" y2="13.2276" stroke="#AA621F" stroke-width="7.00275"/>
<text fill="#AAAAAA" xml:space="preserve" style="white-space: pre" font-family="Poppins" font-size="9.33699" font-weight="600" letter-spacing="0em"><tspan x="256.766" y="15.7173">Aging-Related</tspan></text>
</svg>
