<svg width="1000" height="198" viewBox="0 0 1000 198" fill="none" xmlns="http://www.w3.org/2000/svg">
<rect y="0.942383" width="306.796" height="196.117" rx="9.70874" fill="#FFDEC8"/>
<rect x="346.602" y="0.942383" width="306.796" height="196.117" rx="9.70874" fill="#FFD2B5"/>
<rect x="693.203" y="0.942383" width="306.796" height="196.117" rx="9.70874" fill="#FFC098"/>
<text fill="black" xml:space="preserve" style="white-space: pre" font-family="Poppins" font-size="19.4175" font-weight="600" letter-spacing="0em"><tspan x="18.4473" y="40.6848">General Info</tspan></text>
<text fill="black" xml:space="preserve" style="white-space: pre" font-family="Poppins" font-size="19.4175" font-weight="600" letter-spacing="0em"><tspan x="365.049" y="40.6848">Priming Task</tspan></text>
<text fill="black" xml:space="preserve" style="white-space: pre" font-family="Poppins" font-size="19.4175" font-weight="600" letter-spacing="0em"><tspan x="711.65" y="40.6848">Self-Efficacy Questionnaire</tspan></text>
<text fill="#616466" xml:space="preserve" style="white-space: pre" font-family="Poppins" font-size="13.5922" letter-spacing="0em"><tspan x="18.4473" y="81.7192">To better understand our survey </tspan><tspan x="18.4473" y="101.719">respondents, we asked about their </tspan><tspan x="18.4473" y="121.719">current research, the size of the data </tspan><tspan x="18.4473" y="141.719">they produce or use, and data </tspan><tspan x="18.4473" y="161.719">management tools.</tspan></text>
<text fill="#616466" xml:space="preserve" style="white-space: pre" font-family="Poppins" font-size="13.5922" letter-spacing="0em"><tspan x="365.049" y="81.7192">We primed researchers to consider </tspan><tspan x="365.049" y="101.719">their data-related practices by </tspan><tspan x="365.049" y="121.719">evaluating a recent experience, </tspan><tspan x="365.049" y="141.719">challenge, or success that they had </tspan><tspan x="365.049" y="161.719">with data management</tspan></text>
<text fill="#616466" xml:space="preserve" style="white-space: pre" font-family="Poppins" font-size="13.5922" letter-spacing="0em"><tspan x="711.65" y="81.7192">We measured researcher self-efficacy </tspan><tspan x="711.65" y="101.719">with data, or an individual&#x2019;s perception </tspan><tspan x="711.65" y="121.719">in their capacity to execute behaviors </tspan><tspan x="711.65" y="141.719">necessary to meet a certain goal using </tspan><tspan x="711.65" y="161.719">the general self-efficacy scale.</tspan></text>
<path d="M307.768 98.5153H346.603M346.603 98.5153L338.836 89.292M346.603 98.5153L338.836 108.224" stroke="#676666" stroke-width="1.94175" stroke-linecap="round" stroke-linejoin="round"/>
<path d="M654.369 98.5153H693.204M693.204 98.5153L685.437 89.292M693.204 98.5153L685.437 108.224" stroke="#676666" stroke-width="1.94175" stroke-linecap="round" stroke-linejoin="round"/>
</svg>
