<svg width="1000" height="269" viewBox="0 0 1000 269" fill="none" xmlns="http://www.w3.org/2000/svg">
<rect y="0.0341797" width="306.796" height="268.932" rx="9.70874" fill="#EDF2FB"/>
<rect x="346.602" y="0.0341797" width="306.796" height="268.932" rx="9.70874" fill="#E0E8F7"/>
<rect x="693.203" y="0.0341797" width="306.796" height="268.932" rx="9.70874" fill="#C1CFEC"/>
<text fill="black" xml:space="preserve" style="white-space: pre" font-family="Poppins" font-size="19.4175" font-weight="600" letter-spacing="0em"><tspan x="18.4473" y="39.7766">User Need</tspan></text>
<text fill="black" xml:space="preserve" style="white-space: pre" font-family="Poppins" font-size="19.4175" font-weight="600" letter-spacing="0em"><tspan x="365.049" y="39.7766">Leading Question</tspan></text>
<text fill="black" xml:space="preserve" style="white-space: pre" font-family="Poppins" font-size="19.4175" font-weight="600" letter-spacing="0em"><tspan x="711.65" y="39.7766">Discussion Questions</tspan></text>
<text fill="#616466" xml:space="preserve" style="white-space: pre" font-family="Poppins" font-size="13.5922" letter-spacing="0em"><tspan x="18.4473" y="80.811">Users need to seek out additional </tspan><tspan x="18.4473" y="100.811">information or help to support their use </tspan><tspan x="18.4473" y="120.811">of the Smart Loading Zone. </tspan></text>
<text fill="#616466" xml:space="preserve" style="white-space: pre" font-family="Poppins" font-size="13.5922" letter-spacing="0em"><tspan x="365.049" y="80.811">Have you ever wished you had support </tspan><tspan x="365.049" y="100.811">in completing a new process, giving </tspan><tspan x="365.049" y="120.811">you the necessary information and </tspan><tspan x="365.049" y="140.811">guidance to succeed? </tspan></text>
<text fill="#616466" xml:space="preserve" style="white-space: pre" font-family="Poppins" font-size="13.5922" letter-spacing="0em"><tspan x="711.65" y="80.811">What information might you seek out to </tspan><tspan x="711.65" y="100.811">help you use a loading zone?&#10;</tspan><tspan x="711.65" y="120.811">&#10;</tspan><tspan x="711.65" y="140.811">How do these support options compare </tspan><tspan x="711.65" y="160.811">to other products you&#x2019;ve used before? &#10;</tspan><tspan x="711.65" y="180.811">&#10;</tspan><tspan x="711.65" y="200.811">How invasive do the risky solutions feel? </tspan><tspan x="711.65" y="220.811">How comfortable are users with these </tspan><tspan x="711.65" y="240.811">technologies and ideas?&#10;</tspan></text>
<path d="M307.768 97.6071H346.603M346.603 97.6071L338.836 88.3838M346.603 97.6071L338.836 107.316" stroke="#676666" stroke-width="1.94175" stroke-linecap="round" stroke-linejoin="round"/>
<path d="M654.369 97.6071H693.204M693.204 97.6071L685.437 88.3838M693.204 97.6071L685.437 107.316" stroke="#676666" stroke-width="1.94175" stroke-linecap="round" stroke-linejoin="round"/>
</svg>
