<svg width="521" height="504" viewBox="0 0 521 504" fill="none" xmlns="http://www.w3.org/2000/svg">
<path d="M200.839 196.695C203.266 192.136 203.356 147.3 272.428 104.569C277.588 100.924 281.712 97.6677 287.318 94.7293C291.407 92.5863 299.02 91.1234 301.258 86.6987C303.382 82.4989 305.055 77.7708 306.49 73.3143C307.689 69.588 309.174 66.4764 310.148 62.6792C311.648 56.8339 311.804 51.0913 311.392 44.8816C310.905 37.5395 306.592 30.2745 301.916 24.6241C299.303 21.4661 294.858 19.1303 291.05 18.0715C288.107 17.2531 285.327 17.1709 282.342 16.5935C275.989 15.3645 253.025 15.4714 246.927 13.8081C245.279 13.3588 243.3 14.2612 245.097 10.2631C246.927 0.851799 278.867 2.19947 289.385 5.36306C293.04 7.77237 313.027 20.6281 314.063 25.2391C315.379 31.0921 318.89 36.6164 318.71 42.8558C318.585 47.1566 315.833 54.2769 312.783 57.4701C310.189 60.1851 307.622 64.0896 303.197 63.2941C298.383 62.4287 299.42 55.3837 300.27 52.1887C301.083 49.1339 305.486 38.2691 301.587 36.1275C297.808 34.0516 294.413 36.6929 291.05 38.4426C288.62 39.7072 286.507 41.5167 284.135 42.8197C278.995 45.643 279.595 37.6718 278.867 35.3678C277.232 30.1954 273.38 27.1294 268.147 26.0711C263.245 25.0797 255.35 24.3984 251.537 28.1692C249.52 30.1631 251.43 35.6577 251.866 37.9C252.684 42.1049 252.854 46.0315 252.854 50.3077C252.854 57.7566 246.618 63.3794 246.927 70.9992C247.036 73.6978 255.861 72.4126 257.134 71.4332C259.696 69.4633 258.781 76.0888 258.781 77.9446C258.781 81.0063 258.936 85.4687 262.732 85.4687C267.957 85.4687 272.353 83.8052 277.074 81.8513C279.677 80.7741 281.962 81.0488 284.757 80.7661C289.252 80.3116 293.356 79.6086 297.892 79.6086C302.835 79.6086 307.694 79.3827 312.526 80.6214C316.501 81.6404 319.549 83.9179 322.661 86.4454C325.424 88.6897 329.049 90.2194 331.368 92.9206C338.835 101.615 344.244 112.386 344.393 123.885C344.541 135.26 345.052 146.57 345.052 157.961C345.052 167.24 344.124 177.011 345.381 186.213C346.196 192.175 346.068 198.532 346.332 204.553C346.526 208.957 347.028 213.307 347.028 217.721C347.028 221.841 346.907 226.98 348.345 230.888C348.981 232.618 352.222 229.755 352.808 229.369C357.827 226.061 358.856 216.76 359.504 211.318C360.782 200.572 361.777 191.548 367.736 181.908C370.643 177.205 376.654 170.536 382.37 169.609C385.318 169.132 388.58 169.465 391.553 169.465C394.632 169.465 399.195 168.624 402.054 170.116C406.472 172.421 407.441 179.118 406.298 183.355C403.858 192.404 387.361 190.347 381.748 186.756C379.74 185.471 377.314 184.872 375.016 184.115C370.661 182.68 366.732 180.136 362.321 178.87C352.678 176.102 342.179 175.142 332.173 175.325C325.373 175.449 321.373 183.258 320.685 189.035C319.834 196.191 319.314 203.419 317.063 210.341C314.945 216.856 303.159 216.997 297.855 216.997C290.191 216.997 282.442 217.384 274.806 216.672C267.734 216.012 261.309 214.055 254.317 213.09C243.54 211.604 221.644 207.699 214.328 218.951C211.852 222.759 208.199 225.978 206.096 230.02C202.035 237.827 196.798 244.193 191.096 250.856C184.718 258.308 175.709 259.869 166.583 262.576C155.526 265.856 144.899 270.514 133.838 273.899C109.69 278.782 96.6289 326.328 95.1289 335.756C93.0134 341.861 98.5812 349.939 103.361 346.717C106.068 344.892 108.249 339.526 109.69 336.552C113.218 329.274 115.595 321.905 117.191 314.016C118.207 308.991 119.303 304.126 119.971 299.04C120.553 294.609 120.96 286.831 124.105 283.376C125.895 281.411 125.386 279.222 128.167 278.782C132.733 278.06 137.351 275.567 141.996 274.586C148.143 273.289 154.237 271.613 160.326 270.064C164.334 269.046 169.066 268.735 172.875 267.134C177.893 265.026 184.732 263.404 187.583 258.236C189.635 254.517 189.739 248.201 189.632 243.983C189.559 241.081 188.101 239.724 186.01 237.87C182.746 234.977 177.785 234.793 173.534 234.614C167.895 234.377 162.883 232.98 157.363 232.118C150.777 231.09 143.436 231.973 136.801 231.973C131.85 231.973 126.898 231.973 121.947 231.973C117.211 231.973 112.317 231.63 107.605 232.118C103.526 232.54 100.1 234.631 96.629 236.64C91.5992 239.551 73.7333 270.064 72.4086 275.925C66.4801 291.207 61.3871 306.419 57.9203 322.481C53.7648 341.733 55.8119 362.903 59.896 381.951C61.0648 387.402 62.2321 393.475 65.4937 398.157C67.2278 400.645 69.0221 402.824 70.433 405.536C72.3485 409.219 75.1443 409.73 79.36 408.973C90.2413 407.016 90.893 387.613 91.6531 379.346C92.4045 371.174 93.2269 364.057 88.031 357.208C85.2724 353.571 80.0506 353.85 76.1404 355.724C72.0389 357.691 67.9069 359.078 63.701 360.897C58.646 363.084 53.4391 364.885 48.4078 367.083C42.3624 369.724 35.7595 370.19 29.6023 372.473C23.7322 374.649 17.9707 375.797 11.8212 377.031C7.54648 377.889 3.25995 379.076 3.25995 384.013C3.25995 386.312 2.51246 389.95 3.55267 392.007C5.06017 394.988 11.1126 395.502 13.8335 395.986C19.3437 396.967 25.0433 397.137 30.4437 398.663C35.2554 400.022 79.5631 421.879 83.9699 424.057C98.3851 433.515 94.6116 428.806 98.3851 435.38C100.503 439.07 100.051 443.011 100.58 447.136C101.233 452.23 101.871 456.262 104.093 460.955C110.15 473.75 121.3 472.13 127.874 461.533C130.203 457.778 132.234 453.456 132.667 449.089C133.025 445.479 134.038 439.893 131.752 436.79C128.929 432.959 124.271 430.101 119.799 429.416C115.795 428.802 113.48 428.036 109.324 428.036C98.4488 428.036 92.4081 441.342 91.1776 450.102C90.3155 456.239 89.0257 464.633 94.3606 469.419C102.608 476.819 116.707 479.718 127.581 480.054C148.364 480.696 201.11 473.44 221.978 474.859M219.999 474.7C227.063 475.321 234.31 475.318 241.402 475.786C247.137 476.164 276.662 473.198 282.269 471.734M282.269 471.734C232.556 471.192 196.429 440.613 191.864 436.682C184.36 430.22 176.174 424.963 173.022 415.014C171.472 410.123 169.943 405.254 168.924 400.218C167.509 393.224 168.075 385.84 167.095 378.767C165.536 367.519 164.921 357.15 166.29 345.74C167.259 337.661 167.25 328.671 169.546 320.853C171.04 315.764 172.368 308.694 175.29 304.249C177.275 301.23 179.027 297.976 181.071 294.988C218.18 240.74 255.916 243.694 263.976 243.694C288.26 243.694 306.903 247.616 327.6 254.437C332.185 255.948 337.113 256.464 341.101 259.321C344.059 261.44 347.598 263.035 350.357 265.217C355.221 269.065 358.557 274.126 362.833 278.565C366.25 282.113 369.468 286.361 371.614 290.792C373.403 294.488 375.544 297.561 378.09 300.812C382.937 307.003 385.353 312.592 387.566 320.093C390.674 330.631 392.468 341.902 392.468 352.903C392.468 361.145 390.918 369.495 389.175 377.537C388.696 379.75 387.597 381.716 387.346 383.976C387.164 385.616 387.362 387.221 386.834 388.787C384.143 396.769 376.519 422.083 370.736 428.724C368.893 432.519 336.629 455.625 333.129 457.218M282.269 471.734C286.913 473.691 291.096 473.543 296.099 473.543C300.799 473.543 305.5 474.194 310.148 474.194C319.962 474.194 329.363 474.836 339.271 474.194C349.068 473.559 528.597 478.831 556 501.292M280.074 471.59C286.538 471.59 294.428 472.798 300.746 471.192C312.731 468.144 323.66 463.572 336.514 455.142" stroke="#35507A" stroke-width="5.39074" stroke-linecap="round"/>
</svg>
