<svg width="23" height="20" viewBox="0 0 23 20" fill="none" xmlns="http://www.w3.org/2000/svg">
<path d="M10.1015 0.845546C10.2217 1.0379 10.3029 1.25206 10.3403 1.47578C10.3778 1.69951 10.3708 1.92842 10.3198 2.14945C10.2688 2.37048 10.1748 2.57929 10.0431 2.76398C9.91135 2.94866 9.74455 3.1056 9.55219 3.22582C7.44984 4.53531 5.7797 6.43495 4.75019 8.68767C5.78985 8.60073 6.83155 8.82963 7.73899 9.34442C8.64643 9.85921 9.37735 10.6359 9.83613 11.5729C10.2949 12.5099 10.4602 13.5636 10.3103 14.5961C10.1604 15.6286 9.7024 16.5917 8.99614 17.3596C8.28988 18.1275 7.36829 18.6644 6.35193 18.8999C5.33557 19.1354 4.27179 19.0587 3.29975 18.6798C2.32772 18.3008 1.4927 17.6373 0.903957 16.776C0.31521 15.9147 0.000151212 14.8957 0 13.8524V13.8058C0.00187833 13.6721 0.00763854 13.5384 0.0172734 13.405C0.0328194 13.1459 0.0639116 12.7832 0.124369 12.3375C0.245282 11.4514 0.481928 10.2302 0.960401 8.85868C1.91389 6.11221 3.84506 2.71798 7.72121 0.296252C7.91357 0.176027 8.12772 0.0948683 8.35145 0.0574079C8.57517 0.0199476 8.80408 0.0269198 9.02511 0.0779265C9.24614 0.128933 9.45496 0.222975 9.63964 0.354684C9.82433 0.486392 9.98126 0.653187 10.1015 0.845546ZM22.1929 0.845546C22.3131 1.0379 22.3943 1.25206 22.4317 1.47578C22.4692 1.69951 22.4622 1.92842 22.4112 2.14945C22.3602 2.37048 22.2661 2.57929 22.1344 2.76398C22.0027 2.94866 21.8359 3.1056 21.6436 3.22582C19.5412 4.53531 17.8711 6.43495 16.8416 8.68767C17.8812 8.60073 18.9229 8.82963 19.8304 9.34442C20.7378 9.85921 21.4687 10.6359 21.9275 11.5729C22.3863 12.5099 22.5515 13.5636 22.4017 14.5961C22.2518 15.6286 21.7938 16.5917 21.0875 17.3596C20.3813 18.1275 19.4597 18.6644 18.4433 18.8999C17.427 19.1354 16.3632 19.0587 15.3911 18.6798C14.4191 18.3008 13.5841 17.6373 12.9953 16.776C12.4066 15.9147 12.0915 14.8957 12.0914 13.8524V13.8058C12.0933 13.6721 12.099 13.5384 12.1087 13.405C12.1242 13.1459 12.1553 12.7832 12.2157 12.3375C12.3367 11.4514 12.5733 10.2302 13.0518 8.85868C14.0053 6.11221 15.9364 2.71798 19.8126 0.296252C20.005 0.176027 20.2191 0.0948683 20.4428 0.0574079C20.6666 0.0199476 20.8955 0.0269198 21.1165 0.0779265C21.3375 0.128933 21.5463 0.222975 21.731 0.354684C21.9157 0.486392 22.0726 0.653187 22.1929 0.845546Z" fill="#EBF2FF"/>
</svg>
